<?xml version="1.0" encoding="UTF-8"?>
<svg version="1.1" xmlns="http://www.w3.org/2000/svg" width="640" height="640">
<path d="M0 0 C0.68893782 -0.00055421 1.37787563 -0.00110842 2.08769035 -0.00167942 C9.18813131 0.0037864 16.28533419 0.14304806 23.3828125 0.33813477 C24.86089787 0.37715794 26.33910255 0.41185949 27.81738281 0.44262695 C30.01098688 0.488332 32.20397905 0.54610791 34.3972168 0.60668945 C35.66927979 0.63811035 36.94134277 0.66953125 38.25195312 0.7019043 C41.72987668 1.01867452 44.49893602 1.78892307 47.75268555 3.02075195 C49.5419977 3.57014639 51.33353894 4.11235701 53.12768555 4.64575195 C54.00166992 4.90614258 54.8756543 5.1665332 55.77612305 5.43481445 C56.42838867 5.62817383 57.0806543 5.8215332 57.75268555 6.02075195 C57.75268555 6.68075195 57.75268555 7.34075195 57.75268555 8.02075195 C58.49518555 8.14450195 59.23768555 8.26825195 60.00268555 8.39575195 C62.55410039 8.97561896 64.47944285 9.75783934 66.75268555 11.02075195 C66.75268555 11.68075195 66.75268555 12.34075195 66.75268555 13.02075195 C67.95924805 13.42293945 67.95924805 13.42293945 69.19018555 13.83325195 C70.03581055 14.22512695 70.88143555 14.61700195 71.75268555 15.02075195 C72.08268555 16.01075195 72.41268555 17.00075195 72.75268555 18.02075195 C73.41268555 18.35075195 74.07268555 18.68075195 74.75268555 19.02075195 C75.41268555 19.35075195 76.07268555 19.68075195 76.75268555 20.02075195 C77.08268555 21.01075195 77.41268555 22.00075195 77.75268555 23.02075195 C78.41268555 23.02075195 79.07268555 23.02075195 79.75268555 23.02075195 C82.75268555 27.40536734 82.75268555 27.40536734 82.75268555 30.02075195 C83.41268555 30.02075195 84.07268555 30.02075195 84.75268555 30.02075195 C85.74268555 33.32075195 86.73268555 36.62075195 87.75268555 40.02075195 C88.41268555 40.02075195 89.07268555 40.02075195 89.75268555 40.02075195 C93.91920327 57.9451014 92.82072397 77.01320729 92.79956055 95.33325195 C92.7990205 96.23913433 92.79848045 97.14501671 92.79792404 98.07835007 C92.77937196 125.6620738 92.63349413 153.24573739 92.46514702 180.82889748 C92.40951882 189.96974977 92.36043422 199.11058938 92.31954253 208.2515198 C92.28975367 214.78758709 92.25254832 221.3235874 92.20989549 227.85958326 C92.18487387 231.72468986 92.16301387 235.58974928 92.14934158 239.45491409 C92.1364596 243.05882309 92.1143408 246.66256068 92.08530235 250.26637459 C92.07204436 252.19869304 92.06832451 254.13106974 92.06498718 256.06343079 C91.99931584 262.94742807 91.42532941 269.33400076 89.75268555 276.02075195 C89.09268555 276.02075195 88.43268555 276.02075195 87.75268555 276.02075195 C87.73206055 276.94887695 87.71143555 277.87700195 87.69018555 278.83325195 C86.30820008 288.29601355 78.85410459 295.33961672 71.75268555 301.02075195 C71.2422168 301.53637695 70.73174805 302.05200195 70.20581055 302.58325195 C67.71828699 305.04402795 66.28723453 306.02075195 62.75268555 306.02075195 C62.42268555 307.01075195 62.09268555 308.00075195 61.75268555 309.02075195 C58.43177553 310.72608412 56.56775771 311.02075195 52.75268555 311.02075195 C52.75268555 311.68075195 52.75268555 312.34075195 52.75268555 313.02075195 C40.7033787 316.94987375 27.77532476 316.30636636 15.23242188 316.57299805 C12.87317817 316.6244862 10.51412613 316.68172906 8.1550293 316.73950195 C7.42597885 316.75307739 6.69692841 316.76665283 5.94578552 316.78063965 C2.56078311 316.57294151 2.56078311 316.57294151 -0.24731445 318.02075195 C-1.91160497 318.11899132 -3.58013376 318.15048826 -5.24731445 318.14575195 C-6.15481445 318.14833008 -7.06231445 318.1509082 -7.99731445 318.15356445 C-10.24731445 318.02075195 -10.24731445 318.02075195 -11.24731445 317.02075195 C-13.16161929 316.91846224 -15.0797346 316.88720534 -16.99676514 316.88272095 C-18.24674286 316.87726761 -19.49672058 316.87181427 -20.78457642 316.86619568 C-22.18328852 316.86507566 -23.58200069 316.86402517 -24.98071289 316.86303711 C-26.44430698 316.85837067 -27.90789961 316.85322739 -29.37149048 316.84764099 C-32.53464371 316.83633288 -35.69778736 316.82791103 -38.86095428 316.82152176 C-43.88237499 316.81083483 -48.9037284 316.79057984 -53.92510986 316.7684021 C-68.20891166 316.70652803 -82.49271247 316.6527351 -96.77661133 316.61938477 C-104.65751038 316.60090333 -112.53829933 316.57178601 -120.41911721 316.53138006 C-124.58202844 316.51050387 -128.74480197 316.49488111 -132.90776825 316.49257278 C-150.21664871 316.48040867 -167.17443608 316.27603545 -184.24731445 313.02075195 C-184.24731445 312.36075195 -184.24731445 311.70075195 -184.24731445 311.02075195 C-185.15481445 310.89700195 -186.06231445 310.77325195 -186.99731445 310.64575195 C-189.85727609 310.09575933 -191.80721164 309.55711298 -194.24731445 308.02075195 C-194.57731445 307.36075195 -194.90731445 306.70075195 -195.24731445 306.02075195 C-196.09293945 305.52575195 -196.93856445 305.03075195 -197.80981445 304.52075195 C-199.01637695 303.77825195 -199.01637695 303.77825195 -200.24731445 303.02075195 C-200.24731445 302.36075195 -200.24731445 301.70075195 -200.24731445 301.02075195 C-201.33012695 300.71137695 -201.33012695 300.71137695 -202.43481445 300.39575195 C-206.21949829 298.54546208 -207.76990098 296.41834758 -210.24731445 293.02075195 C-210.24731445 292.36075195 -210.24731445 291.70075195 -210.24731445 291.02075195 C-211.23731445 290.69075195 -212.22731445 290.36075195 -213.24731445 290.02075195 C-214.89551641 287.41832782 -215.24731445 286.15826416 -215.24731445 283.02075195 C-215.90731445 283.02075195 -216.56731445 283.02075195 -217.24731445 283.02075195 C-217.70768074 281.66727507 -218.16547982 280.31292495 -218.62231445 278.95825195 C-218.87754883 278.20415039 -219.1327832 277.45004883 -219.39575195 276.6730957 C-219.67676758 275.79782227 -219.9577832 274.92254883 -220.24731445 274.02075195 C-220.74958054 272.47649033 -220.74958054 272.47649033 -221.26199341 270.90103149 C-222.4335597 266.73463964 -222.70573925 262.59238344 -222.86401367 258.28393555 C-222.90161238 257.35575201 -222.93921108 256.42756847 -222.97794914 255.47125816 C-223.55978373 238.62236972 -223.39253273 221.74526269 -223.38163996 204.88893938 C-223.37907833 199.67574545 -223.38146386 194.46255314 -223.38302612 189.24935913 C-223.38483458 180.51657795 -223.38247413 171.78380528 -223.37768555 163.05102539 C-223.37222153 152.97032992 -223.37402636 142.88965461 -223.37951195 132.8089596 C-223.38405248 124.11461834 -223.38468974 115.42028313 -223.38207328 106.72594106 C-223.38051876 101.5493527 -223.38029459 96.37277381 -223.38360977 91.19618607 C-223.38650299 86.3417917 -223.38448616 81.4874234 -223.37871552 76.63303185 C-223.37739673 74.85611069 -223.37776702 73.07918734 -223.37997818 71.30226707 C-223.38272381 68.87145479 -223.37926732 66.44072527 -223.3742981 64.00991821 C-223.37652882 63.31283835 -223.37875954 62.61575849 -223.38105786 61.89755499 C-223.36246183 57.18589494 -222.90176971 52.67672915 -222.24731445 48.02075195 C-221.58731445 48.02075195 -220.92731445 48.02075195 -220.24731445 48.02075195 C-220.12356445 46.82450195 -219.99981445 45.62825195 -219.87231445 44.39575195 C-219.42406392 40.74478382 -218.54284608 37.47550296 -217.24731445 34.02075195 C-216.58731445 34.02075195 -215.92731445 34.02075195 -215.24731445 34.02075195 C-215.12356445 33.44325195 -214.99981445 32.86575195 -214.87231445 32.27075195 C-214.24082621 29.99739428 -213.35873254 28.09539906 -212.24731445 26.02075195 C-211.58731445 26.02075195 -210.92731445 26.02075195 -210.24731445 26.02075195 C-210.02043945 25.29887695 -209.79356445 24.57700195 -209.55981445 23.83325195 C-207.37557171 19.15273179 -203.53520675 15.8300607 -199.24731445 13.02075195 C-198.58731445 13.02075195 -197.92731445 13.02075195 -197.24731445 13.02075195 C-197.24731445 12.36075195 -197.24731445 11.70075195 -197.24731445 11.02075195 C-189.97748707 7.32206785 -183.1240622 4.0071066 -175.06762695 2.45043945 C-173.23833822 2.18702385 -173.23833822 2.18702385 -172.24731445 1.02075195 C-170.21469361 0.9116911 -168.17824389 0.87383992 -166.14273071 0.86253357 C-165.17537981 0.8551266 -165.17537981 0.8551266 -164.18848646 0.84757 C-162.01099565 0.83212062 -159.83353452 0.82381361 -157.65600586 0.81542969 C-156.1004968 0.80585522 -154.54499036 0.7958454 -152.98948669 0.78543091 C-148.74668679 0.75828521 -144.50387571 0.73731693 -140.2610364 0.71742892 C-135.81091581 0.69555874 -131.3608293 0.66815941 -126.91073608 0.64137268 C-119.41682439 0.59703039 -111.92290044 0.55627795 -104.42895508 0.51806641 C-93.92204597 0.46448961 -83.41517875 0.40478434 -72.90831113 0.34367073 C-14.82979808 0.00715791 -14.82979808 0.00715791 0 0 Z " fill="#FEFEFE" transform="translate(386.247314453125,157.979248046875)"/>
<path d="M0 0 C0.87195007 -0.0065712 1.74390015 -0.0131424 2.64227295 -0.01991272 C5.53226814 -0.03964495 8.42221126 -0.05131078 11.31225586 -0.0612793 C12.30098631 -0.06535482 13.28971676 -0.06943035 14.30840874 -0.07362938 C19.54593573 -0.094494 24.78343653 -0.10879166 30.02099609 -0.11816406 C35.41549871 -0.12920384 40.80958604 -0.16357462 46.2039423 -0.20333576 C50.3639957 -0.22956406 54.52395132 -0.23786162 58.68408012 -0.24144554 C60.67147042 -0.24629875 62.65885673 -0.25787638 64.64616585 -0.27648354 C84.52633292 -0.45098786 84.52633292 -0.45098786 92.46459961 4.17700195 C93.51647461 4.75450195 94.56834961 5.33200195 95.65209961 5.92700195 C103.23202843 11.99094501 108.90838775 19.45801846 110.46459961 29.17700195 C111.38640231 40.71726264 108.84498976 50.17188891 101.46459961 59.17700195 C93.64204903 67.25131278 85.58999384 70.39344175 74.40209961 70.61450195 C64.52262311 70.69196724 56.99464183 67.65403995 49.58959961 60.98950195 C46.95291344 58.0425404 45.12643915 54.9228207 43.26928711 51.4387207 C42.74061035 50.45218506 42.21193359 49.46564941 41.66723633 48.44921875 C41.27036621 47.69938721 40.87349609 46.94955566 40.46459961 46.17700195 C40.45580025 47.38730324 40.45580025 47.38730324 40.44682312 48.62205505 C40.38871841 56.25713439 40.31654129 63.891894 40.2288847 71.52668667 C40.18431597 75.45103811 40.14503096 79.37528897 40.11816406 83.29980469 C40.09199526 87.09311224 40.0514993 90.88602986 40.00141335 94.67909431 C39.98483576 96.12018006 39.97326512 97.56133312 39.9669857 99.00250053 C39.90392349 112.15523536 37.82035313 121.8593422 28.94116211 131.8996582 C21.95354476 138.56345914 13.30729637 141.46670674 3.77709961 141.67700195 C-6.83483413 141.2551208 -13.77160363 138.50216613 -21.53540039 131.17700195 C-29.01088846 122.88719057 -31.89558046 114.18689937 -31.74633789 103.08325195 C-30.98554557 92.60122442 -26.22497809 85.46580393 -18.72290039 78.42700195 C-14.71440316 75.03877509 -10.42857341 73.00061505 -5.53540039 71.17700195 C-6.38811523 70.83088867 -6.38811523 70.83088867 -7.25805664 70.4777832 C-18.12680843 65.8871418 -24.35427467 60.36933384 -29.34790039 49.48950195 C-33.13105759 38.9364845 -32.7765595 28.00113537 -28.01196289 17.8996582 C-21.6512936 6.17112249 -13.522858 0.0441057 0 0 Z " fill="#A25AFE" transform="translate(280.535400390625,284.822998046875)"/>
<path d="M0 0 C0.9227623 -0.00846954 1.8455246 -0.01693909 2.79624939 -0.02566528 C5.83720811 -0.04900359 8.87765978 -0.05005805 11.91870117 -0.04882812 C14.04091086 -0.05593249 16.16311862 -0.06363189 18.2853241 -0.07189941 C22.731286 -0.08533762 27.17707036 -0.08691631 31.62304688 -0.08105469 C37.30581289 -0.07516465 42.9877228 -0.10572502 48.67032337 -0.14617157 C53.05340625 -0.17209032 57.43628427 -0.17492207 61.81943321 -0.17127991 C63.91370479 -0.17296778 66.00798617 -0.18257808 68.10218239 -0.20042419 C71.03874679 -0.22269226 73.97359503 -0.21287141 76.91015625 -0.1953125 C77.7660434 -0.20857574 78.62193054 -0.22183899 79.50375366 -0.23550415 C87.67283289 -0.12266358 94.25211306 3.42505676 99.96166992 9.23242188 C103.46663939 12.93249899 105.82616237 16.6728824 107.64916992 21.41992188 C108.00108398 22.32484375 108.35299805 23.22976562 108.71557617 24.16210938 C111.92393255 35.35779647 110.15554503 45.38762729 104.66870117 55.36914062 C101.52119878 60.12387828 98.47717885 64.42581108 93.33666992 67.16992188 C92.63928711 67.55664062 91.9419043 67.94335938 91.22338867 68.34179688 C84.81588648 71.0253638 78.7699997 71.71853031 71.91333008 71.71044922 C70.66283119 71.72052505 70.66283119 71.72052505 69.3870697 71.73080444 C66.65406193 71.74967218 63.92130112 71.75370272 61.18823242 71.75585938 C59.27306012 71.76229436 57.35788879 71.76902324 55.44271851 71.77603149 C51.43664268 71.78797567 47.43065291 71.79171519 43.42456055 71.79052734 C38.31153146 71.79032415 33.19905813 71.81763961 28.08616066 71.85207176 C24.13283797 71.87439407 20.17964801 71.87836328 16.22626877 71.87730789 C14.34215757 71.87965531 12.45804223 71.88842996 10.57399368 71.90397263 C-0.83362923 71.9892849 -9.84700202 71.79749845 -19.60083008 65.23242188 C-23.15153025 61.60102397 -25.77821185 57.78470111 -28.35083008 53.41992188 C-28.76848633 52.76507813 -29.18614258 52.11023438 -29.61645508 51.43554688 C-34.08465341 43.31727104 -33.69628708 32.73030969 -31.46801758 23.93554688 C-27.79408935 14.34927057 -21.49835041 7.20053857 -12.78291321 1.84069824 C-8.38133646 0.01858147 -4.71438697 -0.01602859 0 0 Z " fill="#FE7263" transform="translate(281.350830078125,213.580078125)"/>
<path d="M0 0 C0.93755127 0.00302124 1.87510254 0.00604248 2.84106445 0.00915527 C6.32384338 0.02478259 9.80646467 0.06666639 13.2890625 0.10546875 C24.9834375 0.19828125 24.9834375 0.19828125 36.9140625 0.29296875 C36.9140625 23.39296875 36.9140625 46.49296875 36.9140625 70.29296875 C29.3240625 70.35484375 21.7340625 70.41671875 13.9140625 70.48046875 C10.34271484 70.52143677 10.34271484 70.52143677 6.69921875 70.56323242 C4.79167181 70.57200221 2.88411922 70.57964498 0.9765625 70.5859375 C0.00267578 70.6012854 -0.97121094 70.6166333 -1.97460938 70.63244629 C-9.87781443 70.63545207 -16.55674967 69.3921501 -22.6484375 63.86328125 C-25.60325451 60.63546485 -27.86998078 57.05262566 -30.0859375 53.29296875 C-30.50359375 52.638125 -30.92125 51.98328125 -31.3515625 51.30859375 C-35.81976083 43.19031791 -35.4313945 32.60335657 -33.203125 23.80859375 C-29.5124734 14.17868162 -23.23115167 7.25862661 -14.62646484 1.70581055 C-9.69227864 -0.2631686 -5.26259104 -0.08031111 0 0 Z " fill="#F24F1F" transform="translate(283.0859375,213.70703125)"/>
<path d="M0 0 C0.68893782 -0.00055421 1.37787563 -0.00110842 2.08769035 -0.00167942 C9.18813131 0.0037864 16.28533419 0.14304806 23.3828125 0.33813477 C24.86089787 0.37715794 26.33910255 0.41185949 27.81738281 0.44262695 C30.01098688 0.488332 32.20397905 0.54610791 34.3972168 0.60668945 C35.66927979 0.63811035 36.94134277 0.66953125 38.25195312 0.7019043 C41.72987668 1.01867452 44.49893602 1.78892307 47.75268555 3.02075195 C49.5419977 3.57014639 51.33353894 4.11235701 53.12768555 4.64575195 C54.00166992 4.90614258 54.8756543 5.1665332 55.77612305 5.43481445 C56.42838867 5.62817383 57.0806543 5.8215332 57.75268555 6.02075195 C57.75268555 6.68075195 57.75268555 7.34075195 57.75268555 8.02075195 C58.49518555 8.14450195 59.23768555 8.26825195 60.00268555 8.39575195 C62.55410039 8.97561896 64.47944285 9.75783934 66.75268555 11.02075195 C66.75268555 11.68075195 66.75268555 12.34075195 66.75268555 13.02075195 C67.95924805 13.42293945 67.95924805 13.42293945 69.19018555 13.83325195 C70.03581055 14.22512695 70.88143555 14.61700195 71.75268555 15.02075195 C72.08268555 16.01075195 72.41268555 17.00075195 72.75268555 18.02075195 C73.41268555 18.35075195 74.07268555 18.68075195 74.75268555 19.02075195 C75.41268555 19.35075195 76.07268555 19.68075195 76.75268555 20.02075195 C77.08268555 21.01075195 77.41268555 22.00075195 77.75268555 23.02075195 C78.41268555 23.02075195 79.07268555 23.02075195 79.75268555 23.02075195 C82.75268555 27.40536734 82.75268555 27.40536734 82.75268555 30.02075195 C83.41268555 30.02075195 84.07268555 30.02075195 84.75268555 30.02075195 C85.74268555 33.32075195 86.73268555 36.62075195 87.75268555 40.02075195 C88.41268555 40.02075195 89.07268555 40.02075195 89.75268555 40.02075195 C93.91920327 57.9451014 92.82072397 77.01320729 92.79956055 95.33325195 C92.7990205 96.23913433 92.79848045 97.14501671 92.79792404 98.07835007 C92.77937196 125.6620738 92.63349413 153.24573739 92.46514702 180.82889748 C92.40951882 189.96974977 92.36043422 199.11058938 92.31954253 208.2515198 C92.28975367 214.78758709 92.25254832 221.3235874 92.20989549 227.85958326 C92.18487387 231.72468986 92.16301387 235.58974928 92.14934158 239.45491409 C92.1364596 243.05882309 92.1143408 246.66256068 92.08530235 250.26637459 C92.07204436 252.19869304 92.06832451 254.13106974 92.06498718 256.06343079 C91.99931584 262.94742807 91.42532941 269.33400076 89.75268555 276.02075195 C89.09268555 276.02075195 88.43268555 276.02075195 87.75268555 276.02075195 C87.73206055 276.94887695 87.71143555 277.87700195 87.69018555 278.83325195 C86.30820008 288.29601355 78.85410459 295.33961672 71.75268555 301.02075195 C71.2422168 301.53637695 70.73174805 302.05200195 70.20581055 302.58325195 C67.71828699 305.04402795 66.28723453 306.02075195 62.75268555 306.02075195 C62.42268555 307.01075195 62.09268555 308.00075195 61.75268555 309.02075195 C58.43177553 310.72608412 56.56775771 311.02075195 52.75268555 311.02075195 C52.75268555 311.68075195 52.75268555 312.34075195 52.75268555 313.02075195 C40.7033787 316.94987375 27.77532476 316.30636636 15.23242188 316.57299805 C12.87317817 316.6244862 10.51412613 316.68172906 8.1550293 316.73950195 C7.42597885 316.75307739 6.69692841 316.76665283 5.94578552 316.78063965 C2.56078311 316.57294151 2.56078311 316.57294151 -0.24731445 318.02075195 C-1.91160497 318.11899132 -3.58013376 318.15048826 -5.24731445 318.14575195 C-6.15481445 318.14833008 -7.06231445 318.1509082 -7.99731445 318.15356445 C-10.24731445 318.02075195 -10.24731445 318.02075195 -11.24731445 317.02075195 C-13.16161929 316.91846224 -15.0797346 316.88720534 -16.99676514 316.88272095 C-18.24674286 316.87726761 -19.49672058 316.87181427 -20.78457642 316.86619568 C-22.18328852 316.86507566 -23.58200069 316.86402517 -24.98071289 316.86303711 C-26.44430698 316.85837067 -27.90789961 316.85322739 -29.37149048 316.84764099 C-32.53464371 316.83633288 -35.69778736 316.82791103 -38.86095428 316.82152176 C-43.88237499 316.81083483 -48.9037284 316.79057984 -53.92510986 316.7684021 C-68.20891166 316.70652803 -82.49271247 316.6527351 -96.77661133 316.61938477 C-104.65751038 316.60090333 -112.53829933 316.57178601 -120.41911721 316.53138006 C-124.58202844 316.51050387 -128.74480197 316.49488111 -132.90776825 316.49257278 C-150.21664871 316.48040867 -167.17443608 316.27603545 -184.24731445 313.02075195 C-184.24731445 312.36075195 -184.24731445 311.70075195 -184.24731445 311.02075195 C-185.15481445 310.89700195 -186.06231445 310.77325195 -186.99731445 310.64575195 C-189.85727609 310.09575933 -191.80721164 309.55711298 -194.24731445 308.02075195 C-194.57731445 307.36075195 -194.90731445 306.70075195 -195.24731445 306.02075195 C-196.09293945 305.52575195 -196.93856445 305.03075195 -197.80981445 304.52075195 C-199.01637695 303.77825195 -199.01637695 303.77825195 -200.24731445 303.02075195 C-200.24731445 302.36075195 -200.24731445 301.70075195 -200.24731445 301.02075195 C-201.33012695 300.71137695 -201.33012695 300.71137695 -202.43481445 300.39575195 C-206.21949829 298.54546208 -207.76990098 296.41834758 -210.24731445 293.02075195 C-210.24731445 292.36075195 -210.24731445 291.70075195 -210.24731445 291.02075195 C-211.23731445 290.69075195 -212.22731445 290.36075195 -213.24731445 290.02075195 C-214.89551641 287.41832782 -215.24731445 286.15826416 -215.24731445 283.02075195 C-215.90731445 283.02075195 -216.56731445 283.02075195 -217.24731445 283.02075195 C-217.70768074 281.66727507 -218.16547982 280.31292495 -218.62231445 278.95825195 C-218.87754883 278.20415039 -219.1327832 277.45004883 -219.39575195 276.6730957 C-219.67676758 275.79782227 -219.9577832 274.92254883 -220.24731445 274.02075195 C-220.74958054 272.47649033 -220.74958054 272.47649033 -221.26199341 270.90103149 C-222.4335597 266.73463964 -222.70573925 262.59238344 -222.86401367 258.28393555 C-222.90161238 257.35575201 -222.93921108 256.42756847 -222.97794914 255.47125816 C-223.55978373 238.62236972 -223.39253273 221.74526269 -223.38163996 204.88893938 C-223.37907833 199.67574545 -223.38146386 194.46255314 -223.38302612 189.24935913 C-223.38483458 180.51657795 -223.38247413 171.78380528 -223.37768555 163.05102539 C-223.37222153 152.97032992 -223.37402636 142.88965461 -223.37951195 132.8089596 C-223.38405248 124.11461834 -223.38468974 115.42028313 -223.38207328 106.72594106 C-223.38051876 101.5493527 -223.38029459 96.37277381 -223.38360977 91.19618607 C-223.38650299 86.3417917 -223.38448616 81.4874234 -223.37871552 76.63303185 C-223.37739673 74.85611069 -223.37776702 73.07918734 -223.37997818 71.30226707 C-223.38272381 68.87145479 -223.37926732 66.44072527 -223.3742981 64.00991821 C-223.37652882 63.31283835 -223.37875954 62.61575849 -223.38105786 61.89755499 C-223.36246183 57.18589494 -222.90176971 52.67672915 -222.24731445 48.02075195 C-221.58731445 48.02075195 -220.92731445 48.02075195 -220.24731445 48.02075195 C-220.12356445 46.82450195 -219.99981445 45.62825195 -219.87231445 44.39575195 C-219.42406392 40.74478382 -218.54284608 37.47550296 -217.24731445 34.02075195 C-216.58731445 34.02075195 -215.92731445 34.02075195 -215.24731445 34.02075195 C-215.12356445 33.44325195 -214.99981445 32.86575195 -214.87231445 32.27075195 C-214.24082621 29.99739428 -213.35873254 28.09539906 -212.24731445 26.02075195 C-211.58731445 26.02075195 -210.92731445 26.02075195 -210.24731445 26.02075195 C-210.02043945 25.29887695 -209.79356445 24.57700195 -209.55981445 23.83325195 C-207.37557171 19.15273179 -203.53520675 15.8300607 -199.24731445 13.02075195 C-198.58731445 13.02075195 -197.92731445 13.02075195 -197.24731445 13.02075195 C-197.24731445 12.36075195 -197.24731445 11.70075195 -197.24731445 11.02075195 C-189.97748707 7.32206785 -183.1240622 4.0071066 -175.06762695 2.45043945 C-173.23833822 2.18702385 -173.23833822 2.18702385 -172.24731445 1.02075195 C-170.21469361 0.9116911 -168.17824389 0.87383992 -166.14273071 0.86253357 C-165.17537981 0.8551266 -165.17537981 0.8551266 -164.18848646 0.84757 C-162.01099565 0.83212062 -159.83353452 0.82381361 -157.65600586 0.81542969 C-156.1004968 0.80585522 -154.54499036 0.7958454 -152.98948669 0.78543091 C-148.74668679 0.75828521 -144.50387571 0.73731693 -140.2610364 0.71742892 C-135.81091581 0.69555874 -131.3608293 0.66815941 -126.91073608 0.64137268 C-119.41682439 0.59703039 -111.92290044 0.55627795 -104.42895508 0.51806641 C-93.92204597 0.46448961 -83.41517875 0.40478434 -72.90831113 0.34367073 C-14.82979808 0.00715791 -14.82979808 0.00715791 0 0 Z M-205.24731445 22.02075195 C-205.81450195 22.56344727 -206.38168945 23.10614258 -206.96606445 23.6652832 C-220.67662797 38.06866775 -220.54970299 56.70343184 -220.56958008 75.29882812 C-220.57885322 77.33210605 -220.58890476 79.36538055 -220.59967041 81.39865112 C-220.6257567 86.89270722 -220.63877589 92.38671463 -220.64769173 97.8808229 C-220.65357806 101.32167625 -220.6617921 104.76251665 -220.67070007 108.20336342 C-220.69800431 118.99366887 -220.71736119 129.78394429 -220.72510386 140.57428187 C-220.73406127 152.98512442 -220.76915838 165.395526 -220.82710505 177.80623454 C-220.87046963 187.43129999 -220.89051928 197.05624193 -220.89318609 206.68140393 C-220.89527237 212.41583456 -220.90687669 218.1498494 -220.94282532 223.88417625 C-220.97601615 229.28284995 -220.97998859 234.68080027 -220.9625473 240.07954025 C-220.96101883 242.04781229 -220.96952808 244.01612513 -220.98946381 245.9842968 C-221.17693763 265.66491952 -216.75099635 281.07198084 -202.99731445 295.70825195 C-191.31345941 306.91602462 -178.49350945 311.17160049 -162.56492615 311.16792297 C-161.27242521 311.17343801 -161.27242521 311.17343801 -159.95381314 311.17906445 C-157.07304379 311.19005738 -154.19231057 311.19393767 -151.31152344 311.19775391 C-149.24308662 311.20402191 -147.17465091 311.21066901 -145.10621643 311.21766663 C-138.31862161 311.23867063 -131.53102666 311.2490661 -124.7434082 311.2590332 C-122.40282746 311.26308223 -120.06224684 311.26719919 -117.72166634 311.27138329 C-106.72311509 311.29042749 -95.72457053 311.30465973 -84.72600597 311.31299525 C-72.04859366 311.32276289 -59.37135617 311.34907346 -46.69400543 311.38949615 C-36.88314527 311.41970057 -27.07233511 311.43446827 -17.26142937 311.43777627 C-11.40752367 311.44012191 -5.5538049 311.44901931 0.30005074 311.47423744 C5.8117712 311.49759863 11.32318272 311.50171902 16.83493996 311.49147606 C18.8500293 311.49098254 20.86513428 311.49724841 22.88017654 311.5110321 C43.26306087 311.64257954 57.87809579 307.66689238 72.75268555 293.02075195 C85.19145392 280.60914247 88.2513188 264.00956612 88.2947998 247.10751343 C88.28702571 245.19708083 88.27883323 243.2866499 88.27026367 241.3762207 C88.27569444 239.32792669 88.28282242 237.27963658 88.29150391 235.23135376 C88.30962661 229.70652681 88.3027156 224.18200107 88.28998756 218.65716934 C88.27980233 212.85281868 88.2892685 207.04849239 88.29553223 201.24414062 C88.30279261 191.50003468 88.29326322 181.75605034 88.27416992 172.01196289 C88.25240438 160.77493767 88.25945688 149.53820284 88.28147554 138.30118465 C88.29967546 128.62260689 88.30216546 118.94411613 88.29172087 109.26552677 C88.28551115 103.49837045 88.28458054 97.73135025 88.29786682 91.96420288 C88.30949169 86.54014995 88.30127906 81.11646844 88.27828979 75.69245529 C88.27303799 73.71165964 88.27445531 71.73083228 88.28334045 69.75004959 C88.36142663 50.56089128 85.27018866 34.70316879 71.56518555 20.20825195 C56.19045384 5.65154827 40.0160411 3.41466166 19.83862305 3.50317383 C17.74944574 3.49774454 15.66027227 3.49061737 13.57110596 3.48193359 C7.93059031 3.4637934 2.29036933 3.47072925 -3.35015106 3.48344994 C-9.27242283 3.49362598 -15.19467053 3.48417152 -21.11694336 3.47790527 C-31.05953468 3.47064224 -41.00200687 3.48018127 -50.94458008 3.49926758 C-62.41506561 3.52103363 -73.88526667 3.51398131 -85.35574532 3.49196196 C-95.23046351 3.47376963 -105.10509642 3.47126836 -114.97982597 3.48171663 C-120.86601291 3.4879305 -126.75206644 3.48884538 -132.63824463 3.47557068 C-138.17390409 3.46395696 -143.70919925 3.47213847 -149.24481964 3.49514771 C-151.26796109 3.50040538 -153.29113357 3.49897189 -155.31426239 3.49009705 C-175.7381997 3.40881108 -190.32323581 7.37777753 -205.24731445 22.02075195 Z " fill="#A694CC" transform="translate(386.247314453125,157.979248046875)"/>
<path d="M0 0 C0.85715607 0.00141495 1.71431213 0.0028299 2.59744263 0.00428772 C5.3176024 0.00985603 8.03767788 0.02240261 10.7578125 0.03515625 C12.60937381 0.04017535 14.46093641 0.04473754 16.3125 0.04882812 C20.83596965 0.05981508 25.35937682 0.07705773 29.8828125 0.09765625 C29.95739929 5.91427866 30.01162011 11.73061788 30.04760742 17.54760742 C30.06262206 19.52324274 30.08304001 21.49884514 30.10913086 23.47436523 C30.14583822 26.3267432 30.16261243 29.17867754 30.17578125 32.03125 C30.19126511 32.90349716 30.20674896 33.77574432 30.22270203 34.67442322 C30.22558738 45.37313707 26.4119064 53.84552699 19.359375 61.8203125 C12.37175765 68.48411344 3.72550926 71.38736104 -5.8046875 71.59765625 C-16.41662124 71.17577509 -23.35339074 68.42282042 -31.1171875 61.09765625 C-38.59267557 52.80784486 -41.47736757 44.10755367 -41.328125 33.00390625 C-40.56733268 22.52187872 -35.8067652 15.38645823 -28.3046875 8.34765625 C-19.77494396 1.2041999 -10.79386862 -0.06776497 0 0 Z " fill="#0CCE83" transform="translate(290.1171875,354.90234375)"/>
<path d="M0 0 C0.66 0.37125 1.32 0.7425 2 1.125 C3.051875 1.7025 4.10375 2.28 5.1875 2.875 C12.76742882 8.93894306 18.44378814 16.40601651 20 26.125 C20.9218027 37.66526068 18.38039015 47.11988696 11 56.125 C3.17744943 64.19931082 -4.87460577 67.3414398 -16.0625 67.5625 C-25.9419765 67.63996528 -33.46995778 64.602038 -40.875 57.9375 C-49.06613412 48.9031609 -51.42784962 39.34358442 -51.265625 27.43359375 C-50.47239015 17.55315375 -45.21343691 10.6327746 -38 4.125 C-26.87976614 -3.79736314 -12.64979358 -6.15395363 0 0 Z " fill="#1CBCFD" transform="translate(371,287.875)"/>
<path d="M0 0 C0.66 0 1.32 0 2 0 C2.99 3.3 3.98 6.6 5 10 C5.66 10 6.32 10 7 10 C11.16651772 27.92434945 10.06803843 46.99245533 10.046875 65.3125 C10.04633495 66.21838238 10.04579491 67.12426476 10.04523849 68.05759811 C10.02668641 95.64132185 9.88080859 123.22498543 9.71246147 150.80814552 C9.65683327 159.94899781 9.60774867 169.08983743 9.56685698 178.23076785 C9.53706812 184.76683514 9.49986278 191.30283545 9.45720994 197.83883131 C9.43218832 201.70393791 9.41032832 205.56899732 9.39665604 209.43416214 C9.38377406 213.03807114 9.36165525 216.64180872 9.33261681 220.24562263 C9.31935882 222.17794108 9.31563897 224.11031778 9.31230164 226.04267883 C9.2466303 232.92667612 8.67264387 239.31324881 7 246 C6.34 246 5.68 246 5 246 C4.979375 246.928125 4.95875 247.85625 4.9375 248.8125 C3.55551453 258.2752616 -3.89858096 265.31886477 -11 271 C-11.51046875 271.515625 -12.0209375 272.03125 -12.546875 272.5625 C-15.03439856 275.02327599 -16.46545102 276 -20 276 C-20.33 276.99 -20.66 277.98 -21 279 C-24.32091002 280.70533217 -26.18492784 281 -30 281 C-30 281.66 -30 282.32 -30 283 C-42.04930684 286.9291218 -54.97736078 286.2856144 -67.52026367 286.55224609 C-69.87950738 286.60373424 -72.23855942 286.6609771 -74.59765625 286.71875 C-75.3267067 286.73232544 -76.05575714 286.74590088 -76.80690002 286.7598877 C-80.19190244 286.55218956 -80.19190244 286.55218956 -83 288 C-84.66429051 288.09823937 -86.33281931 288.12973631 -88 288.125 C-88.9075 288.12757813 -89.815 288.13015625 -90.75 288.1328125 C-93 288 -93 288 -94 287 C-95.91430484 286.89771029 -97.83242015 286.86645339 -99.74945068 286.86196899 C-100.99942841 286.85651566 -102.24940613 286.85106232 -103.53726196 286.84544373 C-104.93597407 286.8443237 -106.33468623 286.84327322 -107.73339844 286.84228516 C-109.19699253 286.83761872 -110.66058516 286.83247544 -112.12417603 286.82688904 C-115.28732925 286.81558093 -118.45047291 286.80715907 -121.61363983 286.80076981 C-126.63506053 286.79008288 -131.65641395 286.76982789 -136.67779541 286.74765015 C-150.96159721 286.68577608 -165.24539802 286.63198314 -179.52929688 286.59863281 C-187.41019592 286.58015138 -195.29098488 286.55103406 -203.17180276 286.5106281 C-207.33471399 286.48975192 -211.49748751 286.47412915 -215.6604538 286.47182083 C-232.96933426 286.45965671 -249.92712162 286.25528349 -267 283 C-267 282.34 -267 281.68 -267 281 C-267.9075 280.87625 -268.815 280.7525 -269.75 280.625 C-272.60996164 280.07500738 -274.55989718 279.53636103 -277 278 C-277.33 277.34 -277.66 276.68 -278 276 C-278.845625 275.505 -279.69125 275.01 -280.5625 274.5 C-281.7690625 273.7575 -281.7690625 273.7575 -283 273 C-283 272.34 -283 271.68 -283 271 C-284.0828125 270.690625 -284.0828125 270.690625 -285.1875 270.375 C-288.97218384 268.52471012 -290.52258653 266.39759562 -293 263 C-293 262.34 -293 261.68 -293 261 C-293.99 260.67 -294.98 260.34 -296 260 C-297.64820195 257.39757586 -298 256.13751221 -298 253 C-298.66 253 -299.32 253 -300 253 C-300.46036629 251.64652311 -300.91816537 250.292173 -301.375 248.9375 C-301.63023437 248.18339844 -301.88546875 247.42929687 -302.1484375 246.65234375 C-302.42945313 245.77707031 -302.71046875 244.90179688 -303 244 C-303.50226608 242.45573837 -303.50226608 242.45573837 -304.01467896 240.88027954 C-305.18624525 236.71388769 -305.4584248 232.57163149 -305.61669922 228.26318359 C-305.65429792 227.33500006 -305.69189663 226.40681652 -305.73063469 225.45050621 C-306.31246927 208.60161776 -306.14521828 191.72451073 -306.1343255 174.86818743 C-306.13176387 169.6549935 -306.13414941 164.44180119 -306.13571167 159.22860718 C-306.13752013 150.49582599 -306.13515968 141.76305332 -306.13037109 133.03027344 C-306.12490708 122.94957796 -306.1267119 112.86890265 -306.1321975 102.78820765 C-306.13673803 94.09386639 -306.13737528 85.39953118 -306.13475883 76.70518911 C-306.13320431 71.52860074 -306.13298013 66.35202186 -306.13629532 61.17543411 C-306.13918853 56.32103975 -306.1371717 51.46667145 -306.13140106 46.61227989 C-306.13008228 44.83535874 -306.13045257 43.05843539 -306.13266373 41.28151512 C-306.13540936 38.85070283 -306.13195287 36.41997332 -306.12698364 33.98916626 C-306.12921436 33.2920864 -306.13144509 32.59500654 -306.13374341 31.87680304 C-306.11514738 27.16514299 -305.65445526 22.6559772 -305 18 C-304.34 18 -303.68 18 -303 18 C-302.896875 16.783125 -302.79375 15.56625 -302.6875 14.3125 C-302.23780688 10.58930552 -301.21617222 8.08337005 -299 5 C-297.83820221 8.48539337 -298.22928915 9.365423 -299.375 12.75 C-301.7026965 19.66782699 -302.14970683 26.42984658 -302.16062927 33.66183472 C-302.168261 34.93300791 -302.168261 34.93300791 -302.17604691 36.22986138 C-302.19168581 39.05672249 -302.2002738 41.88355819 -302.20874023 44.71044922 C-302.2182858 46.74298765 -302.22817727 48.77552449 -302.23838806 50.80805969 C-302.26969807 57.47358286 -302.29003449 64.1391182 -302.30859375 70.8046875 C-302.31353973 72.50949146 -302.31353973 72.50949146 -302.31858563 74.2487359 C-302.34936788 84.98073292 -302.37605684 95.7127329 -302.39300442 106.44476128 C-302.41488447 120.13627091 -302.45681197 133.82738715 -302.52644199 147.51873958 C-302.57382019 157.16492414 -302.59795652 166.8110031 -302.6052013 176.45730031 C-302.61013729 182.20859005 -302.62502216 187.95943575 -302.6649456 193.71059799 C-302.70206908 199.12970224 -302.71013782 204.54811351 -302.69693947 209.9673214 C-302.69699299 211.94366047 -302.70711449 213.9200323 -302.7286911 215.89625359 C-302.90172195 232.65594253 -300.30887694 247.8624536 -289 261 C-288.39414062 261.70382812 -287.78828125 262.40765625 -287.1640625 263.1328125 C-277.98751119 272.98355942 -267.19360327 278.13747518 -254 280 C-251.13203077 280.10014587 -248.28774951 280.15465849 -245.41995239 280.15821838 C-244.14431956 280.16562535 -244.14431956 280.16562535 -242.84291637 280.17318195 C-240.00091099 280.18850742 -237.15892813 280.19690413 -234.31689453 280.20532227 C-232.27662458 280.21490468 -230.23635661 280.22491498 -228.1960907 280.23532104 C-222.66151116 280.26233676 -217.12692313 280.28336438 -211.59231424 280.30332303 C-205.8067155 280.32520313 -200.02114286 280.35258192 -194.23556519 280.37937927 C-183.2816206 280.42927877 -172.32766151 280.47422779 -161.37368858 280.51740164 C-148.90218543 280.56679744 -136.43070847 280.62170689 -123.95923066 280.67708123 C-98.30617821 280.79085917 -72.65310064 280.89770734 -47 281 C-47 281.33 -47 281.66 -47 282 C-115.64 282 -184.28 282 -255 282 C-255 282.66 -255 283.32 -255 284 C-227.8093296 283.9160513 -200.61871827 283.82089986 -173.42813396 283.71247292 C-160.80260615 283.6623867 -148.17708469 283.6159433 -135.55151367 283.578125 C-124.54493874 283.5451469 -113.53841376 283.50528353 -102.53189403 283.45720994 C-96.70598978 283.43200284 -90.88011842 283.41020448 -85.05417442 283.39665604 C-79.56555359 283.38378314 -74.0770459 283.36167259 -68.58848763 283.33261681 C-66.57903648 283.32358182 -64.56956713 283.31786038 -62.56009674 283.31578636 C-43.6593881 283.4021724 -43.6593881 283.4021724 -25.9375 277.4375 C-25.25703613 277.08816406 -24.57657227 276.73882812 -23.87548828 276.37890625 C-9.32655105 268.59555259 -0.74882792 256.12765658 5 241 C7.84045662 230.97292777 7.30389618 220.44430381 7.30639648 210.12670898 C7.31402865 208.12475784 7.32245795 206.1228096 7.33161926 204.12086487 C7.35346901 198.70725141 7.36235051 193.2936944 7.36744571 187.88004184 C7.3711011 184.4892713 7.37734731 181.09851529 7.3844471 177.70775032 C7.40891019 165.85390709 7.42198634 154.00010741 7.42553711 142.14624023 C7.42916812 131.13711767 7.45904067 120.1282746 7.50094169 109.11923736 C7.53575931 99.63515133 7.55108754 90.15115742 7.55178314 80.66700798 C7.55257216 75.01698251 7.56113685 69.36724206 7.58978081 63.71728325 C7.61615818 58.39583123 7.61805794 53.07489658 7.60212517 47.75340843 C7.60032612 45.81459159 7.60685938 43.87574361 7.62294388 41.93699265 C7.72258794 29.1324193 6.06230067 18.15150312 2 6 C1.61663199 4.84342612 1.23326399 3.68685225 0.83827877 2.49523067 C0.56164678 1.67180455 0.28501478 0.84837843 0 0 Z " fill="#A391CB" transform="translate(469,188)"/>
<path d="M0 0 C0.66 0 1.32 0 2 0 C2.99 3.3 3.98 6.6 5 10 C5.66 10 6.32 10 7 10 C11.16651772 27.92434945 10.06803843 46.99245533 10.046875 65.3125 C10.04633495 66.21838238 10.04579491 67.12426476 10.04523849 68.05759811 C10.02668641 95.64132185 9.88080859 123.22498543 9.71246147 150.80814552 C9.65683327 159.94899781 9.60774867 169.08983743 9.56685698 178.23076785 C9.53706812 184.76683514 9.49986278 191.30283545 9.45720994 197.83883131 C9.43218832 201.70393791 9.41032832 205.56899732 9.39665604 209.43416214 C9.38377406 213.03807114 9.36165525 216.64180872 9.33261681 220.24562263 C9.31935882 222.17794108 9.31563897 224.11031778 9.31230164 226.04267883 C9.2466303 232.92667612 8.67264387 239.31324881 7 246 C6.34 246 5.68 246 5 246 C4.979375 246.928125 4.95875 247.85625 4.9375 248.8125 C3.55551453 258.2752616 -3.89858096 265.31886477 -11 271 C-11.76570313 271.7734375 -11.76570313 271.7734375 -12.546875 272.5625 C-15.03439856 275.02327599 -16.46545102 276 -20 276 C-20.33 276.99 -20.66 277.98 -21 279 C-24.32091002 280.70533217 -26.18492784 281 -30 281 C-30 281.66 -30 282.32 -30 283 C-42.04930684 286.9291218 -54.97736078 286.2856144 -67.52026367 286.55224609 C-69.87950738 286.60373424 -72.23855942 286.6609771 -74.59765625 286.71875 C-75.3267067 286.73232544 -76.05575714 286.74590088 -76.80690002 286.7598877 C-80.19190244 286.55218956 -80.19190244 286.55218956 -83 288 C-84.66429051 288.09823937 -86.33281931 288.12973631 -88 288.125 C-88.9075 288.12757813 -89.815 288.13015625 -90.75 288.1328125 C-93 288 -93 288 -94 287 C-95.91430484 286.89771029 -97.83242015 286.86645339 -99.74945068 286.86196899 C-100.99942841 286.85651566 -102.24940613 286.85106232 -103.53726196 286.84544373 C-104.93597407 286.8443237 -106.33468623 286.84327322 -107.73339844 286.84228516 C-109.19699253 286.83761872 -110.66058516 286.83247544 -112.12417603 286.82688904 C-115.28732925 286.81558093 -118.45047291 286.80715907 -121.61363983 286.80076981 C-126.63506053 286.79008288 -131.65641395 286.76982789 -136.67779541 286.74765015 C-150.96159721 286.68577608 -165.24539802 286.63198314 -179.52929688 286.59863281 C-187.41019592 286.58015138 -195.29098488 286.55103406 -203.17180276 286.5106281 C-207.33471399 286.48975192 -211.49748751 286.47412915 -215.6604538 286.47182083 C-232.96933426 286.45965671 -249.92712162 286.25528349 -267 283 C-267 282.34 -267 281.68 -267 281 C-266.371177 281.14137264 -265.74235399 281.28274529 -265.09447575 281.42840195 C-254.92188955 283.4352501 -244.8553048 283.28178932 -234.53491211 283.25878906 C-232.48204932 283.26150323 -230.42918751 283.26506655 -228.37632751 283.26940918 C-222.83099731 283.27848418 -217.28574199 283.27500932 -211.74041057 283.26865101 C-205.92130385 283.26356631 -200.10220329 283.26828924 -194.28309631 283.27142334 C-184.51448421 283.27505551 -174.74590242 283.27028326 -164.97729492 283.26074219 C-153.70169966 283.24985605 -142.42617672 283.25338742 -131.15058321 283.264395 C-121.44833253 283.27348559 -111.74610356 283.27474458 -102.04385 283.26951766 C-96.25835171 283.2664081 -90.47288736 283.26596075 -84.68739128 283.27259064 C-79.24788227 283.27838938 -73.80846609 283.27432105 -68.36896706 283.26280212 C-66.37884551 283.26016917 -64.38871608 283.26089717 -62.39859772 283.26532745 C-43.58112895 283.38815461 -43.58112895 283.38815461 -25.9375 277.4375 C-25.25703613 277.08816406 -24.57657227 276.73882812 -23.87548828 276.37890625 C-9.32655105 268.59555259 -0.74882792 256.12765658 5 241 C7.84045662 230.97292777 7.30389618 220.44430381 7.30639648 210.12670898 C7.31402865 208.12475784 7.32245795 206.1228096 7.33161926 204.12086487 C7.35346901 198.70725141 7.36235051 193.2936944 7.36744571 187.88004184 C7.3711011 184.4892713 7.37734731 181.09851529 7.3844471 177.70775032 C7.40891019 165.85390709 7.42198634 154.00010741 7.42553711 142.14624023 C7.42916812 131.13711767 7.45904067 120.1282746 7.50094169 109.11923736 C7.53575931 99.63515133 7.55108754 90.15115742 7.55178314 80.66700798 C7.55257216 75.01698251 7.56113685 69.36724206 7.58978081 63.71728325 C7.61615818 58.39583123 7.61805794 53.07489658 7.60212517 47.75340843 C7.60032612 45.81459159 7.60685938 43.87574361 7.62294388 41.93699265 C7.72258794 29.1324193 6.06230067 18.15150312 2 6 C1.61663199 4.84342612 1.23326399 3.68685225 0.83827877 2.49523067 C0.56164678 1.67180455 0.28501478 0.84837843 0 0 Z " fill="#EFEEF2" transform="translate(469,188)"/>
<path d="M0 0 C3.95150543 2.63433695 4.40828055 5.67519404 5.75 10 C8.16093671 17.2457069 10.96790681 23.15420664 16 29 C16.60585937 29.70382812 17.21171875 30.40765625 17.8359375 31.1328125 C27.01248881 40.98355942 37.80639673 46.13747518 51 48 C53.86796923 48.10014587 56.71225049 48.15465849 59.58004761 48.15821838 C60.85568044 48.16562535 60.85568044 48.16562535 62.15708363 48.17318195 C64.99908901 48.18850742 67.84107187 48.19690413 70.68310547 48.20532227 C72.72337542 48.21490468 74.76364339 48.22491498 76.8039093 48.23532104 C82.33848884 48.26233676 87.87307687 48.28336438 93.40768576 48.30332303 C99.1932845 48.32520313 104.97885714 48.35258192 110.76443481 48.37937927 C121.7183794 48.42927877 132.67233849 48.47422779 143.62631142 48.51740164 C156.09781457 48.56679744 168.56929153 48.62170689 181.04076934 48.67708123 C206.69382179 48.79085917 232.34689936 48.89770734 258 49 C258 49.33 258 49.66 258 50 C230.30522068 50.20087064 202.61037299 50.38414433 174.91534042 50.54658794 C162.05546916 50.62242507 149.19568195 50.70397543 136.3359375 50.79907227 C125.12471648 50.88196379 113.91348644 50.95403724 102.70211434 51.01323253 C96.76821646 51.04493793 90.83446236 51.08198397 84.90068817 51.13199425 C79.30954397 51.17894565 73.71849909 51.21137314 68.12720108 51.2329216 C66.0810343 51.24332022 64.03488589 51.25891147 61.98880386 51.28024101 C37.46624972 51.52889674 37.46624972 51.52889674 28 46 C27.67 45.34 27.34 44.68 27 44 C26.154375 43.505 25.30875 43.01 24.4375 42.5 C23.633125 42.005 22.82875 41.51 22 41 C22 40.34 22 39.68 22 39 C21.278125 38.79375 20.55625 38.5875 19.8125 38.375 C16.02781616 36.52471012 14.47741347 34.39759562 12 31 C12 30.34 12 29.68 12 29 C11.01 28.67 10.02 28.34 9 28 C7.35179805 25.39757586 7 24.13751221 7 21 C6.34 21 5.68 21 5 21 C-0.32407407 5.34722222 -0.32407407 5.34722222 0 0 Z " fill="#BBADD9" transform="translate(164,420)"/>
<path d="M0 0 C0 0.66 0 1.32 0 2 C-4.51754579 3.13271666 -8.94823966 3.13704281 -13.57368469 3.12025452 C-14.86641187 3.12153615 -14.86641187 3.12153615 -16.18525475 3.12284368 C-19.07184791 3.12449026 -21.9583829 3.11899055 -24.8449707 3.11352539 C-26.91464741 3.11324332 -28.98432421 3.11340165 -31.05400085 3.1139679 C-36.67336902 3.11425508 -42.29271589 3.1083711 -47.9120791 3.10139394 C-53.78441781 3.09514726 -59.65675699 3.09455556 -65.52909851 3.09336853 C-76.64955044 3.0902591 -87.76999256 3.08205092 -98.89044017 3.07201904 C-111.55053159 3.06084587 -124.21062347 3.05534441 -136.8707186 3.05032361 C-162.91381784 3.03986801 -188.95690837 3.02227605 -215 3 C-215 2.34 -215 1.68 -215 1 C-188.0010637 0.86941137 -161.00212647 0.73901527 -134.00318813 0.60884857 C-121.46721287 0.54840591 -108.93123792 0.48790016 -96.39526367 0.42724609 C-85.46933443 0.37438223 -74.54340463 0.32163654 -63.61747414 0.26903296 C-57.83193645 0.24117399 -52.04639907 0.21325571 -46.26086235 0.18519592 C-40.8149936 0.15878539 -35.36912411 0.13253292 -29.92325401 0.10640144 C-27.9250104 0.09678525 -25.92676705 0.0871114 -23.92852402 0.07737541 C-21.19843873 0.06408234 -18.46835253 0.05099751 -15.73826599 0.03796387 C-14.94933864 0.03407292 -14.16041128 0.03018197 -13.34757704 0.02617311 C-8.89832349 0.00518618 -4.44930357 -0.00357399 0 0 Z " fill="#9782C3" transform="translate(429,469)"/>
<path d="M0 0 C1.80859375 0.1640625 1.80859375 0.1640625 4 1 C5.59765625 3.3359375 5.59765625 3.3359375 7.0625 6.375 C7.54847656 7.35210937 8.03445313 8.32921875 8.53515625 9.3359375 C12.78429538 19.96445083 13.42016385 29.74435607 13.34057617 41.0378418 C13.33972846 42.73402389 13.34020784 44.43020709 13.34190369 46.12638855 C13.34275946 50.70006959 13.32520188 55.27351144 13.30418181 59.84713721 C13.28534487 64.63837942 13.28365907 69.42962796 13.28010559 74.22090149 C13.27080566 83.2799921 13.24621981 92.33897325 13.21605712 101.3980158 C13.18244904 111.71728521 13.16601103 122.03656003 13.15097082 132.3558706 C13.11966831 153.57064134 13.06694796 174.78531376 13 196 C12.67 196 12.34 196 12 196 C11.99761165 195.16677121 11.99522329 194.33354242 11.99276257 193.47506428 C11.93350947 173.15820227 11.85789372 152.84145786 11.76428509 132.52472401 C11.71940635 122.6995177 11.67997357 112.87434701 11.65356445 103.04907227 C11.63052005 94.48083203 11.59705053 85.91270523 11.55129844 77.34455508 C11.5274528 72.8118939 11.50866748 68.27934446 11.50238609 63.74662209 C11.49629581 59.47102967 11.47615539 55.19572284 11.44572449 50.92023659 C11.43700697 49.35992422 11.43320847 47.79957444 11.43499184 46.23923874 C11.44707907 30.76921152 9.22538188 14.84963905 0 2 C0 1.34 0 0.68 0 0 Z " fill="#937DC2" transform="translate(463,184)"/>
<path d="M0 0 C8.58 0 17.16 0 26 0 C23 2 23 2 20.80078125 3.19140625 C10.5521106 8.83863293 4.54505781 15.82840335 1 27 C0.67 27 0.34 27 0 27 C0 18.09 0 9.18 0 0 Z " fill="#FAFBFE" transform="translate(320,285)"/>
<path d="M0 0 C3.95150543 2.63433695 4.40828055 5.67519404 5.75 10 C8.16093671 17.2457069 10.96790681 23.15420664 16 29 C16.60585937 29.70382812 17.21171875 30.40765625 17.8359375 31.1328125 C24.30541861 38.07760243 32.41267348 43.0544716 41 47 C41 47.33 41 47.66 41 48 C36.13922426 47.52345336 33.08294274 46.61727099 29 44 C27.9275 43.67 26.855 43.34 25.75 43 C24.38875 42.505 24.38875 42.505 23 42 C22.67 41.01 22.34 40.02 22 39 C21.2575 38.731875 20.515 38.46375 19.75 38.1875 C15.91141436 36.52992893 14.45555683 34.3676208 12 31 C12 30.34 12 29.68 12 29 C11.01 28.67 10.02 28.34 9 28 C7.35179805 25.39757586 7 24.13751221 7 21 C6.34 21 5.68 21 5 21 C-0.32407407 5.34722222 -0.32407407 5.34722222 0 0 Z " fill="#AF9FD0" transform="translate(164,420)"/>
<path d="M0 0 C0.495 0.99 0.495 0.99 1 2 C1.66 2 2.32 2 3 2 C-1.88014583 18.42585668 -10.97544827 31.35857837 -26 40 C-31.47386745 42.86405906 -36.75764776 45.49386333 -43 46 C-43 45.34 -43 44.68 -43 44 C-43.66 43.67 -44.32 43.34 -45 43 C-43.74896484 42.65388672 -43.74896484 42.65388672 -42.47265625 42.30078125 C-26.64648962 37.71427477 -14.31892052 29.53958395 -5.85546875 15.0390625 C-3.31478771 10.22413889 -1.58799798 5.19708429 0 0 Z " fill="#A08DC9" transform="translate(472,425)"/>
<path d="M0 0 C4.22435427 1.56457565 6.49058647 4.343426 9 8 C8.92087652 11.48143326 8.46645256 12.53354744 6 15 C3.875 14.625 3.875 14.625 2 14 C3.32 13.34 4.64 12.68 6 12 C6 11.01 6 10.02 6 9 C5.01 10.485 5.01 10.485 4 12 C0.83740129 12.40373601 -1.14012639 12.54458662 -3.875 10.8125 C-5.45090926 8.27353509 -5.57287294 6.93597381 -5 4 C-2.5 1.6875 -2.5 1.6875 0 0 Z " fill="#EFEFEF" transform="translate(447,220)"/>
<path d="M0 0 C1.90318884 2.85478326 2.4619099 4.41941308 3.125 7.6875 C3.29257812 8.49574219 3.46015625 9.30398437 3.6328125 10.13671875 C3.75398438 10.75160156 3.87515625 11.36648437 4 12 C3.29875 11.855625 2.5975 11.71125 1.875 11.5625 C-2.60361547 12.24402844 -4.39981848 15.49734998 -7 19 C-5.03028196 18.69535873 -5.03028196 18.69535873 -3 18 C-1.70339566 15.50965614 -1.70339566 15.50965614 -1 13 C-0.67 13 -0.34 13 0 13 C0.125 15.375 0.125 15.375 0 18 C-2 20 -2 20 -4.9375 20.3125 C-8 20 -8 20 -9.875 18.8125 C-11.42229478 16.31963619 -11.50405716 14.88032665 -11 12 C-9.3125 10.125 -9.3125 10.125 -7 9 C-4.25 9.3125 -4.25 9.3125 -2 10 C-2.226875 9.278125 -2.45375 8.55625 -2.6875 7.8125 C-3.08398299 4.24415308 -2.04377787 2.86128901 0 0 Z " fill="#F0EFF1" transform="translate(469,196)"/>
<path d="M0 0 C3.125 0.25 3.125 0.25 5.0625 1.375 C6.125 3.25 6.125 3.25 6 6.25 C5.10441411 9.32058019 4.39847492 10.17421855 2.125 12.25 C2.125 13.24 2.125 14.23 2.125 15.25 C-0.845 12.28 -3.815 9.31 -6.875 6.25 C-6.215 5.92 -5.555 5.59 -4.875 5.25 C-4.5028958 3.92696283 -4.16869827 2.59262065 -3.875 1.25 C-2.875 0.25 -2.875 0.25 0 0 Z " fill="#EFEFEF" transform="translate(430.875,237.75)"/>
<path d="M0 0 C3 0.5625 3 0.5625 5.4375 2.6875 C7 5.5625 7 5.5625 7 8.6875 C5.84834332 11.99851296 5.1151646 13.0049177 2 14.5625 C-0.5 15 -0.5 15 -3 14.5625 C-5.3125 12.9375 -5.3125 12.9375 -7 10.5625 C-7.61195145 6.8907913 -7.48706506 5.27436432 -5.375 2.1875 C-3 0.5625 -3 0.5625 0 0 Z M-5 3.5625 C-5 4.2225 -5 4.8825 -5 5.5625 C-4.01 5.5625 -3.02 5.5625 -2 5.5625 C-2 6.8825 -2 8.2025 -2 9.5625 C-0.68 9.8925 0.64 10.2225 2 10.5625 C1.67 11.2225 1.34 11.8825 1 12.5625 C3.03241727 11.92270151 3.03241727 11.92270151 5 10.5625 C6.16977494 8.21377469 6.16977494 8.21377469 6 5.5625 C4.41666667 3.14583333 4.41666667 3.14583333 2 1.5625 C-2.04622502 1.19269987 -2.04622502 1.19269987 -5 3.5625 Z " fill="#F4F4F4" transform="translate(207,291.4375)"/>
<path d="M0 0 C0 0.66 0 1.32 0 2 C-4.52057096 3.13702786 -8.95339783 3.12814634 -13.58203125 3.09765625 C-14.80329964 3.09553383 -14.80329964 3.09553383 -16.04924011 3.09336853 C-18.63703156 3.08779317 -21.22473492 3.07524524 -23.8125 3.0625 C-25.57226437 3.05748181 -27.33203011 3.05291946 -29.09179688 3.04882812 C-33.39456494 3.03783181 -37.69726756 3.02058421 -42 3 C-42 2.34 -42 1.68 -42 1 C-37.14367353 0.85627873 -32.28730995 0.71390884 -27.4309082 0.57275391 C-25.78115792 0.52461667 -24.13141809 0.47611965 -22.48168945 0.42724609 C-20.10110128 0.35678471 -17.72047766 0.28764651 -15.33984375 0.21875 C-14.24566383 0.18593933 -14.24566383 0.18593933 -13.12937927 0.15246582 C-8.75077857 0.02726848 -4.38040712 -0.02010514 0 0 Z " fill="#9782C4" transform="translate(429,469)"/>
<path d="M0 0 C2.475 0.99 2.475 0.99 5 2 C5 2.66 5 3.32 5 4 C5.804375 4.268125 6.60875 4.53625 7.4375 4.8125 C8.283125 5.204375 9.12875 5.59625 10 6 C10.33 6.99 10.66 7.98 11 9 C11.66 9.33 12.32 9.66 13 10 C13.66 10.33 14.32 10.66 15 11 C15.33 11.99 15.66 12.98 16 14 C16.66 14 17.32 14 18 14 C19.6875 16.375 19.6875 16.375 21 19 C20.67 19.66 20.34 20.32 20 21 C19.34 20.01 18.68 19.02 18 18 C17.23042969 17.7009375 16.46085937 17.401875 15.66796875 17.09375 C12.42937461 15.76606865 10.72236917 14.02033855 8.3125 11.5 C7.54550781 10.7059375 6.77851563 9.911875 5.98828125 9.09375 C5.00408203 8.05734375 5.00408203 8.05734375 4 7 C3.34 6.34 2.68 5.68 2 5 C2.66 5 3.32 5 4 5 C4 4.34 4 3.68 4 3 C2.68 2.67 1.36 2.34 0 2 C0 1.34 0 0.68 0 0 Z " fill="#BDB0D8" transform="translate(448,167)"/>
<path d="M0 0 C2.78416841 0.5715148 5.41559273 1.42879649 8.07421875 2.42578125 C8.07421875 3.08578125 8.07421875 3.74578125 8.07421875 4.42578125 C9.39421875 4.42578125 10.71421875 4.42578125 12.07421875 4.42578125 C12.07421875 5.41578125 12.07421875 6.40578125 12.07421875 7.42578125 C13.39421875 7.75578125 14.71421875 8.08578125 16.07421875 8.42578125 C16.07421875 9.08578125 16.07421875 9.74578125 16.07421875 10.42578125 C12.41064673 9.84220341 9.63552595 8.82285791 6.38671875 7.05078125 C1.43317229 4.48089625 -3.53911307 2.83548377 -8.92578125 1.42578125 C-5.4647927 -0.88154445 -3.99452536 -0.61283846 0 0 Z " fill="#A997CD" transform="translate(435.92578125,161.57421875)"/>
<path d="M0 0 C0.763125 0.20625 1.52625 0.4125 2.3125 0.625 C1.73897107 4.49632028 -0.17454352 6.70672796 -2.6875 9.625 C1.12663002 8.4571734 1.12663002 8.4571734 3.625 5.5 C3.851875 4.88125 4.07875 4.2625 4.3125 3.625 C4.4375 6 4.4375 6 4.3125 8.625 C2.3125 10.625 2.3125 10.625 -0.625 10.9375 C-3.6875 10.625 -3.6875 10.625 -5.625 9.5 C-6.6875 7.625 -6.6875 7.625 -6.5625 4.5625 C-5.40604028 0.68009949 -4.11712088 -0.57448198 0 0 Z " fill="#09C57D" transform="translate(294.6875,375.375)"/>
<path d="M0 0 C2.5625 0.1875 2.5625 0.1875 4.5625 2.1875 C4.1875 4.8125 4.1875 4.8125 3.5625 7.1875 C1.1875 7.8125 1.1875 7.8125 -1.4375 8.1875 C-3.4375 6.1875 -3.4375 6.1875 -3.625 3.625 C-3.37291261 0.34786389 -3.27713611 0.25208739 0 0 Z " fill="#0ACD82" transform="translate(277.4375,392.8125)"/>
<path d="M0 0 C4.70588235 0.70588235 4.70588235 0.70588235 6 2 C6.125 4.5 6.125 4.5 6 7 C5 8 5 8 2.5625 8.1875 C0 8 0 8 -2 6 C-1.44444444 1.44444444 -1.44444444 1.44444444 0 0 Z " fill="#FDFDFD" transform="translate(429,239)"/>
<path d="M0 0 C1.80078125 0.13671875 1.80078125 0.13671875 4 1 C5.66796875 3.58203125 5.66796875 3.58203125 7.1875 6.8125 C7.69667969 7.87082031 8.20585937 8.92914063 8.73046875 10.01953125 C9.73561488 12.37930509 10.49719846 14.498108 11 17 C10.34 17 9.68 17 9 17 C8.67 17.66 8.34 18.32 8 19 C7.75765625 18.27554688 7.5153125 17.55109375 7.265625 16.8046875 C5.35604881 11.29629464 3.39261199 6.72542385 0 2 C0 1.34 0 0.68 0 0 Z " fill="#9E8BC7" transform="translate(463,184)"/>
<path d="M0 0 C1.2065625 0.0309375 1.2065625 0.0309375 2.4375 0.0625 C3.5625 2.375 3.5625 2.375 4.4375 5.0625 C3.4475 6.5475 3.4475 6.5475 2.4375 8.0625 C-2.4375 7.1875 -2.4375 7.1875 -3.5625 6.0625 C-3.6875 3.5625 -3.6875 3.5625 -3.5625 1.0625 C-2.5625 0.0625 -2.5625 0.0625 0 0 Z " fill="#FDFDFD" transform="translate(447.5625,222.9375)"/>
<path d="M0 0 C1.2065625 0.0309375 1.2065625 0.0309375 2.4375 0.0625 C3.5625 2.375 3.5625 2.375 4.4375 5.0625 C3.4475 6.5475 3.4475 6.5475 2.4375 8.0625 C-2.4375 7.1875 -2.4375 7.1875 -3.5625 6.0625 C-3.6875 3.5625 -3.6875 3.5625 -3.5625 1.0625 C-2.5625 0.0625 -2.5625 0.0625 0 0 Z " fill="#F24E1E" transform="translate(277.5625,222.9375)"/>
<path d="M0 0 C1 1 1 1 1.125 3.5 C1 6 1 6 0 7 C-1.66617115 7.04063832 -3.33388095 7.042721 -5 7 C-6.0625 5.1875 -6.0625 5.1875 -7 3 C-6.67 2.01 -6.34 1.02 -6 0 C-3.49749232 -1.25125384 -2.59701335 -0.83774624 0 0 Z " fill="#F24E1E" transform="translate(264,240)"/>
<path d="M0 0 C0.2475 0.556875 0.495 1.11375 0.75 1.6875 C2.21606015 4.39971127 4.02989471 6.63587365 6 9 C3.33333333 7.66666667 0.66666667 6.33333333 -2 5 C-0.11192137 7.69725519 1.19824644 9.13216429 4 11 C0.17784773 10.46914552 -2.11756946 9.58424807 -5 7 C-5.66 6.01 -6.32 5.02 -7 4 C-6.67 3.34 -6.34 2.68 -6 2 C-5.34 2.33 -4.68 2.66 -4 3 C-2.68 2.01 -1.36 1.02 0 0 Z " fill="#09C27B" transform="translate(285,382)"/>
<path d="M0 0 C3.79049707 1.42749981 7.27122456 3.16236542 10.8125 5.125 C12.27623047 5.93324219 12.27623047 5.93324219 13.76953125 6.7578125 C14.50558594 7.16773438 15.24164063 7.57765625 16 8 C16 8.33 16 8.66 16 9 C9.68368172 8.59683075 5.35006016 6.28767869 0 3 C0 2.01 0 1.02 0 0 Z " fill="#9C88C7" transform="translate(189,459)"/>
<path d="M0 0 C4.2264331 2.81762207 4.80929049 6.2040867 6 11 C6.1875 14.0625 6.1875 14.0625 6 16 C5.01 16 4.02 16 3 16 C2.86722656 15.28972656 2.73445312 14.57945312 2.59765625 13.84765625 C2.42105469 12.92855469 2.24445313 12.00945312 2.0625 11.0625 C1.88847656 10.14597656 1.71445313 9.22945313 1.53515625 8.28515625 C1.22285012 6.04710156 1.22285012 6.04710156 0 5 C-0.04063832 3.33382885 -0.042721 1.66611905 0 0 Z " fill="#A593CC" transform="translate(164,420)"/>
<path d="M0 0 C4.69014085 1.82394366 4.69014085 1.82394366 6.890625 3.07421875 C9.32857066 4.14420601 10.86299208 4.11360156 13.5 3.9375 C16.67956358 3.84845127 17.74204733 3.84900331 20.5625 5.5 C21.036875 5.995 21.51125 6.49 22 7 C14.83610464 7.26050529 7.25865823 6.89125273 1 3 C0.67 2.01 0.34 1.02 0 0 Z " fill="#C2B6DA" transform="translate(191,463)"/>
<path d="M0 0 C6.47556391 0.61090226 6.47556391 0.61090226 8.9375 2.4375 C10 4 10 4 10 6 C7.53199953 4.84826645 5.95216435 3.95216435 4 2 C3.01 2 2.02 2 1 2 C1.49831724 5.68754757 2.10067643 7.60490662 5 10 C4.67 10.66 4.34 11.32 4 12 C1.69 9.69 -0.62 7.38 -3 5 C-2.01 3.35 -1.02 1.7 0 0 Z " fill="#F2572A" transform="translate(266,230)"/>
<path d="M0 0 C4.08165827 -0.51020728 5.52957297 -0.31361802 9 2 C9 2.66 9 3.32 9 4 C5.04 4 1.08 4 -3 4 C-2.01 2.68 -1.02 1.36 0 0 Z " fill="#F6F6F6" transform="translate(377,465)"/>
<path d="M0 0 C0.66 0 1.32 0 2 0 C2.99 3.3 3.98 6.6 5 10 C5.66 10 6.32 10 7 10 C7.9765625 16.0546875 7.9765625 16.0546875 8 18 C7.34 18.66 6.68 19.32 6 20 C5.18608745 17.41710408 4.37382071 14.83371003 3.5625 12.25 C3.33240234 11.52039063 3.10230469 10.79078125 2.86523438 10.0390625 C2.53168945 8.97558594 2.53168945 8.97558594 2.19140625 7.890625 C1.98717041 7.24125977 1.78293457 6.59189453 1.57250977 5.92285156 C0.98830273 3.96071312 0.48189352 1.98950416 0 0 Z " fill="#E4E2E9" transform="translate(469,188)"/>
<path d="M0 0 C3.98076398 1.04258104 5.23024669 3.40326689 7.625 6.6875 C5.15699953 5.53576645 3.57716435 4.63966435 1.625 2.6875 C0.635 2.6875 -0.355 2.6875 -1.375 2.6875 C-0.78821669 6.20819985 -0.01850079 8.40049843 1.625 11.6875 C-0.685 9.7075 -2.995 7.7275 -5.375 5.6875 C-3.09963768 0.89726354 -3.09963768 0.89726354 0 0 Z " fill="#EFEFEF" transform="translate(438.375,229.3125)"/>
<path d="M0 0 C0.680625 0.721875 1.36125 1.44375 2.0625 2.1875 C5.09214518 5.23455693 8.46217304 7.57207954 12 10 C10.02 10.99 10.02 10.99 8 12 C1.29540481 5.92560175 1.29540481 5.92560175 0.0625 2.0625 C0.041875 1.381875 0.02125 0.70125 0 0 Z " fill="#DFEEE9" transform="translate(255,411)"/>
<path d="M0 0 C2.83022097 3.99560608 1.76210446 7.42737323 1 12 C0.34 12 -0.32 12 -1 12 C-1.66 13.32 -2.32 14.64 -3 16 C-3.33 15.34 -3.66 14.68 -4 14 C-3.27148496 12.31116968 -2.53828474 10.62402299 -1.76953125 8.953125 C-0.62167287 6.03977886 -0.3161178 3.09795439 0 0 Z " fill="#E7E5EE" transform="translate(475,422)"/>
<path d="M0 0 C3.63 0 7.26 0 11 0 C10.67 0.99 10.34 1.98 10 3 C7.03 3 4.06 3 1 3 C0.67 2.01 0.34 1.02 0 0 Z " fill="#EFEFEF" transform="translate(375,473)"/>
<path d="M0 0 C2.475 0.495 2.475 0.495 5 1 C5.061875 1.5775 5.12375 2.155 5.1875 2.75 C6.32027301 5.88690987 8.34197595 7.09167504 11 9 C7.05362526 8.43623218 4.16803189 7.4640248 1 5 C0.1875 2.3125 0.1875 2.3125 0 0 Z " fill="#EFEFEF" transform="translate(448,214)"/>
<path d="M0 0 C2.5654594 2.5654594 2.54046087 4.47686668 3 8 C1.68 7.67 0.36 7.34 -1 7 C-1.33 5.35 -1.66 3.7 -2 2 C-1.34 2 -0.68 2 0 2 C0 1.34 0 0.68 0 0 Z " fill="#AC9BCF" transform="translate(170,434)"/>
<path d="M0 0 C3.78611227 0.54087318 5.55400767 2.11722332 8 5 C8 5.66 8 6.32 8 7 C4.2047869 5.50902342 2.38957269 3.24299151 0 0 Z " fill="#F2572A" transform="translate(283,214)"/>
<path d="M0 0 C1.32 0 2.64 0 4 0 C2.63016497 3.16115776 2.0109362 3.9927092 -1 6 C-1.33 5.01 -1.66 4.02 -2 3 C-1.34 2.01 -0.68 1.02 0 0 Z " fill="#FDFDFD" transform="translate(461,207)"/>
<path d="M0 0 C1.32 0 2.64 0 4 0 C4 0.66 4 1.32 4 2 C5.32 2.33 6.64 2.66 8 3 C8 3.66 8 4.32 8 5 C4.62537285 4.45276317 2.91765 3.9451 0 2 C0 1.34 0 0.68 0 0 Z " fill="#9D89C7" transform="translate(444,167)"/>
<path d="M0 0 C1.64826111 2.96687001 2.44271087 5.65626525 3 9 C2.01 8.67 1.02 8.34 0 8 C-1.1875 4.9375 -1.1875 4.9375 -2 2 C-1.34 2 -0.68 2 0 2 C0 1.34 0 0.68 0 0 Z " fill="#C1B5DA" transform="translate(173,440)"/>
<path d="M0 0 C0.2475 0.556875 0.495 1.11375 0.75 1.6875 C2.21606015 4.39971127 4.02989471 6.63587365 6 9 C2.63820226 7.55922954 0.40843732 5.75249979 -2 3 C-2 2.34 -2 1.68 -2 1 C-1.34 0.67 -0.68 0.34 0 0 Z " fill="#EFEFEF" transform="translate(455,212)"/>
<path d="M0 0 C0.33 0.66 0.66 1.32 1 2 C1.66 2 2.32 2 3 2 C2.75 3.875 2.75 3.875 2 6 C-0.0625 7.25 -0.0625 7.25 -2 8 C-1.34 5.36 -0.68 2.72 0 0 Z " fill="#AA99CF" transform="translate(472,425)"/>
</svg>
