<?xml version="1.0" encoding="UTF-8"?>
<svg version="1.1" xmlns="http://www.w3.org/2000/svg" width="225" height="225">
<path d="M0 0 C2.7195065 1.39998263 4.82445138 2.84246432 6.8125 5.1875 C6.8125 5.8475 6.8125 6.5075 6.8125 7.1875 C7.4725 7.1875 8.1325 7.1875 8.8125 7.1875 C9.99423934 8.6055872 11.17131589 10.02791199 12.3203125 11.47265625 C14.38308577 13.84322553 16.75465348 15.73753983 19.171875 17.734375 C21.34790731 19.6617179 23.04129909 21.89149882 24.8125 24.1875 C25.4725 24.5175 26.1325 24.8475 26.8125 25.1875 C26.8125 25.8475 26.8125 26.5075 26.8125 27.1875 C27.369375 27.39375 27.92625 27.6 28.5 27.8125 C31.10079016 29.35891577 32.66034486 31.25933562 34.53125 33.609375 C37.37061436 37.10664085 40.62415853 40.0644653 44.125 42.875 C45.4553125 44.0196875 45.4553125 44.0196875 46.8125 45.1875 C46.8125 45.8475 46.8125 46.5075 46.8125 47.1875 C47.4725 47.1875 48.1325 47.1875 48.8125 47.1875 C50.16169532 48.84135233 51.49383728 50.509202 52.8125 52.1875 C53.8025 52.8475 54.7925 53.5075 55.8125 54.1875 C55.8125 54.8475 55.8125 55.5075 55.8125 56.1875 C56.369375 56.39375 56.92625 56.6 57.5 56.8125 C60.12309728 58.37217946 61.65431506 60.30881326 63.53125 62.68359375 C64.89127806 64.377639 64.89127806 64.377639 67.25 66.125 C70.00642014 68.34358206 72.08297942 70.74994847 74.33984375 73.45703125 C76.36672995 75.83875694 78.57350129 78.00591151 80.8125 80.1875 C83.32340797 82.69840797 85.8327539 85.20826025 88.3125 87.75 C90.74165533 90.20765888 90.74165533 90.20765888 93.375 92.1875 C95.95363174 94.3033004 97.77395598 96.55712062 99.8125 99.1875 C100.534375 99.909375 101.25625 100.63125 102 101.375 C105.11684326 104.49184326 105.11216384 106.99525569 105.3125 111.3125 C105.3846875 112.40820312 105.456875 113.50390625 105.53125 114.6328125 C103.82322965 123.08008703 94.15238101 129.99078682 88.23706055 135.89233398 C87.29326623 136.83748654 86.34968408 137.782851 85.40629578 138.72840881 C82.8676547 141.27157016 80.32590773 143.8116051 77.78341269 146.35091281 C75.11629531 149.01548293 72.45163606 151.68250952 69.78657532 154.34913635 C65.31906588 158.81845871 60.84946591 163.28568225 56.37866211 167.75170898 C51.20808291 172.91682723 46.0411429 178.085565 40.87603921 183.25615829 C36.43358068 187.70314917 31.9891836 192.14819557 27.54314834 196.59161049 C24.89066536 199.24253394 22.23886406 201.89412979 19.58881187 204.54748344 C16.64238198 207.49732864 13.69189745 210.44308496 10.7409668 213.38842773 C9.86148376 214.269935 8.98200073 215.15144226 8.0758667 216.05966187 C7.2754747 216.85723404 6.4750827 217.65480621 5.6504364 218.47654724 C4.60493386 219.52148425 4.60493386 219.52148425 3.53831005 220.58753109 C0.32267907 223.56868744 -2.20758207 223.37916589 -6.5 223.4375 C-7.63050781 223.46328125 -8.76101562 223.4890625 -9.92578125 223.515625 C-15.31395116 222.97358156 -18.69560758 220.19670982 -22.1875 216.1875 C-22.1875 215.5275 -22.1875 214.8675 -22.1875 214.1875 C-23.1775 213.8575 -24.1675 213.5275 -25.1875 213.1875 C-27.375 211.25 -27.375 211.25 -29.1875 209.1875 C-29.1875 208.5275 -29.1875 207.8675 -29.1875 207.1875 C-30.1775 206.8575 -31.1675 206.5275 -32.1875 206.1875 C-34.875 203.75 -34.875 203.75 -37.1875 201.1875 C-37.1875 200.5275 -37.1875 199.8675 -37.1875 199.1875 C-38.1775 198.8575 -39.1675 198.5275 -40.1875 198.1875 C-40.1875 197.5275 -40.1875 196.8675 -40.1875 196.1875 C-40.8475 196.1875 -41.5075 196.1875 -42.1875 196.1875 C-43.58984375 194.7265625 -43.58984375 194.7265625 -45.125 192.8125 C-47.10736617 190.34848476 -48.49449655 188.98283563 -51.1875 187.1875 C-51.1875 186.5275 -51.1875 185.8675 -51.1875 185.1875 C-51.8475 185.1875 -52.5075 185.1875 -53.1875 185.1875 C-54.36923934 183.7694128 -55.54631589 182.34708801 -56.6953125 180.90234375 C-58.25966409 179.10456797 -59.91411235 177.64177413 -61.75 176.125 C-64.65337997 173.72220278 -66.83909051 171.14195065 -69.1875 168.1875 C-70.156875 167.383125 -71.12625 166.57875 -72.125 165.75 C-75.25670147 163.12959673 -77.61769531 160.35033654 -80.1875 157.1875 C-82.5670312 154.68899224 -84.89008268 152.41628255 -87.625 150.3125 C-89.744054 148.55523571 -91.26964847 146.97480497 -93 144.875 C-95.83416022 141.45496687 -99.00363109 138.67380379 -102.3828125 135.8046875 C-104.61116797 133.80784948 -106.32013269 131.52170913 -108.1875 129.1875 C-109.51268896 128.09421911 -110.84696028 127.01190316 -112.1875 125.9375 C-116.4119304 122.30527947 -118.81964058 118.61077363 -120.1875 113.1875 C-120.1029353 108.19818281 -118.83982676 104.41157596 -116.1875 100.1875 C-114.125 99.0625 -114.125 99.0625 -112.1875 98.1875 C-111.50481862 96.86229497 -110.8367959 95.52937818 -110.1875 94.1875 C-108.7025 93.6925 -108.7025 93.6925 -107.1875 93.1875 C-107.1875 92.5275 -107.1875 91.8675 -107.1875 91.1875 C-105.74682315 89.98135194 -104.30190466 88.77976601 -102.83203125 87.609375 C-100.92711392 86.04016512 -100.92711392 86.04016512 -98.6875 83.1875 C-96.0982857 80.08044284 -93.28813514 77.77136262 -90.1875 75.1875 C-89.3625 74.1975 -88.5375 73.2075 -87.6875 72.1875 C-85.0982857 69.08044284 -82.28813514 66.77136262 -79.1875 64.1875 C-78.3625 63.1975 -77.5375 62.2075 -76.6875 61.1875 C-74.0982857 58.08044284 -71.28813514 55.77136262 -68.1875 53.1875 C-67.3625 52.1975 -66.5375 51.2075 -65.6875 50.1875 C-63.0982857 47.08044284 -60.28813514 44.77136262 -57.1875 42.1875 C-55.4379514 40.24574747 -53.82712553 38.22595336 -52.1875 36.1875 C-50.5625 34.3125 -50.5625 34.3125 -49.1875 33.1875 C-46.1875 33.1875 -46.1875 33.1875 -44.64453125 34.69140625 C-44.10183594 35.37074219 -43.55914062 36.05007812 -43 36.75 C-39.93602546 40.41640505 -36.67580832 43.50197164 -33.04296875 46.59375 C-29.38244792 49.73794473 -25.71152541 53.04987476 -23.1875 57.1875 C-23.21875 59.703125 -23.21875 59.703125 -23.6875 62.4375 C-24.516522 69.27009886 -23.04357556 73.43332337 -19.25 79.0625 C-17.25891391 81.11392203 -15.73779595 82.00552568 -13.1875 83.1875 C-13.2596875 83.94828857 -13.331875 84.70907715 -13.40625 85.49291992 C-14.16140677 94.18574446 -14.26497748 102.77947908 -14.1875 111.5 C-14.18164896 114.23568569 -14.18420702 116.97134283 -14.1875 119.70703125 C-14.19278099 124.88171916 -14.19278099 124.88171916 -14.15234375 130.05615234 C-14.02349609 141.62713269 -14.02349609 141.62713269 -17 145.6171875 C-18.97876792 147.37687754 -20.96645512 148.76105307 -23.1875 150.1875 C-25.28044386 154.37338772 -24.61167949 159.6290641 -24.1875 164.1875 C-22.74440428 167.68667005 -22.74440428 167.68667005 -20.1875 170.1875 C-19.383125 171.13625 -18.57875 172.085 -17.75 173.0625 C-13.78501602 176.1419038 -9.30312535 175.98815433 -4.4609375 175.81640625 C0.8016539 174.80533559 4.20657759 172.04096857 7.8125 168.1875 C10.94565181 163.48777229 10.62702437 158.6803182 9.8125 153.1875 C7.85541282 149.35358474 5.03850095 146.49844328 2.12109375 143.37890625 C0.31030023 140.34650277 0.55430628 138.13112874 0.6875 134.625 C0.83251792 130.36630705 0.75179196 126.28479943 0.296875 122.0546875 C-0.33510913 115.62841258 -0.10882 109.316256 0.1875 102.875 C0.23132813 101.73482422 0.27515625 100.59464844 0.3203125 99.41992188 C0.53757553 94.25087218 0.88666387 89.2852729 1.8125 84.1875 C19.01836828 96.56447337 19.01836828 96.56447337 22.8125 105.1875 C22.4825 105.8475 22.1525 106.5075 21.8125 107.1875 C21.07165897 112.11240915 20.84380517 116.44029912 23.3046875 120.87890625 C26.52116661 125.15357268 26.52116661 125.15357268 30.8125 128.1875 C38.75798237 128.81445764 45.07913286 128.79287096 51.56640625 123.8515625 C55.23321862 120.36341152 56.28650467 117.35101933 56.5625 112.3125 C56.26372368 106.06178481 54.00896643 101.76447504 49.8125 97.1875 C46.00212959 95.28231479 40.73314065 95.94206691 36.51171875 95.859375 C31.94199209 95.02939297 30.78192654 93.68321514 27.8125 90.1875 C26.81980292 89.19829073 25.8167132 88.21942584 24.8046875 87.25 C23.76557909 86.2292134 22.72651705 85.20837959 21.6875 84.1875 C21.16285156 83.67960937 20.63820312 83.17171875 20.09765625 82.6484375 C15.75149829 78.3572942 12.7669904 74.57884334 11.875 68.375 C10.6546559 61.60763727 8.27153155 55.62296313 2.8125 51.1875 C-0.42245527 49.21254919 -2.85865709 48.94253846 -6.625 49 C-7.55183594 49.00644531 -8.47867188 49.01289062 -9.43359375 49.01953125 C-12.10466056 49.18244738 -14.58091958 49.5961705 -17.1875 50.1875 C-16.5275 49.8575 -15.8675 49.5275 -15.1875 49.1875 C-16.07790537 47.95439565 -16.97515704 46.72623436 -17.875 45.5 C-18.62330078 44.47326172 -18.62330078 44.47326172 -19.38671875 43.42578125 C-21.48765626 40.81442074 -23.79116818 38.5301826 -26.1875 36.1875 C-27.04730469 35.31609375 -27.90710938 34.4446875 -28.79296875 33.546875 C-29.64503906 32.68578125 -30.49710937 31.8246875 -31.375 30.9375 C-32.23480469 30.06609375 -33.09460938 29.1946875 -33.98046875 28.296875 C-36.00181066 26.15755762 -36.00181066 26.15755762 -38.1875 25.1875 C-38.1875 24.1975 -38.1875 23.2075 -38.1875 22.1875 C-36.75760247 20.95712305 -35.31954861 19.73427327 -33.83203125 18.57421875 C-31.91945307 17.04336142 -31.91945307 17.04336142 -29.6875 14.1875 C-27.80154478 11.92435373 -26.24361099 10.30901322 -24 8.5 C-21.05995245 6.31078275 -21.05995245 6.31078275 -19.1875 3.1875 C-18.5275 3.1875 -17.8675 3.1875 -17.1875 3.1875 C-17.1875 2.5275 -17.1875 1.8675 -17.1875 1.1875 C-10.89807284 -1.83142504 -6.57972599 -3.12176781 0 0 Z " fill="#DE4E39" transform="translate(120.1875,1.8125)"/>
</svg>
