<?xml version="1.0" encoding="UTF-8"?>
<svg version="1.1" xmlns="http://www.w3.org/2000/svg" width="512" height="512">
<path d="M0 0 C120.12 0 240.24 0 364 0 C361.70254709 32.16434076 361.70254709 32.16434076 360.62730408 44.07588196 C360.50233955 45.48097318 360.37759098 46.88608362 360.25303179 48.29121083 C359.91961911 52.04556087 359.58323729 55.79963905 359.24623811 59.55366862 C358.8797495 63.6424851 358.51618179 67.73156159 358.15220642 71.82060242 C357.44300361 79.78296995 356.73118767 87.74510168 356.01839464 95.70714853 C355.18687304 104.9963727 354.35788056 114.28582208 353.52893073 123.57527604 C352.05026442 140.14452779 350.56913223 156.71355819 349.08666992 173.2824707 C347.64997182 189.33989836 346.21538432 205.39751288 344.78295898 221.45532227 C343.21801166 238.99870446 341.65188986 256.54198106 340.08373648 274.08507699 C339.91664379 275.95437914 339.74955176 277.82368135 339.5824604 279.69298363 C339.50026778 280.61248004 339.41807516 281.53197645 339.33339186 282.47933638 C338.75510992 288.94946251 338.17764369 295.41966114 337.60047722 301.88988686 C336.89825296 309.7616934 336.19467685 317.63337775 335.48938125 325.50490973 C335.12984132 329.51794227 334.77089103 333.53102519 334.41355133 337.5442543 C334.08642355 341.21797133 333.75757472 344.8915301 333.42735834 348.56497075 C333.25198624 350.52080438 333.0784346 352.47680097 332.90495056 354.43280298 C332.40446015 359.98211296 331.87284333 365.49607788 331 371 C325.68361333 373.06177686 320.39951396 374.82886889 314.89892578 376.3215332 C314.12860236 376.53381813 313.35827894 376.74610306 312.56461239 376.96482086 C310.02577805 377.66358512 307.48555265 378.35714675 304.9453125 379.05078125 C303.14056196 379.54665345 301.33591216 380.04289244 299.53135681 380.53947449 C294.7218208 381.86207879 289.91112183 383.18040109 285.10011673 384.49765015 C277.17520089 386.66819238 269.25191449 388.84468082 261.32874489 391.02158737 C259.3610638 391.56219155 257.3933399 392.10263988 255.42557335 392.64293289 C243.40323102 395.94472002 231.39218838 399.28127783 219.40234375 402.69921875 C218.21958862 403.03544754 217.0368335 403.37167633 215.8182373 403.71809387 C210.56465094 405.21250029 205.31434035 406.71693507 200.06884766 408.23950195 C198.26607238 408.75384528 196.46318361 409.26779104 194.66015625 409.78125 C193.88397446 410.0112822 193.10779266 410.24131439 192.30809021 410.47831726 C191.58517288 410.6820546 190.86225555 410.88579193 190.11743164 411.09570312 C189.50936172 411.27202271 188.90129181 411.44834229 188.27479553 411.63000488 C181.83536821 412.67737667 176.22046781 411.83101691 170.01000977 410.05078125 C168.87118253 409.73775763 168.87118253 409.73775763 167.70934868 409.4184103 C165.20055283 408.72617773 162.69609712 408.01942807 160.19140625 407.3125 C158.40601132 406.81666937 156.62036592 406.32173984 154.83448792 405.82765198 C150.05970778 404.50386597 145.28854858 403.16745585 140.51804352 401.8283577 C135.59128304 400.44752201 130.66143715 399.077791 125.73193359 397.70678711 C116.89797635 395.24804582 108.06691887 392.77907127 99.23711014 390.3054781 C91.06342277 388.01624939 82.88617798 385.73993867 74.7082119 383.46605301 C68.84610729 381.83524279 62.9856414 380.19855892 57.125 378.5625 C55.91941437 378.22661865 54.71382874 377.8907373 53.47171021 377.54467773 C50.14940828 376.6179541 46.82839752 375.68676011 43.5078125 374.75390625 C42.54235001 374.4852626 41.57688751 374.21661896 40.58216858 373.93983459 C39.71861252 373.69615646 38.85505646 373.45247833 37.96533203 373.20141602 C37.21736359 372.99178726 36.46939514 372.78215851 35.69876099 372.56617737 C34 372 34 372 33 371 C32.70274567 368.93701158 32.47181639 366.86449089 32.26409912 364.79057312 C32.19532515 364.11160292 32.12655118 363.43263272 32.05569315 362.73308766 C31.81801167 360.36511144 31.58792383 357.99646565 31.35839844 355.62768555 C31.27437759 354.77408553 31.19035674 353.92048552 31.10378981 353.04101884 C28.18376392 323.35495997 25.61127083 293.6342866 22.97309096 263.92216619 C22.41859093 257.67746301 21.86319384 251.43284015 21.30721283 245.18826866 C21.22726931 244.29036411 21.1473258 243.39245955 21.06495975 242.46734577 C20.9024548 240.64217362 20.73994793 238.81700164 20.57743916 236.99182983 C19.06692137 220.0257414 17.55905533 203.05941814 16.05214843 186.09300866 C14.76034623 171.54920356 13.46620434 157.00560815 12.17041016 142.4621582 C10.65831705 125.49104854 9.14765215 108.51981276 7.63927436 91.54837245 C7.4786928 89.74164132 7.31810939 87.93491035 7.15752411 86.12817955 C7.07854486 85.23958267 6.99956561 84.35098579 6.91819306 83.43546173 C6.36241734 77.18353864 5.80561867 70.93170714 5.24842072 64.67991066 C4.57157057 57.08530151 3.89628459 49.49055524 3.22302327 41.89562706 C2.87980918 38.02434545 2.5358862 34.15313028 2.19005394 30.2820816 C1.81565797 26.09104012 1.4446704 21.89970402 1.07403564 17.70832825 C0.96392662 16.4817281 0.8538176 15.25512795 0.74037194 13.9913581 C0.64182027 12.87048386 0.54326859 11.74960961 0.4417305 10.59476948 C0.35580367 9.62804036 0.26987685 8.66131125 0.18134618 7.66528732 C0.00784992 5.11537212 0 2.55581072 0 0 Z " fill="#E44D26" transform="translate(74,100)"/>
<path d="M0 0 C75.24 0 150.48 0 228 0 C227.25124782 8.9850262 226.49625534 17.96879848 225.69775391 26.94946289 C225.56419119 28.46103006 225.43239917 29.97275457 225.30224609 31.48461914 C225.11198607 33.6919659 224.91599906 35.89873699 224.71875 38.10546875 C224.54762695 40.05682739 224.54762695 40.05682739 224.37304688 42.04760742 C224 45 224 45 223 46 C220.77241743 46.09703132 218.54169074 46.12186673 216.31199646 46.12025452 C215.60468748 46.12110894 214.89737849 46.12196337 214.1686359 46.12284368 C211.78093718 46.12450055 209.39330757 46.11897377 207.00561523 46.11352539 C205.30105593 46.11324354 203.59649649 46.11340122 201.89193726 46.1139679 C197.249572 46.11425594 192.60723235 46.10835806 187.96487308 46.10139394 C183.11884105 46.09516159 178.27280849 46.0945567 173.42677307 46.09336853 C164.24344036 46.09025486 155.0601195 46.082041 145.87679201 46.07201904 C135.42473229 46.060859 124.97267202 46.05534773 114.52060783 46.05032361 C93.01373193 46.03985841 71.50686671 46.02225829 50 46 C50.12117188 47.10923828 50.24234375 48.21847656 50.3671875 49.36132812 C50.81876662 53.50572501 51.26469558 57.65071421 51.70898438 61.79589844 C51.90147108 63.58447453 52.09545732 65.37288995 52.29101562 67.16113281 C52.57302945 69.74242264 52.84951401 72.32425631 53.125 74.90625 C53.21249512 75.69616333 53.29999023 76.48607666 53.39013672 77.29992676 C53.47021973 78.06011108 53.55030273 78.82029541 53.6328125 79.60351562 C53.73940186 80.58946716 53.73940186 80.58946716 53.84814453 81.59533691 C54.06675198 85.0570316 54 88.5314096 54 92 C108.45 92 162.9 92 219 92 C219 102.12359167 219 102.12359167 218.62036133 105.99829102 C218.53620972 106.88006012 218.45205811 107.76182922 218.36535645 108.6703186 C218.27185913 109.60540253 218.17836182 110.54048645 218.08203125 111.50390625 C217.93586365 113.02182266 217.93586365 113.02182266 217.78674316 114.57040405 C217.57580797 116.75787322 217.36302935 118.94516526 217.14859009 121.1322937 C216.56894821 127.04824094 216.0037907 132.96557479 215.4375 138.8828125 C215.31933426 140.11444626 215.20116852 141.34608002 215.079422 142.61503601 C213.76311049 156.38376466 212.5334972 170.1600426 211.3125 183.9375 C211.21031158 185.08985138 211.10812317 186.24220276 211.00283813 187.42947388 C210.61203658 191.83714272 210.22126875 196.24481446 209.83113098 200.65254211 C208.90500772 211.10329876 207.95518701 221.55186465 207 232 C194.99722626 235.56595432 183.0133435 239.08857363 170.84375 242.04296875 C164.29224113 243.67418793 157.80251473 245.52480198 151.30419922 247.35449219 C148.97684748 248.00648604 146.64712571 248.64921908 144.31640625 249.2890625 C142.77341347 249.7134543 141.23044444 250.13793249 139.6875 250.5625 C138.94024658 250.76762207 138.19299316 250.97274414 137.4230957 251.18408203 C131.85762184 252.72578156 126.36523211 254.44792005 120.89453125 256.30078125 C113.62184619 258.0576107 107.33637441 256.2969762 100.3125 254.375 C99.30372803 254.10574707 98.29495605 253.83649414 97.25561523 253.55908203 C89.82057741 251.55332922 82.44518682 249.37100486 75.08276367 247.11523438 C69.31122082 245.35739229 63.51410862 243.81984161 57.65234375 242.39575195 C51.04422224 240.78636001 44.52578352 238.91201301 38 237 C36.46106153 236.55686069 34.9219923 236.11417533 33.3828125 235.671875 C31.81762981 235.2190213 30.25252454 234.76589995 28.6875 234.3125 C27.93927979 234.09795166 27.19105957 233.88340332 26.42016602 233.66235352 C21.11411004 232.11411004 21.11411004 232.11411004 20 231 C19.80003798 229.5227866 19.66246817 228.03705141 19.55102539 226.55053711 C19.4774733 225.60121811 19.4039212 224.65189911 19.32814026 223.67381287 C19.25208054 222.63547806 19.17602081 221.59714325 19.09765625 220.52734375 C19.01503036 219.45690323 18.93240448 218.38646271 18.84727478 217.28358459 C18.58135777 213.83520456 18.32133112 210.38641866 18.0625 206.9375 C16.62843974 187.46471293 16.62843974 187.46471293 14.36499023 168.07641602 C14 165 14 165 14 160 C29.18 160 44.36 160 60 160 C60.98478112 162.95434335 61.28584664 165.35285057 61.53515625 168.4453125 C61.66567383 170.06179688 61.66567383 170.06179688 61.79882812 171.7109375 C61.9293457 173.40089844 61.9293457 173.40089844 62.0625 175.125 C62.15337891 176.2284375 62.24425781 177.331875 62.33789062 178.46875 C62.82753659 184.66847785 63.09860273 190.7814543 63 197 C63.62261719 197.07476562 64.24523437 197.14953125 64.88671875 197.2265625 C71.88985458 198.2228245 78.52737493 199.90250902 85.3125 201.875 C86.6727832 202.26884888 86.6727832 202.26884888 88.06054688 202.6706543 C91.46240078 203.66083242 94.86271514 204.65467358 98.25292969 205.68408203 C100.22708997 206.28336416 102.20632079 206.86194157 104.1875 207.4375 C105.27417969 207.76621094 106.36085938 208.09492188 107.48046875 208.43359375 C115.58961643 209.73861752 123.15391168 207.62400853 130.875 205.25 C132.70232729 204.70823955 134.53047812 204.16925039 136.359375 203.6328125 C137.28556641 203.36114258 138.21175781 203.08947266 139.16601562 202.80957031 C143.79537849 201.4871231 148.45497722 200.29443192 153.125 199.125 C153.97175293 198.91004883 154.81850586 198.69509766 155.69091797 198.47363281 C156.47611816 198.27866211 157.26131836 198.08369141 158.0703125 197.8828125 C158.75883301 197.71152832 159.44735352 197.54024414 160.15673828 197.36376953 C162 197 162 197 165 197 C165 193.04 165 189.08 165 185 C166.32 169.49 167.64 153.98 169 138 C117.19 138 65.38 138 12 138 C10.576875 122.469375 9.15375 106.93875 7.6875 90.9375 C7.24494873 86.12406006 6.80239746 81.31062012 6.34643555 76.35131836 C5.78869629 70.24328613 5.78869629 70.24328613 5.52424622 67.33937073 C5.34790103 65.40849089 5.17051754 63.47770563 4.99214172 61.54701233 C3.09967695 41.04557523 1.57944835 20.5328286 0 0 Z " fill="#EBE8E7" transform="translate(142,176)"/>
<path d="M0 0 C48.84 0 97.68 0 148 0 C148 12.18461538 148 12.18461538 147.125 18.4375 C145.90495683 27.72015068 145.30439039 37.0388078 144.69775391 46.37866211 C144.62089355 47.5363208 144.5440332 48.69397949 144.46484375 49.88671875 C144.399021 50.92014404 144.33319824 51.95356934 144.26538086 53.01831055 C143.99548938 56.05067914 143.51435036 59.00065575 143 62 C142.82815713 64.43580452 142.68456485 66.87369419 142.5625 69.3125 C142.21996482 75.5080427 141.59199383 81.61675717 140.80322266 87.77392578 C139.76646097 96.28073749 139.25318283 104.83054458 138.69750977 113.37988281 C138.62072998 114.53713867 138.5439502 115.69439453 138.46484375 116.88671875 C138.36610962 118.43685669 138.36610962 118.43685669 138.26538086 120.01831055 C137.99548938 123.05067914 137.51435036 126.00065575 137 129 C136.74023713 132.68203559 136.55996501 136.36411662 136.37890625 140.05078125 C136.11042546 144.22932695 135.60097861 148.36979389 135.0859375 152.5234375 C133.5835152 164.79756852 132.75417603 177.13123089 131.82543945 189.45922852 C130.83583603 202.52545177 129.6580052 215.54893266 128.22052002 228.57362366 C127.09998028 238.82631869 126.12034803 249.08915529 125.17578125 259.359375 C125.09927652 260.19119986 125.0227718 261.02302471 124.94394875 261.88005638 C124.47652267 266.97092037 124.01235214 272.06207756 123.54907227 277.15332031 C123.14824731 281.55288087 122.74489734 285.95220996 122.34179688 290.3515625 C121.55880824 298.90082447 120.77848754 307.45032699 120 316 C107.43847425 320.25689495 107.43847425 320.25689495 101.6015625 321.75390625 C99.92320312 322.19089844 99.92320312 322.19089844 98.2109375 322.63671875 C97.02757812 322.94222656 95.84421875 323.24773437 94.625 323.5625 C82.69122107 326.68044429 70.8376147 330.03608896 59 333.5 C45.79899136 337.36188907 32.5695862 341.0626081 19.26171875 344.5390625 C18.12347656 344.83683594 16.98523438 345.13460938 15.8125 345.44140625 C14.82894531 345.69607666 13.84539062 345.95074707 12.83203125 346.21313477 C10.82898752 346.7696701 8.84739707 347.4062853 6.88671875 348.09741211 C4 349 4 349 0 349 C-0.33 333.49 -0.66 317.98 -1 302 C2.3 301.154375 5.6 300.30875 9 299.4375 C18.3864528 297.00929479 27.69456218 294.36923146 36.98950195 291.61376953 C44.98253937 289.2593928 53.02287913 287.13662827 61.09375 285.06738281 C68.13738753 283.2522916 75.07244983 281.2202318 82 279 C85.81820101 277.80213302 88.93355631 277 93 277 C92.98935013 276.33006516 92.97870026 275.66013031 92.96772766 274.96989441 C92.90841788 268.35103154 93.25248583 261.88299794 93.91796875 255.30078125 C94.06413635 253.78697372 94.06413635 253.78697372 94.21325684 252.24258423 C94.42375376 250.06693284 94.63653861 247.8915018 94.85140991 245.71627808 C95.43261006 239.83012915 95.99660261 233.94232397 96.5625 228.0546875 C96.68066574 226.82965012 96.79883148 225.60461273 96.920578 224.342453 C98.35874657 209.37514425 99.67889365 194.39736348 100.99716187 179.4190979 C101.19760374 177.14194141 101.39845546 174.86482095 101.59973145 172.58773804 C101.78049181 170.54203584 101.96031256 168.49625019 102.13879395 166.4503479 C103.00715336 156.62341386 104.01811258 146.8188742 105 137 C50.55 137 -3.9 137 -60 137 C-64 98 -64 98 -64 91 C-6.91 90.67 50.18 90.34 109 90 C110.32 76.8 111.64 63.6 113 50 C113.33 48.35 113.66 46.7 114 45 C76.38 45 38.76 45 0 45 C0 30.15 0 15.3 0 0 Z " fill="#F16529" transform="translate(256,131)"/>
<path d="M0 0 C34.65 0 69.3 0 105 0 C104.40720053 11.26318996 103.79634421 22.43262103 102.765625 33.6484375 C102.64578698 34.98010277 102.52623847 36.31179413 102.4069519 37.64350891 C102.09072765 41.16325003 101.77005438 44.68257138 101.44828033 48.20180893 C101.18061611 51.13546091 100.91564585 54.06935391 100.65062141 57.00324535 C98.1802152 84.34294193 95.61453461 111.67372653 93 139 C89.17520522 140.12487994 85.34941105 141.24632401 81.5234375 142.3671875 C80.44892334 142.68324951 79.37440918 142.99931152 78.26733398 143.32495117 C71.15970599 145.40490183 64.04036397 147.29585689 56.84375 149.04296875 C50.29224113 150.67418793 43.80251473 152.52480198 37.30419922 154.35449219 C34.97684748 155.00648604 32.64712571 155.64921908 30.31640625 156.2890625 C28.77341347 156.7134543 27.23044444 157.13793249 25.6875 157.5625 C24.94024658 157.76762207 24.19299316 157.97274414 23.4230957 158.18408203 C17.85762184 159.72578156 12.36523211 161.44792005 6.89453125 163.30078125 C-0.37815381 165.0576107 -6.66362559 163.2969762 -13.6875 161.375 C-14.69627197 161.10574707 -15.70504395 160.83649414 -16.74438477 160.55908203 C-24.17942259 158.55332922 -31.55481318 156.37100486 -38.91723633 154.11523438 C-44.68877918 152.35739229 -50.48589138 150.81984161 -56.34765625 149.39575195 C-62.95577776 147.78636001 -69.47421648 145.91201301 -76 144 C-77.53893847 143.55686069 -79.0780077 143.11417533 -80.6171875 142.671875 C-82.18237019 142.2190213 -83.74747546 141.76589995 -85.3125 141.3125 C-86.06072021 141.09795166 -86.80894043 140.88340332 -87.57983398 140.66235352 C-92.88588996 139.11411004 -92.88588996 139.11411004 -94 138 C-94.19996202 136.5227866 -94.33753183 135.03705141 -94.44897461 133.55053711 C-94.5225267 132.60121811 -94.5960788 131.65189911 -94.67185974 130.67381287 C-94.74791946 129.63547806 -94.82397919 128.59714325 -94.90234375 127.52734375 C-95.02628258 125.92168297 -95.02628258 125.92168297 -95.15272522 124.28358459 C-95.41864223 120.83520456 -95.67866888 117.38641866 -95.9375 113.9375 C-97.37156026 94.46471293 -97.37156026 94.46471293 -99.63500977 75.07641602 C-100 72 -100 72 -100 67 C-84.82 67 -69.64 67 -54 67 C-53.01521888 69.95434335 -52.71415336 72.35285057 -52.46484375 75.4453125 C-52.37783203 76.52296875 -52.29082031 77.600625 -52.20117188 78.7109375 C-52.0706543 80.40089844 -52.0706543 80.40089844 -51.9375 82.125 C-51.84662109 83.2284375 -51.75574219 84.331875 -51.66210938 85.46875 C-51.17246341 91.66847785 -50.90139727 97.7814543 -51 104 C-50.06607422 104.11214844 -50.06607422 104.11214844 -49.11328125 104.2265625 C-42.11014542 105.2228245 -35.47262507 106.90250902 -28.6875 108.875 C-27.78064453 109.13756592 -26.87378906 109.40013184 -25.93945312 109.6706543 C-22.53759922 110.66083242 -19.13728486 111.65467358 -15.74707031 112.68408203 C-13.77291003 113.28336416 -11.79367921 113.86194157 -9.8125 114.4375 C-8.72582031 114.76621094 -7.63914062 115.09492188 -6.51953125 115.43359375 C1.58961643 116.73861752 9.15391168 114.62400853 16.875 112.25 C18.70232729 111.70823955 20.53047812 111.16925039 22.359375 110.6328125 C23.28556641 110.36114258 24.21175781 110.08947266 25.16601562 109.80957031 C29.79537849 108.4871231 34.45497722 107.29443192 39.125 106.125 C39.97175293 105.91004883 40.81850586 105.69509766 41.69091797 105.47363281 C42.47611816 105.27866211 43.26131836 105.08369141 44.0703125 104.8828125 C44.75883301 104.71152832 45.44735352 104.54024414 46.15673828 104.36376953 C48 104 48 104 51 104 C50.98404785 103.32300049 50.9680957 102.64600098 50.95166016 101.94848633 C50.84766801 93.84722786 51.40295537 85.87382832 52.171875 77.81958008 C52.37369183 75.7012311 52.56641913 73.58220411 52.7578125 71.46289062 C53.60979888 62.26139817 54.77639506 53.17703704 56 44 C37.52 44 19.04 44 0 44 C0 29.48 0 14.96 0 0 Z " fill="#FEFEFE" transform="translate(256,269)"/>
<path d="M0 0 C15.18 0 30.36 0 46 0 C46.98478112 2.95434335 47.28584664 5.35285057 47.53515625 8.4453125 C47.66567383 10.06179688 47.66567383 10.06179688 47.79882812 11.7109375 C47.9293457 13.40089844 47.9293457 13.40089844 48.0625 15.125 C48.15337891 16.2284375 48.24425781 17.331875 48.33789062 18.46875 C48.82753659 24.66847785 49.09860273 30.7814543 49 37 C49.62261719 37.07476562 50.24523437 37.14953125 50.88671875 37.2265625 C60.67520546 38.61906689 69.96889974 41.47637391 79.43505859 44.25830078 C84.32183642 45.67140101 89.24298127 46.95097854 94.1640625 48.23828125 C96.1265225 48.76538827 98.07225989 49.35741996 100 50 C100 65.51 100 81.02 100 97 C86.89223336 94.37844667 74.20419918 91.12075832 61.4375 87.21630859 C55.54706465 85.42765524 49.63503091 83.84907043 43.65405273 82.39624023 C37.04540832 80.78647437 30.52636065 78.9121821 24 77 C22.46106153 76.55686069 20.9219923 76.11417533 19.3828125 75.671875 C17.81762981 75.2190213 16.25252454 74.76589995 14.6875 74.3125 C13.93927979 74.09795166 13.19105957 73.88340332 12.42016602 73.66235352 C7.11411004 72.11411004 7.11411004 72.11411004 6 71 C5.80003798 69.5227866 5.66246817 68.03705141 5.55102539 66.55053711 C5.44069725 65.12655861 5.44069725 65.12655861 5.32814026 63.67381287 C5.25208054 62.63547806 5.17602081 61.59714325 5.09765625 60.52734375 C5.01503036 59.45690323 4.93240448 58.38646271 4.84727478 57.28358459 C4.58135777 53.83520456 4.32133112 50.38641866 4.0625 46.9375 C2.62843974 27.46471293 2.62843974 27.46471293 0.36499023 8.07641602 C0 5 0 5 0 0 Z " fill="#EAE9E9" transform="translate(156,336)"/>
<path d="M0 0 C37.29 0 74.58 0 113 0 C113 14.70071805 111.33094048 29.35965477 110 44 C73.7 44 37.4 44 0 44 C0 29.48 0 14.96 0 0 Z " fill="#FEFEFE" transform="translate(256,177)"/>
<path d="M0 0 C18.15 0 36.3 0 55 0 C55 8.57230027 54.93735039 16.74287662 54.125 25.2109375 C53.99182373 26.67945663 53.99182373 26.67945663 53.85595703 28.17764282 C53.57653559 31.24400465 53.28845159 34.3094759 53 37.375 C52.80671214 39.47911351 52.61399944 41.58327994 52.421875 43.6875 C51.95454026 48.79230049 51.47944595 53.89632336 51 59 C50.27111572 59.1858667 49.54223145 59.3717334 48.79125977 59.56323242 C29.53124261 64.48309817 29.53124261 64.48309817 10.453125 70.0546875 C7 71 7 71 0 72 C0 48.24 0 24.48 0 0 Z " fill="#F16529" transform="translate(256,314)"/>
<path d="M0 0 C21.12 0 42.24 0 64 0 C64 15.18 64 30.36 64 46 C44.2 46 24.4 46 4 46 C3.34 39.709375 2.68 33.41875 2 26.9375 C1.79117188 24.96515381 1.58234375 22.99280762 1.3671875 20.96069336 C1.20284035 19.37877304 1.03876026 17.79682494 0.875 16.21484375 C0.78863281 15.40857544 0.70226562 14.60230713 0.61328125 13.77160645 C0.53207031 12.98064575 0.45085937 12.18968506 0.3671875 11.37475586 C0.26059814 10.35882607 0.26059814 10.35882607 0.15185547 9.32237244 C-0.05092911 6.22112549 0 3.10786972 0 0 Z " fill="#E44D26" transform="translate(192,222)"/>
</svg>
