<?xml version="1.0" encoding="UTF-8"?>
<svg version="1.1" xmlns="http://www.w3.org/2000/svg" width="820" height="600">
<path d="M0 0 C48.77015369 -0.03422358 97.54030822 -0.06606651 146.31047058 -0.08468628 C147.03184203 -0.08496239 147.75321348 -0.08523851 148.49644467 -0.08552299 C164.17233843 -0.09150827 179.84823232 -0.09704871 195.5241264 -0.10213066 C203.21115265 -0.10462542 210.89817887 -0.10721851 218.58520508 -0.10986328 C219.35017226 -0.1101248 220.11513944 -0.11038632 220.90328745 -0.11065576 C245.7152494 -0.11918431 270.52720227 -0.13421128 295.33915872 -0.15259444 C320.82848468 -0.17144524 346.31780561 -0.18376754 371.80713843 -0.18782998 C375.40415256 -0.18840632 379.00116667 -0.1890576 382.59818077 -0.18975449 C383.66013694 -0.18995676 383.66013694 -0.18995676 384.74354676 -0.19016311 C396.15759309 -0.19253008 407.57162389 -0.20181572 418.98566387 -0.21366407 C430.44992376 -0.22541779 441.91416215 -0.22977882 453.37842897 -0.22700275 C459.59436144 -0.22571635 465.81024821 -0.22774698 472.02617264 -0.23841095 C477.70900277 -0.24808966 483.39175614 -0.24867019 489.07458969 -0.24179779 C491.13788803 -0.24094747 493.20119101 -0.24352995 495.26448009 -0.24976636 C498.05467013 -0.25771412 500.8445777 -0.2535145 503.63476276 -0.24609566 C504.44830659 -0.25134968 505.26185041 -0.25660371 506.10004708 -0.26201695 C509.93456484 -0.23874748 511.73153351 -0.17897766 515 2 C515.29841011 4.80654493 515.39821228 7.39310844 515.3719368 10.20257473 C515.37569793 11.06505421 515.37945906 11.92753369 515.38333416 12.81614891 C515.39235607 15.73822892 515.37978104 18.6598312 515.36749268 21.58189392 C515.3695149 23.68513176 515.37285176 25.78836868 515.37739825 27.89160258 C515.38608839 33.69615216 515.37594192 39.50054306 515.36285591 45.30507886 C515.35199968 51.55533345 515.35836419 57.80557268 515.36264038 64.05583191 C515.36763424 74.89380807 515.36160631 85.73171997 515.34775543 96.56968498 C515.33323896 107.9417146 515.32447004 119.3137232 515.32357025 130.68576241 C515.32347861 131.74545841 515.32347861 131.74545841 515.32338512 132.82656242 C515.32315561 135.6940892 515.32296843 138.56161597 515.32283698 141.42914275 C515.32162473 167.57997305 515.30591137 193.73077391 515.28125 219.8815918 C515.25795949 244.58374255 515.24378401 269.28587545 515.24023438 293.98803711 C515.2400671 295.12932152 515.2400671 295.12932152 515.23989645 296.29366218 C515.2394476 299.36106386 515.23900563 302.42846553 515.23856402 305.49586721 C515.23834365 307.02440677 515.23812235 308.55294633 515.23790014 310.08148589 C515.23767879 311.60621482 515.23746002 313.13094374 515.23724384 314.65567267 C515.23373078 338.92017123 515.22226918 363.18466641 515.2094375 387.4491616 C515.20571587 394.55872233 515.20245179 401.66828283 515.20018864 408.77784419 C515.19538317 423.73360813 515.18817176 438.68935859 515.17204097 453.64511579 C515.16541926 459.83269246 515.1603657 466.02025956 515.15958023 472.20783997 C515.15879649 477.86467052 515.15342116 483.52147683 515.14426073 489.17829985 C515.1417411 491.23211427 515.14092407 493.28593158 515.14191952 495.3397473 C515.14300627 498.11705507 515.1380264 500.8942856 515.13142776 503.67158413 C515.13319724 504.48134757 515.13496671 505.29111101 515.1367898 506.12541273 C515.12360774 509.34784806 515.02657447 511.92027659 514 515 C509.74636032 517.51021241 505.6692921 517.02657127 500.9375 516.5625 C496.05932312 515.93959514 496.05932312 515.93959514 491.25159115 516.48017204 C487.93877062 517.24500749 484.64101733 517.13662497 481.25969791 517.12584114 C480.07738118 517.1280213 480.07738118 517.1280213 478.87117925 517.13024551 C476.21391012 517.13391256 473.55669809 517.13041579 470.89942932 517.12698364 C468.98150809 517.12813518 467.06358708 517.12972293 465.14566654 517.13171089 C459.86261924 517.13589972 454.57958991 517.1338155 449.29654253 517.13072467 C443.60389289 517.12846898 437.91124642 517.13195104 432.21859741 517.13470459 C421.06137456 517.13915953 409.90415843 517.13818701 398.74693532 517.13529195 C389.68147314 517.13303673 380.61601284 517.13272591 371.55055046 517.13381577 C370.26199306 517.133969 368.97343566 517.13412223 367.64583106 517.13428011 C365.02842085 517.13459982 362.41101064 517.13492404 359.79360043 517.1352527 C335.92990137 517.1380253 312.06620613 517.13514627 288.20250767 517.1299101 C266.41063791 517.1251649 244.618774 517.12558848 222.8269043 517.13037109 C198.35396357 517.13572414 173.88102659 517.13783147 149.40808529 517.13475883 C146.79981196 517.13444027 144.19153863 517.1341259 141.5832653 517.13381577 C140.29983754 517.13366149 139.01640978 517.13350721 137.69409027 517.13334826 C128.6368905 517.13248377 119.57969281 517.13394456 110.52249336 517.13629532 C99.48849332 517.1390961 88.4545004 517.13834917 77.42050118 517.13301457 C71.78758378 517.13038126 66.15467826 517.12936627 60.52176094 517.13266373 C55.36945641 517.13563428 50.21717481 517.1340211 45.06487238 517.12868617 C43.19681328 517.12756525 41.32875225 517.12814604 39.46069438 517.13056196 C36.92914946 517.13358586 34.39768395 517.13050064 31.86614323 517.12584114 C30.76852997 517.12935289 30.76852997 517.12935289 29.64874271 517.13293558 C25.96529313 517.11930932 22.58643936 516.8352693 19 516 C14.80631006 515.75202529 10.8196117 515.84535628 6.6875 516.625 C3.6768114 517.04509608 2.50485404 516.63778918 0 515 C0 513.35 0 511.7 0 510 C-0.66 510 -1.32 510 -2 510 C-2.02887236 506.18751574 -2.04675492 502.3750593 -2.0625 498.5625 C-2.07087891 497.47388672 -2.07925781 496.38527344 -2.08789062 495.26367188 C-2.09111328 494.22919922 -2.09433594 493.19472656 -2.09765625 492.12890625 C-2.10289307 491.17056885 -2.10812988 490.21223145 -2.11352539 489.22485352 C-2 487 -2 487 -1 486 C-0.83333333 483.5 -0.83333333 483.5 -1 481 C-1.33 480.67 -1.66 480.34 -2 480 C-2.09794601 478.48638543 -2.12631813 476.96821143 -2.12698364 475.45143127 C-2.12980347 474.46849091 -2.13262329 473.48555054 -2.13552856 472.4728241 C-2.13350433 471.38552505 -2.1314801 470.29822601 -2.12939453 469.17797852 C-2.13114685 468.03987732 -2.13289917 466.90177612 -2.13470459 465.72918701 C-2.13912623 461.94574484 -2.13618382 458.16234895 -2.1328125 454.37890625 C-2.1334855 451.76195771 -2.13445548 449.14500924 -2.13571167 446.52806091 C-2.13753333 441.03424574 -2.13512743 435.54044399 -2.13037109 430.04663086 C-2.12493118 423.68973417 -2.12668917 417.33286957 -2.1321975 410.97597367 C-2.13727778 404.86934836 -2.13674566 398.7627373 -2.13381577 392.65611076 C-2.13314667 390.05367974 -2.1339743 387.4512479 -2.13629532 384.84881783 C-2.13882343 381.21632823 -2.13497882 377.58390095 -2.12939453 373.95141602 C-2.13141876 372.8661412 -2.13344299 371.78086639 -2.13552856 370.66270447 C-2.13270874 369.67694427 -2.12988892 368.69118408 -2.12698364 367.67555237 C-2.12660662 366.81589654 -2.12622959 365.95624071 -2.12584114 365.07053471 C-2 363 -2 363 -1 361 C-1.33 360.34 -1.66 359.68 -2 359 C-2.09656047 357.23385438 -2.13075475 355.46409458 -2.1328125 353.6953125 C-2.13410156 352.63699219 -2.13539063 351.57867187 -2.13671875 350.48828125 C-2.13285156 349.37839844 -2.12898437 348.26851563 -2.125 347.125 C-2.12886719 346.02285156 -2.13273438 344.92070312 -2.13671875 343.78515625 C-2.13542969 342.72425781 -2.13414062 341.66335938 -2.1328125 340.5703125 C-2.13168457 339.59852051 -2.13055664 338.62672852 -2.12939453 337.62548828 C-2.01225253 335.24861077 -1.62982832 333.28097493 -1 331 C-0.90978696 329.27268559 -0.86989022 327.54216105 -0.875 325.8125 C-0.87242187 324.93207031 -0.86984375 324.05164063 -0.8671875 323.14453125 C-0.76134967 321.01796809 -0.76134967 321.01796809 -2 320 C-2.09946453 318.23140807 -2.13080217 316.45888549 -2.1328125 314.6875 C-2.13410156 313.61242187 -2.13539063 312.53734375 -2.13671875 311.4296875 C-2.13091797 309.73199219 -2.13091797 309.73199219 -2.125 308 C-2.12886719 306.86820312 -2.13273438 305.73640625 -2.13671875 304.5703125 C-2.13542969 303.49523437 -2.13414062 302.42015625 -2.1328125 301.3125 C-2.13168457 300.31863281 -2.13055664 299.32476562 -2.12939453 298.30078125 C-2 296 -2 296 -1 295 C-0.90018786 292.3226862 -0.86120125 289.67695825 -0.875 287 C-0.87113281 286.24976563 -0.86726562 285.49953125 -0.86328125 284.7265625 C-0.52324459 281.06393883 -0.52324459 281.06393883 -2 278 C-2.09937434 276.32788603 -2.13080093 274.65162559 -2.1328125 272.9765625 C-2.13410156 271.955625 -2.13539063 270.9346875 -2.13671875 269.8828125 C-2.13285156 268.80773437 -2.12898437 267.73265625 -2.125 266.625 C-2.12886719 265.55765625 -2.13273438 264.4903125 -2.13671875 263.390625 C-2.13542969 262.36710937 -2.13414062 261.34359375 -2.1328125 260.2890625 C-2.13168457 259.34756348 -2.13055664 258.40606445 -2.12939453 257.43603516 C-2 255 -2 255 -1 252 C-1.33 251.01 -1.66 250.02 -2 249 C-2.08650584 247.51155284 -2.11770173 246.01951743 -2.11352539 244.52856445 C-2.11344986 243.62785721 -2.11337433 242.72714996 -2.11329651 241.79914856 C-2.10813522 240.83031235 -2.10297394 239.86147614 -2.09765625 238.86328125 C-2.0962413 237.86870407 -2.09482635 236.87412689 -2.09336853 235.84941101 C-2.08776761 232.67041018 -2.07521496 229.49147957 -2.0625 226.3125 C-2.05748512 224.15820414 -2.05292219 222.00390718 -2.04882812 219.84960938 C-2.03779788 214.56638226 -2.02105886 209.28319615 -2 204 C-1.34 204 -0.68 204 0 204 C0 202.35 0 200.7 0 199 C-0.66 199 -1.32 199 -2 199 C-2.02314216 190.42921353 -2.04092467 181.85844005 -2.05181217 173.28763008 C-2.05703689 169.30811588 -2.0641271 165.32862301 -2.07543945 161.34912109 C-2.08628291 157.51066757 -2.09227994 153.6722346 -2.09487724 149.83376694 C-2.09672885 148.36730501 -2.10034444 146.90084423 -2.10573006 145.43439102 C-2.11295983 143.38478388 -2.11399012 141.33526232 -2.11352539 139.28564453 C-2.115746 138.11760284 -2.11796661 136.94956116 -2.12025452 135.74612427 C-2 133 -2 133 -1 131 C-1.185625 129.88625 -1.37125 128.7725 -1.5625 127.625 C-1.99418413 124.04818866 -1.96534198 122.8902088 0 120 C-0.66 120 -1.32 120 -2 120 C-2.04633116 110.15993368 -2.08187319 100.3198933 -2.10362434 90.47974014 C-2.11406356 85.91060789 -2.1282253 81.34155025 -2.15087891 76.77246094 C-2.17260233 72.36341366 -2.18456759 67.95443816 -2.18975449 63.54534149 C-2.19345114 61.86281962 -2.20066972 60.1803017 -2.21146011 58.49781036 C-2.22596842 56.14200842 -2.22797823 53.78650347 -2.22705078 51.43066406 C-2.23783661 50.38625153 -2.23783661 50.38625153 -2.24884033 49.32073975 C-2.23343459 45.70665533 -1.97425448 43.07527278 0 40 C-0.66 40 -1.32 40 -2 40 C-2 27.46 -2 14.92 -2 2 C-1.34 2 -0.68 2 0 2 C0 1.34 0 0.68 0 0 Z " fill="#F6DE1E" transform="translate(155,43)"/>
<path d="M0 0 C8.65935226 7.09767385 16.07936578 15.07140791 20.19677734 25.62207031 C19.60364746 25.99904053 19.01051758 26.37601074 18.39941406 26.7644043 C16.62701142 27.89106512 14.85481263 29.01804665 13.08276367 30.14526367 C11.07038203 31.42468348 9.05719363 32.7028352 7.04321289 33.97973633 C2.57866591 36.8140096 -1.87850697 39.65311881 -6.27587891 42.59082031 C-6.91444824 43.01435791 -7.55301758 43.43789551 -8.2109375 43.87426758 C-9.88598489 44.98981697 -11.55384231 46.11614091 -13.22119141 47.24316406 C-14.07326172 47.69820313 -14.92533203 48.15324219 -15.80322266 48.62207031 C-19.66778849 47.3338817 -20.27310087 45.73673785 -22.49072266 42.37207031 C-27.48578141 35.3056661 -32.51928153 31.97003399 -40.80322266 29.62207031 C-48.98522721 28.79715543 -56.8563074 28.79905271 -63.80322266 33.62207031 C-67.60859982 37.1340208 -69.61172776 40.46912054 -70.07666016 45.69628906 C-70.29552447 53.48280786 -70.15075213 58.76992261 -64.80322266 64.62207031 C-59.40528157 69.33624632 -53.46701306 72.51985567 -46.99072266 75.49707031 C-45.61920044 76.14095703 -45.61920044 76.14095703 -44.2199707 76.79785156 C-38.24961985 79.57423205 -32.21074426 82.13470773 -26.11572266 84.62207031 C-4.37460596 93.58507648 18.65021581 106.52749334 29.19677734 128.62207031 C30.74442784 132.90406818 32.03394872 137.2212112 33.19677734 141.62207031 C33.4582959 142.53279297 33.4582959 142.53279297 33.72509766 143.46191406 C37.61047353 161.25580937 34.01741644 180.19237642 24.88427734 195.68457031 C13.37802247 212.0791034 -4.16323485 221.35131249 -23.52783203 225.10083008 C-51.97135395 229.92161497 -80.20251664 226.10080911 -104.80322266 210.62207031 C-115.79047881 202.81845307 -127.19702339 192.10952499 -132.80322266 179.62207031 C-132.7421875 177.70361328 -132.7421875 177.70361328 -131.80322266 175.62207031 C-129.24633789 173.77856445 -129.24633789 173.77856445 -125.86181641 171.90722656 C-124.96016502 171.40079872 -124.96016502 171.40079872 -124.04029846 170.88414001 C-122.11370543 169.80523733 -120.17780243 168.74450915 -118.24072266 167.68457031 C-116.33525401 166.62688908 -114.43186319 165.56555621 -112.52896118 164.50326538 C-111.30007157 163.81844145 -110.06959535 163.13645633 -108.8374939 162.45742798 C-105.49769634 160.6092885 -102.2695923 158.66360931 -99.08837891 156.55566406 C-98.00427734 155.91757812 -96.92017578 155.27949219 -95.80322266 154.62207031 C-91.98596959 155.894488 -91.39059613 157.37511452 -89.17822266 160.68457031 C-81.83686198 171.03226516 -72.24264549 178.72962274 -59.86962891 182.11816406 C-46.84547933 184.25843832 -33.64120241 183.46954656 -22.49072266 175.93847656 C-17.57031763 172.10010505 -15.39175122 167.70253499 -14.51025391 161.59082031 C-14.08308886 155.03325963 -16.08208363 149.97867291 -19.80322266 144.62207031 C-28.77341573 134.88364911 -45.07020206 130.02201666 -57.00073242 124.98266602 C-81.21582836 114.69650958 -103.30556116 102.66447564 -114.66259766 77.75097656 C-117.86258646 68.97292508 -119.30863325 61.03515972 -119.17822266 51.68457031 C-119.16299561 50.10144043 -119.16299561 50.10144043 -119.14746094 48.48632812 C-118.8043576 31.28860568 -112.92561464 17.03126967 -100.80322266 4.62207031 C-74.02463492 -18.57799744 -28.70116977 -21.93195263 0 0 Z " fill="#020201" transform="translate(592.80322265625,290.3779296875)"/>
<path d="M0 0 C15.84 0 31.68 0 48 0 C48.09050885 23.17548746 48.16410302 46.35083045 48.20724869 69.52645016 C48.22781992 80.28877556 48.25583582 91.05098286 48.30175781 101.81323242 C48.34179285 111.2003437 48.36747228 120.58736937 48.37635398 129.97456366 C48.38154065 134.93892464 48.39361616 139.90304086 48.42292023 144.86732292 C48.45035354 149.55327502 48.45838947 154.23888481 48.45243073 158.92490959 C48.45351862 160.63193633 48.46130452 162.33897621 48.4768219 164.04593277 C48.65123813 184.24705164 44.90725937 203.78179356 30.3125 218.8203125 C23.48363214 225.25698186 16.73848073 229.54287843 8 233 C7.27167969 233.29777344 6.54335938 233.59554687 5.79296875 233.90234375 C-14.32789777 241.40567245 -39.17543477 239.61906247 -58.7421875 231.56640625 C-74.77468896 223.85773349 -86.39833326 212.55745647 -95 197 C-95.36659433 195.67542555 -95.70791526 194.3429726 -96 193 C-95.01644531 192.42894531 -94.03289062 191.85789062 -93.01953125 191.26953125 C-83.50055567 185.71689234 -74.09623572 180.0080024 -64.7824707 174.11645508 C-63.92741943 173.58044678 -63.07236816 173.04443848 -62.19140625 172.4921875 C-61.43029541 172.01120605 -60.66918457 171.53022461 -59.88500977 171.03466797 C-58 170 -58 170 -56 170 C-54.80859375 171.8359375 -54.80859375 171.8359375 -53.4375 174.375 C-48.43558221 182.97242837 -42.57443657 190.68558882 -32.75 193.6875 C-24.08924563 194.67167663 -16.87613736 194.07167036 -9 190 C-3.07277011 184.81367385 -1.30664219 177.97075182 -0.71511269 170.31095505 C-0.5541557 165.8387316 -0.5628491 161.36661265 -0.56762695 156.89208984 C-0.55859758 155.17634379 -0.54826749 153.46060416 -0.53674316 151.74487305 C-0.50928502 147.11336422 -0.49990391 142.48197818 -0.49388909 137.85039854 C-0.48447619 133.00036521 -0.45827051 128.15042254 -0.43388367 123.30044556 C-0.39029502 114.12806113 -0.36170122 104.95569438 -0.33856028 95.78323805 C-0.3114676 85.33575227 -0.26755865 74.88835804 -0.22227156 64.44093776 C-0.12953462 42.96066159 -0.06002333 21.48039421 0 0 Z " fill="#020200" transform="translate(385,279)"/>
<path d="M0 0 C0.99 0.33 1.98 0.66 3 1 C3.0171118 49.57948224 3.03303327 98.15896469 3.04234314 146.7384491 C3.0424812 147.45700107 3.04261925 148.17555305 3.04276149 148.91587933 C3.04575413 164.5305068 3.04852435 180.1451343 3.05106533 195.75976186 C3.05231271 203.41674554 3.05360926 211.07372922 3.05493164 218.73071289 C3.05512778 219.87367914 3.05512778 219.87367914 3.05532788 221.03973561 C3.05959215 245.7546903 3.06710563 270.46964271 3.07629722 295.18459603 C3.08572264 320.57428594 3.09188378 345.96397459 3.09391499 371.35366623 C3.09420316 374.93662575 3.0945288 378.51958527 3.09487724 382.10254478 C3.09494467 382.80774926 3.09501209 383.51295374 3.09508156 384.23952805 C3.09626504 395.60893692 3.10090785 406.9783419 3.10683203 418.34774918 C3.11270892 429.76719698 3.1148894 441.18663972 3.11350138 452.60608939 C3.11285818 458.79770524 3.11387346 464.98930963 3.11920547 471.18092346 C3.12404485 476.84153021 3.12433506 482.50211769 3.12089889 488.16272529 C3.12047374 490.21794716 3.12176493 492.27317019 3.12488318 494.32838974 C3.12885704 497.10761638 3.12675711 499.88677212 3.12304783 502.66599751 C3.12567484 503.47633264 3.12830186 504.28666777 3.13100848 505.12155852 C3.12118579 508.34633781 3.02735799 510.91792602 2 514 C-2.25363968 516.51021241 -6.3307079 516.02657127 -11.0625 515.5625 C-15.94067688 514.93959514 -15.94067688 514.93959514 -20.74840885 515.48017204 C-24.06122938 516.24500749 -27.35898267 516.13662497 -30.74030209 516.12584114 C-31.92261882 516.1280213 -31.92261882 516.1280213 -33.12882075 516.13024551 C-35.78608988 516.13391256 -38.44330191 516.13041579 -41.10057068 516.12698364 C-43.01849191 516.12813518 -44.93641292 516.12972293 -46.85433346 516.13171089 C-52.13738076 516.13589972 -57.42041009 516.1338155 -62.70345747 516.13072467 C-68.39610711 516.12846898 -74.08875358 516.13195104 -79.78140259 516.13470459 C-90.93862544 516.13915953 -102.09584157 516.13818701 -113.25306468 516.13529195 C-122.31852686 516.13303673 -131.38398716 516.13272591 -140.44944954 516.13381577 C-141.73800694 516.133969 -143.02656434 516.13412223 -144.35416894 516.13428011 C-146.97157915 516.13459982 -149.58898936 516.13492404 -152.20639957 516.1352527 C-176.07009863 516.1380253 -199.93379387 516.13514627 -223.79749233 516.1299101 C-245.58936209 516.1251649 -267.381226 516.12558848 -289.1730957 516.13037109 C-313.64603643 516.13572414 -338.11897341 516.13783147 -362.59191471 516.13475883 C-365.20018804 516.13444027 -367.80846137 516.1341259 -370.4167347 516.13381577 C-371.70016246 516.13366149 -372.98359022 516.13350721 -374.30590973 516.13334826 C-383.3631095 516.13248377 -392.42030719 516.13394456 -401.47750664 516.13629532 C-412.51150668 516.1390961 -423.5454996 516.13834917 -434.57949882 516.13301457 C-440.21241622 516.13038126 -445.84532174 516.12936627 -451.47823906 516.13266373 C-456.63054359 516.13563428 -461.78282519 516.1340211 -466.93512762 516.12868617 C-468.80318672 516.12756525 -470.67124775 516.12814604 -472.53930562 516.13056196 C-475.07085054 516.13358586 -477.60231605 516.13050064 -480.13385677 516.12584114 C-480.86559895 516.12818231 -481.59734112 516.13052347 -482.35125729 516.13293558 C-486.03470687 516.11930932 -489.41356064 515.8352693 -493 515 C-497.21126754 514.75098592 -501.1758878 514.82895785 -505.3125 515.6875 C-508 516 -508 516 -512 513 C-343.04 513 -174.08 513 0 513 C0 343.71 0 174.42 0 0 Z " fill="#F9F7DE" transform="translate(667,44)"/>
<path d="M0 0 C168.96 0 337.92 0 512 0 C510.515 1.485 510.515 1.485 509 3 C507.062975 2.83823372 505.12370444 2.65714073 503.20656879 2.33647718 C499.59905941 1.78637216 496.00644669 1.8630125 492.36424828 1.87415886 C491.52782362 1.87270542 490.69139897 1.87125198 489.82962811 1.86975449 C487.03242686 1.86611084 484.23528067 1.86957332 481.43807983 1.87301636 C479.41017428 1.8718639 477.38226894 1.87027553 475.35436404 1.86828911 C469.78584412 1.86411302 464.21734133 1.86617874 458.64882135 1.86927533 C452.64197327 1.87153616 446.63512814 1.86804642 440.62828064 1.86529541 C429.54296191 1.86110337 418.45764789 1.86146993 407.37232913 1.86420688 C397.13263478 1.86672263 386.89294243 1.86737904 376.65324783 1.86618423 C375.97397223 1.86610785 375.29469663 1.86603146 374.59483691 1.86595276 C371.83744375 1.86564143 369.08005059 1.86532303 366.32265743 1.864993 C340.45954786 1.86193439 314.59644177 1.86470698 288.73333274 1.8700899 C265.75255851 1.87483653 242.77178981 1.87440993 219.79101562 1.86962891 C193.97212598 1.86427538 168.1532394 1.86215023 142.33434927 1.86524117 C139.5826064 1.86556189 136.83086352 1.86587473 134.07912064 1.86618423 C133.40157029 1.86626331 132.72401995 1.86634239 132.02593777 1.86642386 C121.79097646 1.86756169 111.55601737 1.86623043 101.32105637 1.86370468 C89.68588069 1.86084771 78.05071029 1.86165187 66.4155352 1.86698543 C60.47665106 1.86961788 54.53777818 1.87063515 48.59889412 1.86733627 C43.16604982 1.86436406 37.73322727 1.86598167 32.30038495 1.87131383 C30.33148615 1.87243402 28.36258553 1.87185558 26.39368789 1.86943804 C23.72378872 1.86641036 21.05396465 1.86950325 18.38406944 1.87415886 C17.61438469 1.87181769 16.84469994 1.86947653 16.05169141 1.86706442 C12.82258611 1.87836706 9.89250103 2.02283168 6.72599566 2.69536507 C4 3 4 3 0 0 Z " fill="#FEF9B1" transform="translate(155,557)"/>
<path d="M0 0 C0.66 0 1.32 0 2 0 C2.0701506 22.38366861 2.12301783 44.76731904 2.15543652 67.15107536 C2.17089066 77.54476476 2.19195241 87.93838576 2.22631836 98.33203125 C2.25626519 107.39349258 2.27558556 116.45490436 2.28226548 125.51641381 C2.28616879 130.31227321 2.29531181 135.10799089 2.31719017 139.90380478 C2.33763883 144.42308016 2.34381693 148.94215621 2.33932304 153.46147346 C2.34014451 155.11499301 2.34606006 156.76851961 2.35761642 158.42199898 C2.50486197 180.58773116 2.50486197 180.58773116 -5.078125 188.52734375 C-10.9628493 193.03657355 -18.27422203 194.66885666 -25.58203125 194.3203125 C-32.59001713 193.3919525 -37.43647207 191.4467914 -42 186 C-38.72724974 186 -36.153368 186.29925156 -33 187 C-32.67 187.99 -32.34 188.98 -32 190 C-23.90173964 191.40839311 -16.05767815 192.46118086 -8.62890625 188.2890625 C-6.11714479 186.3013376 -5.07592167 183.95878459 -4 181 C-3.34 181 -2.68 181 -2 181 C-1.00771864 176.86005361 -0.86299348 172.96855058 -0.84178162 168.71708679 C-0.83684364 167.99410945 -0.83190566 167.27113211 -0.82681805 166.52624637 C-0.81148953 164.10954084 -0.80309507 161.69286178 -0.79467773 159.27612305 C-0.78509556 157.54141508 -0.77508527 155.80670944 -0.76467896 154.07200623 C-0.73766066 149.36585567 -0.71663444 144.65969513 -0.69667697 139.95351005 C-0.67479846 135.03407711 -0.64741889 130.11467488 -0.62062073 125.19526672 C-0.57071908 115.88105065 -0.52577086 106.5668175 -0.48259836 97.25256807 C-0.43320439 86.64803868 -0.37829427 76.04354011 -0.32291877 65.43904054 C-0.20913753 43.62605574 -0.10229008 21.81304152 0 0 Z " fill="#F5E446" transform="translate(383,280)"/>
<path d="M0 0 C2.80568007 0.35299229 3.80381345 0.76935446 5.66796875 2.9609375 C6.16941406 3.75757813 6.67085937 4.55421875 7.1875 5.375 C7.69667969 6.16648437 8.20585938 6.95796875 8.73046875 7.7734375 C11.727406 13.02960437 11.92704927 18.59895781 10.3515625 24.37890625 C7.72204731 31.02011769 3.89896299 35.12561409 -2.53515625 38.21875 C-14.71987617 43.24337677 -28.83144071 44.22412088 -41.26171875 39.32421875 C-53.46865007 33.42100945 -61.96194583 25.51681591 -69 14 C-69.763125 14.350625 -70.52625 14.70125 -71.3125 15.0625 C-74 16 -74 16 -77 15 C-74.76333601 13.01185424 -73.44584554 12.05437141 -70.4375 11.6875 C-68 12 -68 12 -65 14 C-65 14.99 -65 15.98 -65 17 C-64.34 17.33 -63.68 17.66 -63 18 C-60.98574971 20.41710035 -59.08496673 22.88165349 -57.25 25.4375 C-52.62401725 30.70598035 -48.12143396 34.30522596 -41 35 C-40.67 35.66 -40.34 36.32 -40 37 C-34.09882981 39.27274798 -28.5153098 39.27005263 -22.25 39.1875 C-20.83267578 39.1865332 -20.83267578 39.1865332 -19.38671875 39.18554688 C-14.10879586 39.17911004 -14.10879586 39.17911004 -9 38 C-9.33 37.34 -9.66 36.68 -10 36 C-8.96875 36.0825 -7.9375 36.165 -6.875 36.25 C-2.34237647 35.95757268 -0.42025812 34.93164982 3 32 C3.71447643 29.89667109 3.71447643 29.89667109 4 28 C4.99 27.67 5.98 27.34 7 27 C8.96006086 21.11981742 8.82815527 14.39729157 6.8125 8.5625 C4.7972346 5.71333167 2.5316082 3.39476452 0 1 C0 0.67 0 0.34 0 0 Z " fill="#E1D73E" transform="translate(568,432)"/>
<path d="M0 0 C3.15517114 0.31299873 5.39284674 0.16911647 8.42578125 -0.66015625 C7.76578125 -0.33015625 7.10578125 -0.00015625 6.42578125 0.33984375 C6.42578125 0.99984375 6.42578125 1.65984375 6.42578125 2.33984375 C8.07578125 2.66984375 9.72578125 2.99984375 11.42578125 3.33984375 C7.85048139 4.60106755 5.67701473 4.02524629 2.1015625 2.9296875 C-5.09708872 1.01623252 -11.96917209 0.84449338 -19.38671875 0.90234375 C-20.04586273 0.90438812 -20.70500671 0.9064325 -21.38412476 0.90853882 C-31.42775079 0.9592896 -40.12924848 1.76918426 -49.57421875 5.33984375 C-51.38565437 5.92647398 -53.19802338 6.51023774 -55.01171875 7.08984375 C-56.77515625 7.70859375 -56.77515625 7.70859375 -58.57421875 8.33984375 C-58.57421875 7.34984375 -58.57421875 6.35984375 -58.57421875 5.33984375 C-56.59421875 5.00984375 -54.61421875 4.67984375 -52.57421875 4.33984375 C-52.57421875 3.67984375 -52.57421875 3.01984375 -52.57421875 2.33984375 C-34.51365894 -1.06234587 -18.25914153 -2.80768709 0 0 Z " fill="#F1E843" transform="translate(564.57421875,276.66015625)"/>
<path d="M0 0 C5.9815081 0.84098532 9.71622708 3.88302886 14 8 C15.66890453 10.36646912 17.13841713 12.73120946 18.515625 15.27734375 C19.88662822 17.230381 19.88662822 17.230381 22.33984375 17.44140625 C25.55906687 16.90723266 27.5704177 15.75493267 30.3125 14 C31.63701172 13.1646875 31.63701172 13.1646875 32.98828125 12.3125 C33.65214844 11.879375 34.31601562 11.44625 35 11 C32.23004419 17.16707142 26.5199405 20.45146682 21 24 C19.0625 23.25 19.0625 23.25 17 22 C16.25 19.875 16.25 19.875 16 18 C15.34 18 14.68 18 14 18 C14.226875 17.4225 14.45375 16.845 14.6875 16.25 C15.27095593 13.89006205 15.27095593 13.89006205 13.5625 11.875 C12.7890625 10.946875 12.7890625 10.946875 12 10 C12 9.34 12 8.68 12 8 C11.34 8 10.68 8 10 8 C10 7.34 10 6.68 10 6 C9.278125 5.7525 8.55625 5.505 7.8125 5.25 C4.75286734 3.89016326 2.5326262 2.17082246 0 0 Z " fill="#ECE028" transform="translate(555,321)"/>
<path d="M0 0 C0.66 0 1.32 0 2 0 C0.61756115 5.92473793 -1.05306964 10.05656199 -5.98828125 13.78125 C-13.27422534 18.19525885 -21.15410858 19.19891891 -29.45703125 17.49609375 C-34.58054869 16.00916912 -37.58099251 14.08075087 -41 10 C-37.72724974 10 -35.153368 10.29925156 -32 11 C-31.67 11.99 -31.34 12.98 -31 14 C-22.90173964 15.40839311 -15.05767815 16.46118086 -7.62890625 12.2890625 C-5.11714479 10.3013376 -4.07592167 7.95878459 -3 5 C-2.34 5 -1.68 5 -1 5 C-0.67 3.35 -0.34 1.7 0 0 Z " fill="#E2D83D" transform="translate(382,456)"/>
<path d="M0 0 C2 3.75 2 3.75 2 6 C0.68 6 -0.64 6 -2 6 C-2 6.66 -2 7.32 -2 8 C-3.32 8 -4.64 8 -6 8 C-6 8.66 -6 9.32 -6 10 C-6.78375 10.2475 -7.5675 10.495 -8.375 10.75 C-12.1639144 12.05652221 -15.8394114 13.55046449 -19.53515625 15.09765625 C-22.01361713 16.00498504 -24.40293953 16.55095389 -27 17 C-27 17.66 -27 18.32 -27 19 C-32.61 19 -38.22 19 -44 19 C-44 18.67 -44 18.34 -44 18 C-42.88625 17.86464844 -41.7725 17.72929688 -40.625 17.58984375 C-25.38292227 15.52505925 -11.159009 11.159009 0 0 Z " fill="#E9DE46" transform="translate(414,498)"/>
<path d="M0 0 C3.03861053 2.87691063 5.42808314 5.87913398 7.8125 9.3125 C16.49248781 21.31504724 27.89037265 29.25887379 41 36 C40.01 36.495 40.01 36.495 39 37 C36.90206751 36.07352451 34.96590729 34.94511368 32.97265625 33.8125 C30.84999694 32.686837 30.84999694 32.686837 28 34 C27.67 32.68 27.34 31.36 27 30 C26.4225 29.9175 25.845 29.835 25.25 29.75 C22.31530475 28.77176825 21.08503877 27.27458775 19 25 C18.175 24.175 17.35 23.35 16.5 22.5 C14.97902398 20.97902398 13.47420913 19.4413472 12 17.875 C10.0444375 15.87422064 10.0444375 15.87422064 7.375 14.625 C4.23201698 12.47453793 4.01020921 10.60789004 3 7 C2.01120795 5.32665961 1.01351664 3.65848177 0 2 C0 1.34 0 0.68 0 0 Z " fill="#EEE644" transform="translate(461,472)"/>
<path d="M0 0 C0.25394531 0.61488281 0.50789063 1.22976563 0.76953125 1.86328125 C1.11371094 2.67152344 1.45789063 3.47976563 1.8125 4.3125 C2.14894531 5.11300781 2.48539062 5.91351563 2.83203125 6.73828125 C3.99480926 8.98994837 5.1470167 10.30471741 7 12 C8.01800576 13.31963709 9.02248365 14.65009646 10 16 C9.67 16.66 9.34 17.32 9 18 C-2 6.10393258 -2 6.10393258 -2 1 C-2.59538574 1.36875244 -3.19077148 1.73750488 -3.80419922 2.11743164 C-6.48942219 3.77413189 -9.18202844 5.418428 -11.875 7.0625 C-12.81214844 7.64322266 -13.74929688 8.22394531 -14.71484375 8.82226562 C-15.61074219 9.36689453 -16.50664062 9.91152344 -17.4296875 10.47265625 C-18.25710449 10.98062744 -19.08452148 11.48859863 -19.93701172 12.01196289 C-20.61779785 12.33801514 -21.29858398 12.66406738 -22 13 C-22.66 12.67 -23.32 12.34 -24 12 C-24 10.68 -24 9.36 -24 8 C-23.34 8 -22.68 8 -22 8 C-21.67 8.66 -21.34 9.32 -21 10 C-19.35 9.01 -17.7 8.02 -16 7 C-16.33 6.34 -16.66 5.68 -17 5 C-16.34 5 -15.68 5 -15 5 C-14.67 4.01 -14.34 3.02 -14 2 C-12.6078125 2.061875 -12.6078125 2.061875 -11.1875 2.125 C-6.85617807 1.95514424 -4.545321 -0.24569303 0 0 Z " fill="#ECDF39" transform="translate(331,448)"/>
<path d="M0 0 C1.22203125 -0.00515625 2.4440625 -0.0103125 3.703125 -0.015625 C6.75 0.25 6.75 0.25 8.75 2.25 C7.67621094 2.28738281 6.60242188 2.32476562 5.49609375 2.36328125 C4.0598638 2.42899112 2.62366738 2.49543668 1.1875 2.5625 C0.48302734 2.58505859 -0.22144531 2.60761719 -0.94726562 2.63085938 C-7.31099679 2.95344483 -12.04237762 4.43484382 -17.0625 8.5625 C-21.41695477 13.91225871 -21.85495327 19.56737662 -21.25 26.25 C-20.92 26.58 -20.59 26.91 -20.25 27.25 C-20.20936168 28.91617115 -20.207279 30.58388095 -20.25 32.25 C-24.3614975 27.85495095 -23.73440667 23.40350148 -23.59765625 17.671875 C-22.99750256 11.76474426 -20.73321451 8.42870698 -16.375 4.4375 C-11.06169794 0.71818856 -6.42230432 -0.02732895 0 0 Z " fill="#E5DF43" transform="translate(545.25,318.75)"/>
<path d="M0 0 C0.33 0 0.66 0 1 0 C1.53565141 6.69564266 -0.02480607 12.15431037 -2.02734375 18.53515625 C-3.10365641 22.01942448 -3.10365641 22.01942448 -3.44140625 25.80859375 C-3.62574219 26.86175781 -3.81007813 27.91492188 -4 29 C-4.99 29.66 -5.98 30.32 -7 31 C-7.495 32.485 -7.495 32.485 -8 34 C-8.66 34 -9.32 34 -10 34 C-10.33 34.66 -10.66 35.32 -11 36 C-12.30915279 37.03145371 -13.64082143 38.03542166 -15 39 C-15.66 38.67 -16.32 38.34 -17 38 C-16.154375 37.13375 -15.30875 36.2675 -14.4375 35.375 C-5.71919979 25.0696806 -2.52138901 12.93582189 0 0 Z " fill="#E8DC39" transform="translate(432,459)"/>
<path d="M0 0 C0 3.55256383 -0.81595789 4.52207514 -2.75 7.4375 C-8.27195316 16.34050722 -11.1453903 26.15952344 -11.09765625 36.61328125 C-11.09443359 37.86044922 -11.09121094 39.10761719 -11.08789062 40.39257812 C-11.07951172 41.68615234 -11.07113281 42.97972656 -11.0625 44.3125 C-11.05798828 45.62541016 -11.05347656 46.93832031 -11.04882812 48.29101562 C-11.03705949 51.5273901 -11.0206176 54.76367178 -11 58 C-14.38087137 52.92869295 -13.32716659 46.95463382 -13.3125 41 C-13.32861328 39.72253906 -13.34472656 38.44507813 -13.36132812 37.12890625 C-13.36672691 26.57967794 -12.30709163 17.61969189 -6 9 C-5.63215869 7.6757713 -5.28797019 6.34386088 -5 5 C-4.34 4.34 -3.68 3.68 -3 3 C-2.67 2.34 -2.34 1.68 -2 1 C-1.34 0.67 -0.68 0.34 0 0 Z " fill="#E9E044" transform="translate(486,300)"/>
<path d="M0 0 C0.928125 0.825 1.85625 1.65 2.8125 2.5 C10.64070263 9.19185064 19.07202466 14.88723321 28 20 C27.01 20.33 26.02 20.66 25 21 C23.09765625 20.00390625 23.09765625 20.00390625 21.0625 18.5625 C17.84772128 16.28923643 17.18842453 16 13 16 C13 15.34 13 14.68 13 14 C11.2072358 12.48800372 11.2072358 12.48800372 9 11 C7.66666667 10 6.33333333 9 5 8 C5 8.66 5 9.32 5 10 C4.01 10 3.02 10 2 10 C2 9.34 2 8.68 2 8 C1.01 7.67 0.02 7.34 -1 7 C0 6 1 5 2 4 C1.34 2.68 0.68 1.36 0 0 Z " fill="#EAE33F" transform="translate(489,386)"/>
<path d="M0 0 C0.99 0.33 1.98 0.66 3 1 C5.03214386 9.76966843 6.29854097 18.22810305 6.3125 27.25 C6.31765625 28.05928955 6.3228125 28.8685791 6.328125 29.70239258 C6.28078545 33.70723432 5.95060019 36.51910809 4 40 C3.98541748 39.28569824 3.97083496 38.57139648 3.95581055 37.83544922 C3.62904542 18.70856061 3.62904542 18.70856061 0 0 Z " fill="#EEE145" transform="translate(623,422)"/>
<path d="M0 0 C4.73672286 1.78744259 9.17824038 4.08346033 13.65234375 6.43359375 C19.36925444 9.36115461 25.15967937 10.9210344 31.4375 12.125 C32.30246094 12.29257812 33.16742188 12.46015625 34.05859375 12.6328125 C34.69925781 12.75398437 35.33992188 12.87515625 36 13 C36 13.33 36 13.66 36 14 C33.77110504 14.05428973 31.54182529 14.09292338 29.3125 14.125 C27.45044922 14.15980469 27.45044922 14.15980469 25.55078125 14.1953125 C22.16290345 14.00896059 19.97770624 13.58000739 17 12 C16.67 11.34 16.34 10.68 16 10 C14.37558262 8.97984916 14.37558262 8.97984916 12.40234375 8.0546875 C11.68369141 7.70019531 10.96503906 7.34570312 10.22460938 6.98046875 C9.46986328 6.61566406 8.71511719 6.25085938 7.9375 5.875 C7.17888672 5.50246094 6.42027344 5.12992187 5.63867188 4.74609375 C3.76174913 3.8253392 1.88120604 2.91197136 0 2 C0 1.34 0 0.68 0 0 Z " fill="#EBE348" transform="translate(313,503)"/>
<path d="M0 0 C0.99 0.66 1.98 1.32 3 2 C3 2.99 3 3.98 3 5 C3.66 5.33 4.32 5.66 5 6 C7.01425029 8.41710035 8.91503327 10.88165349 10.75 13.4375 C13.76479568 16.8710173 17.28099537 19.37322731 21 22 C20.34 22.33 19.68 22.66 19 23 C10.74746318 17.40319976 4.22575958 10.49185931 -1 2 C-2.1446875 2.5259375 -2.1446875 2.5259375 -3.3125 3.0625 C-6 4 -6 4 -9 3 C-5.95049269 0.28932684 -4.08318873 -0.52348573 0 0 Z " fill="#E9E147" transform="translate(500,444)"/>
<path d="M0 0 C2.46800047 1.15173355 4.04783565 2.04783565 6 4 C0.01821869 8.35923665 -5.9679406 12.71053554 -12 17 C-12 15.35 -12 13.7 -12 12 C-11.34 12 -10.68 12 -10 12 C-9.67 11.34 -9.34 10.68 -9 10 C-6.6859378 9.26924352 -4.35171131 8.59861742 -2 8 C-2.33 6.35 -2.66 4.7 -3 3 C-0.525 3.99 -0.525 3.99 2 5 C1.34 3.35 0.68 1.7 0 0 Z " fill="#EDDF36" transform="translate(500,282)"/>
<path d="M0 0 C5.48099272 0.95131202 10.22808132 3.05727792 15.3125 5.25 C16.22451172 5.63285156 17.13652344 6.01570313 18.07617188 6.41015625 C23.74538998 8.84040172 28.85405285 11.59752146 34 15 C30.17456525 16.27514492 28.66576992 15.52740413 25 14 C24.54842529 13.53037842 24.09685059 13.06075684 23.6315918 12.5769043 C21.57216967 10.58650963 19.50869634 9.68306138 16.89453125 8.51953125 C15.91162109 8.07802734 14.92871094 7.63652344 13.91601562 7.18164062 C12.89185547 6.72982422 11.86769531 6.27800781 10.8125 5.8125 C9.77673828 5.34908203 8.74097656 4.88566406 7.67382812 4.40820312 C5.11855182 3.26598284 2.56061238 2.13019477 0 1 C0 0.67 0 0.34 0 0 Z " fill="#E9E142" transform="translate(534,415)"/>
<path d="M0 0 C3.37204446 1.68602223 4.36155891 5.46510261 5.9375 8.75 C8.13369035 13.2809159 10.31800073 17.72897922 13 22 C12.34 22 11.68 22 11 22 C9.64613064 20.34997172 8.31321858 18.6825613 7 17 C6.34 16.67 5.68 16.34 5 16 C4.375 12.9375 4.375 12.9375 4 10 C2.68 10 1.36 10 0 10 C-1.125 3.375 -1.125 3.375 0 0 Z " fill="#EFE334" transform="translate(476,364)"/>
<path d="M0 0 C3.87498404 -0.02917234 7.74993958 -0.04685673 11.625 -0.0625 C12.71941406 -0.07087891 13.81382812 -0.07925781 14.94140625 -0.08789062 C16.53662109 -0.09272461 16.53662109 -0.09272461 18.1640625 -0.09765625 C19.62513428 -0.10551147 19.62513428 -0.10551147 21.11572266 -0.11352539 C24 0 24 0 27.18505859 0.53344727 C30.12903934 1.02138718 32.13770891 0.75766529 35 0 C34.34 0.33 33.68 0.66 33 1 C33 1.66 33 2.32 33 3 C35.475 3.495 35.475 3.495 38 4 C34.52580729 5.20075785 32.57879604 4.74210317 29.125 3.625 C19.64978805 1.03762916 9.76403558 1.23589034 0 1 C0 0.67 0 0.34 0 0 Z " fill="#DFD44A" transform="translate(538,276)"/>
<path d="M0 0 C-2.68705841 1.58408362 -5.37472829 3.167127 -8.0625 4.75 C-8.81466797 5.1934375 -9.56683594 5.636875 -10.34179688 6.09375 C-11.83834449 6.97483431 -13.33654313 7.85312065 -14.83642578 8.72851562 C-16.24852289 9.55837364 -17.65359199 10.40034261 -19.05029297 11.25585938 C-20.66613844 12.22947225 -22.32958825 13.12329982 -24 14 C-24.66 13.67 -25.32 13.34 -26 13 C-23.8782637 11.66121428 -21.75294812 10.32884524 -19.625 9 C-19.02171875 8.6184375 -18.4184375 8.236875 -17.796875 7.84375 C-13.2265625 5 -13.2265625 5 -11 5 C-10.95875 4.38125 -10.9175 3.7625 -10.875 3.125 C-10 1 -10 1 -7.1875 -0.3125 C-4.08008079 -0.98272767 -2.91938434 -0.88024821 0 0 Z " fill="#E8E24B" transform="translate(490,450)"/>
<path d="M0 0 C0.99 0 1.98 0 3 0 C5.26398219 2.71082078 7.2918894 5.49823176 9.328125 8.37890625 C10.48780496 9.96822668 11.73884789 11.48993629 13 13 C13.99 13 14.98 13 16 13 C15.67 14.32 15.34 15.64 15 17 C15.66 17.33 16.32 17.66 17 18 C17.72693904 19.97888961 18.39816251 21.97954558 19 24 C18.01 24.33 17.02 24.66 16 25 C15.82984375 23.89205078 15.82984375 23.89205078 15.65625 22.76171875 C13.7910498 14.91233456 7.1027296 8.6841069 1.7578125 2.96875 C0 1 0 1 0 0 Z " fill="#F1E945" transform="translate(596,293)"/>
<path d="M0 0 C3.94949704 0.62816498 7.19892028 1.8645529 10.8125 3.5625 C12.27623047 4.24505859 12.27623047 4.24505859 13.76953125 4.94140625 C14.87361328 5.46541016 14.87361328 5.46541016 16 6 C15.34 7.32 14.68 8.64 14 10 C12.68 9.67 11.36 9.34 10 9 C9.67 7.68 9.34 6.36 9 5 C4.38492226 3.95785309 4.38492226 3.95785309 0 5 C0 3.33333333 0 1.66666667 0 0 Z " fill="#F3E235" transform="translate(518,408)"/>
<path d="M0 0 C2 3.75 2 3.75 2 6 C0.68 6 -0.64 6 -2 6 C-2 6.66 -2 7.32 -2 8 C-3.32 8 -4.64 8 -6 8 C-6 8.66 -6 9.32 -6 10 C-7.98 10.66 -9.96 11.32 -12 12 C-9.73428727 8.66105492 -7.16877476 6.47319006 -4 4 C-2.64852862 2.68505488 -1.30887458 1.35735142 0 0 Z " fill="#EFDF31" transform="translate(414,498)"/>
<path d="M0 0 C0.33 0 0.66 0 1 0 C0.85795259 1.58367747 0.71119847 3.16693318 0.5625 4.75 C0.48128906 5.63171875 0.40007813 6.5134375 0.31640625 7.421875 C0.03761535 9.69350452 -0.38790577 11.79851823 -1 14 C-0.34 14.33 0.32 14.66 1 15 C0.236875 15.598125 -0.52625 16.19625 -1.3125 16.8125 C-3.35378343 18.47400977 -5.16900528 20.12604939 -7 22 C-6.5875 20.783125 -6.175 19.56625 -5.75 18.3125 C-3.72341064 12.24242851 -1.86391367 6.12158449 0 0 Z " fill="#E8DC3B" transform="translate(626,462)"/>
<path d="M0 0 C0.99 0 1.98 0 3 0 C3.66 0.66 4.32 1.32 5 2 C4.67 2.99 4.34 3.98 4 5 C4.598125 5.268125 5.19625 5.53625 5.8125 5.8125 C7.97224808 6.98493467 9.35790256 8.19369282 11 10 C10.67 10.99 10.34 11.98 10 13 C6.04 9.37 2.08 5.74 -2 2 C-1.34 1.34 -0.68 0.68 0 0 Z " fill="#1C1601" transform="translate(474,485)"/>
<path d="M0 0 C0.66 0.33 1.32 0.66 2 1 C0.80100302 4.0831351 -0.47700477 7.06279492 -2 10 C-2.7425 9.95875 -3.485 9.9175 -4.25 9.875 C-7.08758952 10.00398134 -8.58773938 10.57051222 -11 12 C-11.33 11.34 -11.66 10.68 -12 10 C-11.46890625 9.69707031 -10.9378125 9.39414062 -10.390625 9.08203125 C-6.06670297 6.51766143 -2.8964347 4.22396727 0 0 Z " fill="#1C1403" transform="translate(576,460)"/>
<path d="M0 0 C8.91 0 17.82 0 27 0 C26.01 0.99 25.02 1.98 24 3 C20.8125 2.75 20.8125 2.75 18.73828125 2.39453125 C15.00267699 1.85630581 11.2660966 1.65438478 7.5 1.4375 C6.40328979 1.37224121 6.40328979 1.37224121 5.28442383 1.30566406 C3.52307774 1.2015779 1.76155565 1.10047708 0 1 C0 0.67 0 0.34 0 0 Z " fill="#FBF9C8" transform="translate(640,557)"/>
<path d="M0 0 C0.33 0.66 0.66 1.32 1 2 C0.1875 4.3125 0.1875 4.3125 -1 7 C-1.37125 7.928125 -1.7425 8.85625 -2.125 9.8125 C-2.41375 10.534375 -2.7025 11.25625 -3 12 C-3.33 11.34 -3.66 10.68 -4 10 C-6.31 11.98 -8.62 13.96 -11 16 C-11.66 15.67 -12.32 15.34 -13 15 C-12.48050781 14.50371094 -11.96101562 14.00742187 -11.42578125 13.49609375 C-7.07159457 9.25458473 -3.37180778 5.05771167 0 0 Z " fill="#F1E544" transform="translate(618,484)"/>
<path d="M0 0 C1.68765239 0.4577719 3.37511352 0.9162489 5.0625 1.375 C6.07183594 1.64828125 7.08117187 1.9215625 8.12109375 2.203125 C10.29980964 2.80618883 12.46594472 3.45494836 14.625 4.125 C18.73152016 5.18965338 22.78138053 5.63649084 27 6 C27 6.33 27 6.66 27 7 C18.65474478 7.51917486 11.08961486 5.95829294 3 4 C3 3.34 3 2.68 3 2 C2.01 1.67 1.02 1.34 0 1 C0 0.67 0 0.34 0 0 Z " fill="#E5DD40" transform="translate(503,509)"/>
<path d="M0 0 C0 0.99 0 1.98 0 3 C-3.95134412 6.37970296 -8.95202067 8.85273197 -14 10 C-16.375 9.625 -16.375 9.625 -18 9 C-16.35 8.34 -14.7 7.68 -13 7 C-13.33 6.34 -13.66 5.68 -14 5 C-12.96875 5.0825 -11.9375 5.165 -10.875 5.25 C-6.16500503 4.94612936 -3.33808726 3.33808726 0 0 Z " fill="#F0E447" transform="translate(572,463)"/>
<path d="M0 0 C8.25 0 16.5 0 25 0 C25 0.33 25 0.66 25 1 C23.98679688 1.06058594 22.97359375 1.12117187 21.9296875 1.18359375 C20.57811486 1.26806704 19.22655291 1.35271157 17.875 1.4375 C16.87726563 1.49647461 16.87726563 1.49647461 15.859375 1.55664062 C12.74235044 1.75527454 9.81088475 2.04215219 6.7578125 2.72265625 C4 3 4 3 0 0 Z " fill="#FDFBC8" transform="translate(155,557)"/>
<path d="M0 0 C0.33 0.99 0.66 1.98 1 3 C-4.75 6 -4.75 6 -7 6 C-7 6.66 -7 7.32 -7 8 C-7.804375 8.28875 -8.60875 8.5775 -9.4375 8.875 C-12.1326468 9.73262568 -12.1326468 9.73262568 -13 12 C-14.32 11.67 -15.64 11.34 -17 11 C-11.39 7.37 -5.78 3.74 0 0 Z " fill="#E9DF45" transform="translate(610,317)"/>
<path d="M0 0 C0 2 0 2 -1.4375 3.5 C-1.953125 3.995 -2.46875 4.49 -3 5 C-3.33 5.66 -3.66 6.32 -4 7 C-6.64 7 -9.28 7 -12 7 C-9.20232475 3.70861735 -4.40323273 0 0 0 Z " fill="#151000" transform="translate(496,447)"/>
<path d="M0 0 C4.20240011 3.71750779 6.99782679 8.31660979 10 13 C9.67 13.66 9.34 14.32 9 15 C7.125 14.375 7.125 14.375 5 13 C3.9375 10.1875 3.9375 10.1875 3 7 C2.01120795 5.32665961 1.01351664 3.65848177 0 2 C0 1.34 0 0.68 0 0 Z " fill="#E8DE3F" transform="translate(461,472)"/>
<path d="M0 0 C1.1725131 0.95117134 2.33787015 1.91117009 3.5 2.875 C4.47453125 3.67550781 4.47453125 3.67550781 5.46875 4.4921875 C5.9740625 4.98976563 6.479375 5.48734375 7 6 C7 6.66 7 7.32 7 8 C6.34 8 5.68 8 5 8 C5 8.66 5 9.32 5 10 C4.01 10 3.02 10 2 10 C2 9.34 2 8.68 2 8 C1.01 7.67 0.02 7.34 -1 7 C0 6 1 5 2 4 C1.34 2.68 0.68 1.36 0 0 Z " fill="#F7E834" transform="translate(489,386)"/>
<path d="M0 0 C5.06998019 0.65419099 9.41990777 2.8546409 14 5 C14.33 4.01 14.66 3.02 15 2 C15.66 2.33 16.32 2.66 17 3 C16.67 4.65 16.34 6.3 16 8 C12.34061828 6.56835889 8.76011932 5.01065704 5.1875 3.375 C4.21167969 2.92898438 3.23585938 2.48296875 2.23046875 2.0234375 C1.49441406 1.68570312 0.75835938 1.34796875 0 1 C0 0.67 0 0.34 0 0 Z " fill="#E6DB3E" transform="translate(565,374)"/>
<path d="M0 0 C1.1653125 0.17144531 2.330625 0.34289062 3.53125 0.51953125 C6.5 1.1875 6.5 1.1875 8.5 3.1875 C6.22923158 3.21449725 3.95837179 3.23389453 1.6875 3.25 C-0.20935547 3.26740234 -0.20935547 3.26740234 -2.14453125 3.28515625 C-5.5 3.1875 -5.5 3.1875 -8.5 2.1875 C-8.5 1.5275 -8.5 0.8675 -8.5 0.1875 C-5.52547377 -1.29976312 -3.25169752 -0.49998446 0 0 Z " fill="#E5D93F" transform="translate(340.5,513.8125)"/>
<path d="M0 0 C3.27275026 0 5.846632 0.29925156 9 1 C9.33 2.32 9.66 3.64 10 5 C9.01 5.33 8.02 5.66 7 6 C1.36619718 2.73239437 1.36619718 2.73239437 0 0 Z " fill="#EEE136" transform="translate(341,466)"/>
<path d="M0 0 C4.67692308 1.47692308 4.67692308 1.47692308 6.3125 4.125 C6.539375 4.74375 6.76625 5.3625 7 6 C5.02 6.99 5.02 6.99 3 8 C0.9375 5.6875 0.9375 5.6875 -1 3 C-0.67 2.01 -0.34 1.02 0 0 Z " fill="#0E0805" transform="translate(464,472)"/>
<path d="M0 0 C2.5 1.375 2.5 1.375 5 3 C5 3.66 5 4.32 5 5 C5.99 5 6.98 5 8 5 C8 5.66 8 6.32 8 7 C8.99 7.33 9.98 7.66 11 8 C10.67 8.66 10.34 9.32 10 10 C8.3251177 8.90833564 6.66026877 7.80126363 5 6.6875 C3.6078125 5.76517578 3.6078125 5.76517578 2.1875 4.82421875 C1.465625 4.22222656 0.74375 3.62023437 0 3 C0 2.01 0 1.02 0 0 Z " fill="#1E1602" transform="translate(308,496)"/>
<path d="M0 0 C0.99 0.495 0.99 0.495 2 1 C2.309375 1.94875 2.61875 2.8975 2.9375 3.875 C3.99038777 6.97172873 4.63729456 7.92081921 7 10 C8.01800576 11.31963709 9.02248365 12.65009646 10 14 C9.67 14.66 9.34 15.32 9 16 C7.86966702 14.75482035 6.74594964 13.50363348 5.625 12.25 C4.99851562 11.55390625 4.37203125 10.8578125 3.7265625 10.140625 C0.81518459 6.53104334 0 4.72465134 0 0 Z " fill="#F1E74A" transform="translate(331,450)"/>
<path d="M0 0 C1.12588014 0.95729916 2.2506715 1.91587895 3.375 2.875 C4.00148438 3.40867187 4.62796875 3.94234375 5.2734375 4.4921875 C6.55836651 5.61432007 7.79371975 6.79371975 9 8 C8.625 10.125 8.625 10.125 8 12 C7.6596875 11.1028125 7.6596875 11.1028125 7.3125 10.1875 C6.11886662 7.78810733 6.11886662 7.78810733 3.4375 6.5625 C1 5 1 5 0.1875 2.3125 C0.0946875 1.1678125 0.0946875 1.1678125 0 0 Z " fill="#231A00" transform="translate(595,293)"/>
<path d="M0 0 C0 0.66 0 1.32 0 2 C-5.61 2 -11.22 2 -17 2 C-17 1.67 -17 1.34 -17 1 C-14.73052303 0.63724344 -12.45935265 0.28506814 -10.1875 -0.0625 C-8.92292969 -0.25972656 -7.65835937 -0.45695313 -6.35546875 -0.66015625 C-3 -1 -3 -1 0 0 Z " fill="#E1DA34" transform="translate(387,515)"/>
<path d="M0 0 C0.66 0.33 1.32 0.66 2 1 C1.01 1.66 0.02 2.32 -1 3 C-1.25030977 5.58380177 -1.25030977 5.58380177 -1 8 C-1.99 7.34 -2.98 6.68 -4 6 C-4 5.34 -4 4.68 -4 4 C-4.66 4 -5.32 4 -6 4 C-6 4.99 -6 5.98 -6 7 C-6.66 7 -7.32 7 -8 7 C-8 5.68 -8 4.36 -8 3 C-6.68 3 -5.36 3 -4 3 C-3.67 2.34 -3.34 1.68 -3 1 C-2.01 0.67 -1.02 0.34 0 0 Z " fill="#F0DF38" transform="translate(462,464)"/>
<path d="M0 0 C1.14926266 0.95421808 2.29430541 1.91352045 3.4375 2.875 C4.07558594 3.40867187 4.71367187 3.94234375 5.37109375 4.4921875 C7 6 7 6 8 8 C6.02 8.66 4.04 9.32 2 10 C1.33333333 6.66666667 0.66666667 3.33333333 0 0 Z " fill="#1A1501" transform="translate(336,462)"/>
<path d="M0 0 C2.17581687 2.84881728 4.20937999 5.76084088 6.1875 8.75 C6.71730469 9.54921875 7.24710937 10.3484375 7.79296875 11.171875 C8.19128906 11.77515625 8.58960938 12.3784375 9 13 C8.01 13.495 8.01 13.495 7 14 C6.38125 13.195625 5.7625 12.39125 5.125 11.5625 C3.25835959 8.96125481 3.25835959 8.96125481 1 8 C0.40644386 5.35139573 0.25790731 2.70802678 0 0 Z " fill="#E9E03E" transform="translate(480,372)"/>
<path d="M0 0 C0.33 0.66 0.66 1.32 1 2 C0.06421005 4.35981813 -0.93347808 6.69631264 -2 9 C-2.66 9 -3.32 9 -4 9 C-4.33 10.98 -4.66 12.96 -5 15 C-5.66 15 -6.32 15 -7 15 C-5.67231025 9.20644472 -3.33455096 4.9000081 0 0 Z " fill="#211A01" transform="translate(484,305)"/>
<path d="M0 0 C3.76382187 1.25460729 4.25041838 2.52618612 6.25 5.875 C6.79140625 6.75929688 7.3328125 7.64359375 7.890625 8.5546875 C9 11 9 11 8 14 C6.85018626 12.23174858 5.70528078 10.46030479 4.5625 8.6875 C3.92441406 7.70136719 3.28632812 6.71523438 2.62890625 5.69921875 C1 3 1 3 0 0 Z " fill="#EBE343" transform="translate(613,405)"/>
<path d="M0 0 C6.15222436 0.43173504 9.81917949 1.65405342 15 5 C11.01508155 6.32830615 9.59951452 5.23204404 5.8125 3.5625 C4.72582031 3.08941406 3.63914062 2.61632812 2.51953125 2.12890625 C1.68808594 1.75636719 0.85664062 1.38382812 0 1 C0 0.67 0 0.34 0 0 Z " fill="#E2D942" transform="translate(550,368)"/>
<path d="M0 0 C0.66 0 1.32 0 2 0 C2.33 0.99 2.66 1.98 3 3 C-0.25978366 5.22257977 -3.44774296 7.28564986 -7 9 C-6.02180976 7.68677212 -5.0424189 6.37443848 -4.0625 5.0625 C-3.51722656 4.33160156 -2.97195313 3.60070312 -2.41015625 2.84765625 C-1 1 -1 1 0 0 Z " fill="#271D03" transform="translate(492,295)"/>
<path d="M0 0 C1.3921875 0.2784375 1.3921875 0.2784375 2.8125 0.5625 C6.01343771 1.24123881 6.01343771 1.24123881 9 0 C9.33 0.66 9.66 1.32 10 2 C7.6875 3.5625 7.6875 3.5625 5 5 C2 4 2 4 0.8125 1.9375 C0.544375 1.298125 0.27625 0.65875 0 0 Z " fill="#201402" transform="translate(572,334)"/>
<path d="M0 0 C0.78375 0.04125 1.5675 0.0825 2.375 0.125 C-0.29166667 2.79166667 -2.95833333 5.45833333 -5.625 8.125 C-4.59375 0.21875 -4.59375 0.21875 0 0 Z " fill="#191200" transform="translate(529.625,320.875)"/>
<path d="M0 0 C0.99 0.33 1.98 0.66 3 1 C2.34 1 1.68 1 1 1 C1 1.66 1 2.32 1 3 C2.65 3.33 4.3 3.66 6 4 C1.47907032 5.45606519 -1.51648796 4.27032841 -6 3 C-4 2 -2 1 0 0 Z " fill="#E4D937" transform="translate(570,276)"/>
<path d="M0 0 C1.98 0.66 3.96 1.32 6 2 C5.67 2.99 5.34 3.98 5 5 C3.35 5.33 1.7 5.66 0 6 C-1.125 2.25 -1.125 2.25 0 0 Z " fill="#110D02" transform="translate(551,369)"/>
<path d="M0 0 C-6.625 4 -6.625 4 -10 4 C-10 3.01 -10 2.02 -10 1 C-3.71428571 -1.42857143 -3.71428571 -1.42857143 0 0 Z " fill="#E7DD38" transform="translate(490,450)"/>
<path d="M0 0 C0.33 0 0.66 0 1 0 C1.06058594 0.71027344 1.12117187 1.42054688 1.18359375 2.15234375 C1.26738281 3.07144531 1.35117187 3.99054688 1.4375 4.9375 C1.51871094 5.85402344 1.59992187 6.77054687 1.68359375 7.71484375 C1.76044976 9.96159732 1.76044976 9.96159732 3 11 C3.04063832 12.66617115 3.042721 14.33388095 3 16 C-0.13107836 12.61416198 -0.33550778 10.28890538 -0.1875 5.75 C-0.14689453 4.13351562 -0.14689453 4.13351562 -0.10546875 2.484375 C-0.07066406 1.66453125 -0.03585937 0.8446875 0 0 Z " fill="#F3ED4C" transform="translate(522,335)"/>
<path d="M0 0 C0.66 0 1.32 0 2 0 C2.66 1.98 3.32 3.96 4 6 C3.01 6 2.02 6 1 6 C-0.6875 4 -0.6875 4 -2 2 C-1.34 2 -0.68 2 0 2 C0 1.34 0 0.68 0 0 Z " fill="#140F03" transform="translate(302,488)"/>
<path d="M0 0 C0.66 0.33 1.32 0.66 2 1 C0.02 5.455 0.02 5.455 -2 10 C-2.66 8.68 -3.32 7.36 -4 6 C-3.01 5.67 -2.02 5.34 -1 5 C-0.67 3.35 -0.34 1.7 0 0 Z " fill="#201900" transform="translate(621,474)"/>
<path d="M0 0 C0.66 0.33 1.32 0.66 2 1 C-2.30769231 5.92307692 -2.30769231 5.92307692 -5.8125 6.3125 C-6.8953125 6.1578125 -6.8953125 6.1578125 -8 6 C-5.38485683 3.87961365 -2.80362384 1.86908256 0 0 Z " fill="#1A1200" transform="translate(304,463)"/>
<path d="M0 0 C1.32 0 2.64 0 4 0 C4.33 1.32 4.66 2.64 5 4 C5.66 4 6.32 4 7 4 C7.33 5.32 7.66 6.64 8 8 C6.85073734 7.04578192 5.70569459 6.08647955 4.5625 5.125 C3.92441406 4.59132813 3.28632812 4.05765625 2.62890625 3.5078125 C1 2 1 2 0 0 Z " fill="#F7EE46" transform="translate(605,397)"/>
<path d="M0 0 C2.31 0 4.62 0 7 0 C7.33 1.32 7.66 2.64 8 4 C2.25 2.25 2.25 2.25 0 0 Z " fill="#E1DC3A" transform="translate(520,467)"/>
<path d="M0 0 C0.66 0.33 1.32 0.66 2 1 C0.35 2.65 -1.3 4.3 -3 6 C-3.99 5.34 -4.98 4.68 -6 4 C-4.02 2.68 -2.04 1.36 0 0 Z " fill="#1B1600" transform="translate(319,454)"/>
<path d="M0 0 C-1.98 1.32 -3.96 2.64 -6 4 C-6.33 2.68 -6.66 1.36 -7 0 C-3.86650268 -1.04449911 -3.01031744 -0.93423645 0 0 Z " fill="#211803" transform="translate(522,281)"/>
<path d="M0 0 C2.31 0 4.62 0 7 0 C4.3144406 2.6855594 1.62378672 3.06049974 -2 4 C-1.34 2.68 -0.68 1.36 0 0 Z " fill="#231C01" transform="translate(585,507)"/>
<path d="M0 0 C-4.75 4 -4.75 4 -7 4 C-7 3.01 -7 2.02 -7 1 C-3.375 -1.125 -3.375 -1.125 0 0 Z " fill="#261C03" transform="translate(607,498)"/>
<path d="M0 0 C1 2 2 4 3 6 C2.34 6.66 1.68 7.32 1 8 C-2 3.25 -2 3.25 -2 1 C-1.34 0.67 -0.68 0.34 0 0 Z " fill="#2A1E04" transform="translate(291,471)"/>
<path d="M0 0 C0.33 0.99 0.66 1.98 1 3 C-1.97 3.66 -4.94 4.32 -8 5 C-3 0 -3 0 0 0 Z " fill="#291D00" transform="translate(329,449)"/>
</svg>
