<?xml version="1.0" encoding="UTF-8"?>
<svg version="1.1" xmlns="http://www.w3.org/2000/svg" width="2560" height="996">
<path d="M0 0 C844.8 0 1689.6 0 2560 0 C2560 281.82 2560 563.64 2560 854 C2137.6 854 1715.2 854 1280 854 C1280 900.86 1280 947.72 1280 996 C1092.23 996 904.46 996 711 996 C711 949.14 711 902.28 711 854 C476.37 854 241.74 854 0 854 C0 572.18 0 290.36 0 0 Z " fill="#CB3837" transform="translate(0,0)"/>
<path d="M0 0 C281.82 0 563.64 0 854 0 C854 187.77 854 375.54 854 569 C806.81 569 759.62 569 711 569 C711 428.42 711 287.84 711 143 C664.14 143 617.28 143 569 143 C569 283.58 569 424.16 569 569 C522.14 569 475.28 569 427 569 C427 428.42 427 287.84 427 143 C380.14 143 333.28 143 285 143 C285 283.58 285 424.16 285 569 C190.95 569 96.9 569 0 569 C0 381.23 0 193.46 0 0 Z " fill="#FEFEFE" transform="translate(1564,142)"/>
<path d="M0 0 C187.77 0 375.54 0 569 0 C569 187.77 569 375.54 569 569 C475.28 569 381.56 569 285 569 C285 615.86 285 662.72 285 711 C190.95 711 96.9 711 0 711 C0 476.37 0 241.74 0 0 Z " fill="#FEFEFE" transform="translate(853,142)"/>
<path d="M0 0 C187.77 0 375.54 0 569 0 C569 187.77 569 375.54 569 569 C522.14 569 475.28 569 427 569 C427 428.42 427 287.84 427 143 C380.14 143 333.28 143 285 143 C285 283.58 285 424.16 285 569 C190.95 569 96.9 569 0 569 C0 381.23 0 193.46 0 0 Z " fill="#FEFEFE" transform="translate(142,142)"/>
<path d="M0 0 C46.86 0 93.72 0 142 0 C142 93.72 142 187.44 142 284 C95.14 284 48.28 284 0 284 C0 190.28 0 96.56 0 0 Z " fill="#CB3837" transform="translate(1138,285)"/>
</svg>
