<?xml version="1.0" encoding="UTF-8"?>
<svg version="1.1" xmlns="http://www.w3.org/2000/svg" width="237" height="213">
<path d="M0 0 C5.59494967 3.44654973 10.6897769 7.43058984 15.6875 11.6875 C20.05595699 8.83586835 24.33859677 5.99717553 28.375 2.6875 C39.28131406 -5.65133167 53.1783223 -9.46189965 66.6875 -8.3125 C74.88423146 -6.61858462 80.69661104 -1.91112591 85.6875 4.6875 C94.83685119 20.86623077 92.97447946 38.08592592 90.6875 55.6875 C91.37714844 55.91824219 92.06679687 56.14898437 92.77734375 56.38671875 C108.25254197 61.75739797 124.24549256 70.93185012 132.1875 85.875 C135.06116637 93.20028347 135.07773309 102.20125284 132.125 109.5 C123.43869695 125.78681821 107.77689114 134.29635976 90.6875 139.6875 C90.84605469 140.93015625 91.00460938 142.1728125 91.16796875 143.453125 C93.16217698 161.57456246 93.10869891 179.05570164 82.6875 194.6875 C82.0275 194.6875 81.3675 194.6875 80.6875 194.6875 C80.44 195.29078125 80.1925 195.8940625 79.9375 196.515625 C77.44817251 200.84083152 73.31508247 202.28769747 68.6875 203.6875 C52.86363886 206.199902 40.03728204 201.06137187 26.9921875 192.37109375 C24.97129689 190.89481603 23.11005239 189.35784555 21.25 187.6875 C18.9852565 185.45699416 18.9852565 185.45699416 16.84765625 185.828125 C14.02652619 186.95045522 11.96099661 188.5774414 9.5625 190.4375 C4.4800271 194.20728123 -0.4970043 197.20398284 -6.3125 199.6875 C-7.20195313 200.08066406 -8.09140625 200.47382813 -9.0078125 200.87890625 C-18.97451584 204.77596873 -30.87266135 205.72613503 -41.0625 202 C-44.88169506 200.1616078 -47.58718015 197.97391512 -50.3125 194.6875 C-50.993125 193.965625 -51.67375 193.24375 -52.375 192.5 C-62.1616806 178.29352816 -61.57209289 160.28973397 -58.75 144.00390625 C-58.605625 143.23949219 -58.46125 142.47507813 -58.3125 141.6875 C-58.91835938 141.45675781 -59.52421875 141.22601563 -60.1484375 140.98828125 C-70.86087616 136.81867051 -79.5059475 132.13236708 -88.3125 124.6875 C-89.59833984 123.70523438 -89.59833984 123.70523438 -90.91015625 122.703125 C-97.57228091 117.11343992 -101.61753196 108.79742737 -102.59375 100.21484375 C-102.95421207 90.49738706 -99.99795595 83.52131042 -93.72265625 76.1640625 C-84.86365092 67.06096788 -71.87275844 58.53522563 -59.3125 55.6875 C-59.42078125 54.68396484 -59.42078125 54.68396484 -59.53125 53.66015625 C-60.70408605 41.52456101 -61.77244048 28.51890565 -58.3125 16.6875 C-58.06757812 15.78644531 -57.82265625 14.88539062 -57.5703125 13.95703125 C-55.01396559 5.75636086 -51.00892448 -0.44358262 -43.58203125 -4.98046875 C-28.5752647 -12.05763607 -13.79527972 -7.71120764 0 0 Z " fill="#54C1DE" transform="translate(103.3125,9.3125)"/>
<path d="M0 0 C5.59494967 3.44654973 10.6897769 7.43058984 15.6875 11.6875 C20.05595699 8.83586835 24.33859677 5.99717553 28.375 2.6875 C39.28131406 -5.65133167 53.1783223 -9.46189965 66.6875 -8.3125 C74.88423146 -6.61858462 80.69661104 -1.91112591 85.6875 4.6875 C94.83685119 20.86623077 92.97447946 38.08592592 90.6875 55.6875 C91.37714844 55.91824219 92.06679687 56.14898437 92.77734375 56.38671875 C108.25254197 61.75739797 124.24549256 70.93185012 132.1875 85.875 C135.06116637 93.20028347 135.07773309 102.20125284 132.125 109.5 C123.43869695 125.78681821 107.77689114 134.29635976 90.6875 139.6875 C90.84605469 140.93015625 91.00460938 142.1728125 91.16796875 143.453125 C93.16217698 161.57456246 93.10869891 179.05570164 82.6875 194.6875 C82.0275 194.6875 81.3675 194.6875 80.6875 194.6875 C80.44 195.29078125 80.1925 195.8940625 79.9375 196.515625 C77.44817251 200.84083152 73.31508247 202.28769747 68.6875 203.6875 C52.86363886 206.199902 40.03728204 201.06137187 26.9921875 192.37109375 C24.97129689 190.89481603 23.11005239 189.35784555 21.25 187.6875 C18.9852565 185.45699416 18.9852565 185.45699416 16.84765625 185.828125 C14.02652619 186.95045522 11.96099661 188.5774414 9.5625 190.4375 C4.4800271 194.20728123 -0.4970043 197.20398284 -6.3125 199.6875 C-7.20195313 200.08066406 -8.09140625 200.47382813 -9.0078125 200.87890625 C-18.97451584 204.77596873 -30.87266135 205.72613503 -41.0625 202 C-44.88169506 200.1616078 -47.58718015 197.97391512 -50.3125 194.6875 C-50.993125 193.965625 -51.67375 193.24375 -52.375 192.5 C-62.1616806 178.29352816 -61.57209289 160.28973397 -58.75 144.00390625 C-58.605625 143.23949219 -58.46125 142.47507813 -58.3125 141.6875 C-58.91835938 141.45675781 -59.52421875 141.22601563 -60.1484375 140.98828125 C-70.86087616 136.81867051 -79.5059475 132.13236708 -88.3125 124.6875 C-89.59833984 123.70523438 -89.59833984 123.70523438 -90.91015625 122.703125 C-97.57228091 117.11343992 -101.61753196 108.79742737 -102.59375 100.21484375 C-102.95421207 90.49738706 -99.99795595 83.52131042 -93.72265625 76.1640625 C-84.86365092 67.06096788 -71.87275844 58.53522563 -59.3125 55.6875 C-59.42078125 54.68396484 -59.42078125 54.68396484 -59.53125 53.66015625 C-60.70408605 41.52456101 -61.77244048 28.51890565 -58.3125 16.6875 C-58.06757812 15.78644531 -57.82265625 14.88539062 -57.5703125 13.95703125 C-55.01396559 5.75636086 -51.00892448 -0.44358262 -43.58203125 -4.98046875 C-28.5752647 -12.05763607 -13.79527972 -7.71120764 0 0 Z M-42.5 10.8125 C-47.38914743 18.56769937 -48.95978101 25.72327502 -48.75 34.8125 C-48.7396875 35.80644775 -48.729375 36.80039551 -48.71875 37.82446289 C-48.53194986 46.3506533 -47.33156515 54.40692925 -45.3125 62.6875 C-46.50875 62.89375 -47.705 63.1 -48.9375 63.3125 C-65.01135996 66.95186452 -79.38091083 75.73111712 -88.25 89.75 C-90.51897854 96.02305831 -89.34706763 101.20068465 -86.74609375 107.140625 C-78.94631565 120.99745148 -61.66522613 127.72791924 -47.3125 132.6875 C-46.6525 132.6875 -45.9925 132.6875 -45.3125 132.6875 C-45.5290625 133.2753125 -45.745625 133.863125 -45.96875 134.46875 C-48.28594734 141.93527475 -48.6445591 149.03065465 -48.6875 156.8125 C-48.70780273 158.33133789 -48.70780273 158.33133789 -48.72851562 159.88085938 C-48.67504685 169.01213764 -47.18989149 177.42719286 -41.3125 184.6875 C-35.49709901 189.81059135 -31.14944636 190.2807138 -23.5234375 190.08203125 C-8.87619395 189.12824158 4.85266193 178.94278654 14.6875 168.6875 C18.18109035 170.216952 20.69797665 172.31366048 23.5625 174.8125 C33.30590551 182.90802753 44.1967543 189.93048023 57.1875 190.0625 C58.4559375 190.09085938 59.724375 190.11921875 61.03125 190.1484375 C66.96846438 189.39994253 70.93027967 186.10503064 74.58984375 181.45703125 C83.57505143 166.97198115 79.94476818 147.35340886 76.6875 131.6875 C77.49574219 131.59726563 78.30398437 131.50703125 79.13671875 131.4140625 C83.55907474 130.50915797 87.39290128 128.90210673 91.5 127.0625 C92.30026611 126.70422119 93.10053223 126.34594238 93.92504883 125.97680664 C99.85471478 123.23952633 104.90765623 120.18075785 109.6875 115.6875 C110.34105469 115.11128906 110.99460938 114.53507812 111.66796875 113.94140625 C117.02307019 108.98379687 119.74584779 104.15616788 120.1875 96.75 C119.97243698 90.01135859 116.68816093 85.95852051 112.375 81.0625 C102.08587402 71.96978401 90.80718798 66.64201588 77.6875 62.6875 C77.83011591 60.81225253 77.97674857 58.93731036 78.125 57.0625 C78.20621094 56.01835938 78.28742188 54.97421875 78.37109375 53.8984375 C78.6875 50.6875 78.6875 50.6875 79.2109375 47.77734375 C81.05288369 35.83488932 80.72209702 21.95887478 73.6875 11.6875 C68.60053824 6.34502874 64.69855305 4.52840009 57.25 4.3125 C41.17654217 4.49402776 27.98046866 15.07688594 16.6875 25.6875 C13.09533013 24.67720222 10.86379468 23.05168086 8.1875 20.5625 C-2.64011983 10.81357162 -15.7803263 3.73848623 -30.61328125 4.30078125 C-35.75051028 5.03679525 -38.77567545 7.19458473 -42.5 10.8125 Z " fill="#F1F2F2" transform="translate(103.3125,9.3125)"/>
<path d="M0 0 C12.24720029 0.10717159 12.24720029 0.10717159 17.41796875 3.3894043 C21.86782797 8.19123529 24.30927998 13.82398132 26.49121094 19.93676758 C27.73405797 23.28416892 29.42768272 26.04194054 31.31835938 29.0637207 C33.5449704 32.93802389 33.5449704 32.93802389 33.10009766 35.40380859 C31.98961583 38.95033253 30.18533897 42.10484208 28.44335938 45.3762207 C27.91935547 46.38942383 27.91935547 46.38942383 27.38476562 47.4230957 C26.59984253 48.90603 25.78186007 50.37174237 24.93896484 51.82250977 C23.3296472 54.61682455 23.3296472 54.61682455 21.79541016 58.14086914 C17.27889602 67.36198166 17.27889602 67.36198166 12.46618652 69.29559326 C7.63405033 70.36601338 2.83704114 70.32347524 -2.08642578 70.10668945 C-4.68936861 70.00090664 -7.26867236 70.02437227 -9.87304688 70.0637207 C-21.67689395 69.99459087 -21.67689395 69.99459087 -26.12695312 66.45922852 C-27.96652996 63.88520855 -29.27554208 61.38932508 -30.55664062 58.5012207 C-31.39239727 57.07154605 -32.2404397 55.64894587 -33.10351562 54.2355957 C-33.84338919 52.91052598 -34.57789005 51.58244017 -35.30664062 50.2512207 C-35.67917969 49.58348633 -36.05171875 48.91575195 -36.43554688 48.2277832 C-37.15664944 46.92826975 -37.86993976 45.62438129 -38.57421875 44.31567383 C-39.4826548 42.63786648 -40.43202254 40.98239566 -41.38476562 39.3293457 C-42.78142519 35.95874061 -42.77648658 34.90767851 -41.55664062 31.5012207 C-40.31307581 28.75066847 -38.92766762 26.09454306 -37.49414062 23.4387207 C-37.09582031 22.69299805 -36.6975 21.94727539 -36.28710938 21.17895508 C-26.28450186 2.7406042 -20.57798984 0.32927633 0 0 Z " fill="#FDFEFE" transform="translate(123.556640625,71.498779296875)"/>
<path d="M0 0 C0.38671875 1.11117187 0.7734375 2.22234375 1.171875 3.3671875 C1.69780067 4.86983227 2.22384898 6.37243412 2.75 7.875 C3.00265625 8.60203125 3.2553125 9.3290625 3.515625 10.078125 C3.7734375 10.81289062 4.03125 11.54765625 4.296875 12.3046875 C4.55968262 13.06910156 4.82249023 13.83351563 5.09326172 14.62109375 C5.97203359 17.04590535 5.97203359 17.04590535 7.22314453 19.44140625 C9.51719983 24.17248914 10.4655784 27.06084319 8.7109375 32.140625 C7.96723176 33.8592948 7.18762979 35.56282576 6.375 37.25 C5.61103973 38.96312304 4.84799505 40.67665472 4.0859375 42.390625 C3.72081055 43.18275391 3.35568359 43.97488281 2.97949219 44.79101562 C1.79113544 47.47103852 0.852129 50.19622072 0 53 C-5.6978114 52.46979737 -10.17038794 50.9070861 -15.3125 48.4375 C-16.05653076 48.08179932 -16.80056152 47.72609863 -17.56713867 47.35961914 C-26.15433222 43.11597505 -34.26410789 38.16991699 -38 29 C-38.68540787 25.77858299 -38.53103108 24.01227799 -37 21.09375 C-30.0707377 10.85733978 -19.09699407 6.37647019 -8 2 C-7.09894531 1.61457031 -6.19789062 1.22914062 -5.26953125 0.83203125 C-3 0 -3 0 0 0 Z " fill="#FCFEFE" transform="translate(61,80)"/>
<path d="M0 0 C4.87741286 4.21830301 6.52132166 9.74738672 7.3125 16 C8.38862096 37.84775808 8.38862096 37.84775808 4.3125 46 C0.15741416 45.53722978 -3.99292808 45.05615531 -8.140625 44.53125 C-10.83934425 44.19475134 -13.44909052 43.96584796 -16.171875 43.84375 C-20.98108633 43.49489529 -23.67727118 43.02148933 -27.140625 39.51953125 C-28.67967632 37.45437565 -30.15812151 35.34273496 -31.57421875 33.19140625 C-34.12551281 29.33852779 -37.09807498 26.10102546 -40.25390625 22.7421875 C-41.6875 21 -41.6875 21 -41.6875 19 C-32.00574353 9.80514038 -14.41904939 -5.36522768 0 0 Z " fill="#FCFDFE" transform="translate(166.6875,23)"/>
<path d="M0 0 C2.31417269 12.66596303 5.23566686 29.16500137 -0.73828125 41.17578125 C-2.79123968 44.1439905 -4.69811957 45.57565942 -8 47 C-17.35236163 48.68342509 -26.46891491 42.64317408 -33.875 37.5 C-38.08289692 34.50490545 -42.06373126 31.33701589 -46 28 C-45.40242813 24.85617743 -44.44021118 22.97001346 -42.41796875 20.50390625 C-41.89783203 19.86259766 -41.37769531 19.22128906 -40.84179688 18.56054688 C-40.02291992 17.57151367 -40.02291992 17.57151367 -39.1875 16.5625 C-38.65318359 15.90701172 -38.11886719 15.25152344 -37.56835938 14.57617188 C-36.52010134 13.2906697 -35.46156087 12.01347592 -34.39233398 10.74536133 C-32.84690021 8.89588976 -32.84690021 8.89588976 -31.359375 6.171875 C-27.36066255 2.49094102 -22.30933575 2.40509565 -17.0625 1.6875 C-15.97775391 1.51927734 -14.89300781 1.35105469 -13.77539062 1.17773438 C-9.14049008 0.47979299 -4.69447681 -0.09541403 0 0 Z " fill="#FCFEFE" transform="translate(172,144)"/>
<path d="M0 0 C1.12921875 0.18175781 1.12921875 0.18175781 2.28125 0.3671875 C3.3434375 0.53476563 4.405625 0.70234375 5.5 0.875 C6.68335937 1.07351562 7.86671875 1.27203125 9.0859375 1.4765625 C11.84318478 1.84529617 14.29004315 2.05816963 17.0390625 2.0859375 C23.00867176 2.25443741 27.9117248 2.42833697 32.21484375 6.9609375 C34.64755911 9.92013907 36.77149804 13.06251163 38.84667969 16.27929688 C40.43814995 18.65370043 42.27411305 20.75579055 44.1875 22.875 C44.73792969 23.49117187 45.28835937 24.10734375 45.85546875 24.7421875 C46.23316406 25.15726563 46.61085937 25.57234375 47 26 C36.52378908 36.79367185 24.94164677 45.16282357 9.75 47.5 C5.92563756 46.80466137 3.35826175 45.00562773 1 42 C-2.58568009 35.69123267 -2.41813542 29.82422867 -2.3125 22.6875 C-2.31572266 21.61048828 -2.31894531 20.53347656 -2.32226562 19.42382812 C-2.27764483 12.72665283 -1.59351591 6.50632453 0 0 Z " fill="#FCFEFE" transform="translate(66,144)"/>
<path d="M0 0 C13.57971776 0.54318871 26.85377811 8.40555962 36.1875 18 C38.51818034 21.8576778 38.93503455 24.60710183 38 29 C32.33536898 40.32926205 19.13361925 46.06800072 7.73828125 50.17578125 C5.50098134 50.84920533 3.27612412 51.47474059 1 52 C0.61328125 50.94941406 0.2265625 49.89882812 -0.171875 48.81640625 C-0.69741198 47.39825037 -1.22348926 45.98029464 -1.75 44.5625 C-2.02078369 43.8305542 -2.29156738 43.0986084 -2.57055664 42.34448242 C-4.29476541 37.73279869 -6.1617202 33.26900149 -8.43359375 28.89453125 C-9.99075766 23.68608644 -6.42637205 17.73022083 -4.5 12.9375 C-3.86233773 11.34334432 -3.22684255 9.74831973 -2.59375 8.15234375 C-2.31208984 7.45101318 -2.03042969 6.74968262 -1.74023438 6.02709961 C-1.01318262 4.03610003 -0.47486918 2.06423318 0 0 Z " fill="#FDFEFE" transform="translate(176,81)"/>
<path d="M0 0 C13.12479973 1.72128521 23.5437232 10.91386507 33.09765625 19.40625 C31.78902209 22.21052103 30.33320946 24.538442 28.3828125 26.9375 C27.86138672 27.58332031 27.33996094 28.22914062 26.80273438 28.89453125 C26.26068359 29.55839844 25.71863281 30.22226562 25.16015625 30.90625 C24.08803049 32.22875243 23.01640112 33.55165746 21.9453125 34.875 C21.47101807 35.45701172 20.99672363 36.03902344 20.50805664 36.63867188 C19.03508875 38.4162098 19.03508875 38.4162098 17.75512695 40.54785156 C15.54656429 43.02414836 13.98132461 43.17426712 10.73046875 43.671875 C9.15458984 43.92324219 9.15458984 43.92324219 7.546875 44.1796875 C6.44988281 44.33695313 5.35289063 44.49421875 4.22265625 44.65625 C3.13339844 44.82898438 2.04414062 45.00171875 0.921875 45.1796875 C-3.7322117 45.89745363 -8.18490411 46.50705458 -12.90234375 46.40625 C-14.61376325 38.30756844 -15.16688795 30.35170206 -15.27734375 22.09375 C-15.303125 21.16353027 -15.32890625 20.23331055 -15.35546875 19.27490234 C-15.37524983 12.35770509 -14.06193537 6.9843648 -9.40942383 1.71557617 C-6.64725495 -0.68415033 -3.49542653 -0.11052732 0 0 Z " fill="#FDFEFE" transform="translate(78.90234375,22.59375)"/>
<path d="M0 0 C5.2354914 2.47495957 9.39229231 6.78458462 12 12 C12.74617236 18.92874332 12.70576721 24.63182094 8.5 30.37890625 C5.05881481 34.09789545 1.05146343 36.69775981 -4.05078125 37.203125 C-10.64372556 37.33976633 -14.53762809 36.06152067 -19.6875 31.75 C-23.66502894 27.01996559 -25.61915379 22.3148502 -25.3515625 16.05078125 C-24.48341567 10.98659139 -22.19002771 7.13052632 -18.5 3.625 C-12.34317543 -0.37693597 -7.31742699 -0.78576397 0 0 Z " fill="#54C1DE" transform="translate(125,88)"/>
<path d="M0 0 C2.57174375 1.28587188 2.5972893 2.14421859 3.5078125 4.81640625 C3.77207031 5.58017578 4.03632813 6.34394531 4.30859375 7.13085938 C4.57800781 7.93330078 4.84742188 8.73574219 5.125 9.5625 C5.54072266 10.77196289 5.54072266 10.77196289 5.96484375 12.00585938 C6.6497948 14.00166501 7.32574416 16.00055579 8 18 C3.64409432 19.62849969 -0.23934612 20.34118446 -4.875 20.625 C-6.02742187 20.69976562 -7.17984375 20.77453125 -8.3671875 20.8515625 C-9.23601562 20.90054688 -10.10484375 20.94953125 -11 21 C-9.3003494 16.26525903 -6.86340973 12.03832889 -4.375 7.6875 C-3.95476562 6.94693359 -3.53453125 6.20636719 -3.1015625 5.44335938 C-2.07051505 3.62730989 -1.03563954 1.81343467 0 0 Z " fill="#F7FCFD" transform="translate(161,117)"/>
<path d="M0 0 C0.66 0 1.32 0 2 0 C3.65000386 2.93517601 5.29427432 5.87352474 6.9375 8.8125 C7.40607422 9.64587891 7.87464844 10.47925781 8.35742188 11.33789062 C8.80537109 12.14033203 9.25332031 12.94277344 9.71484375 13.76953125 C10.12855225 14.50792236 10.54226074 15.24631348 10.96850586 16.00708008 C12 18 12 18 13 21 C3.595 19.515 3.595 19.515 -6 18 C-4.37727326 11.74091114 -2.73384207 5.85823301 0 0 Z " fill="#F7FCFD" transform="translate(75,118)"/>
<path d="M0 0 C7.92 0 15.84 0 24 0 C16.6 11.1 16.6 11.1 13 15 C12.34 15 11.68 15 11 15 C9.43567213 13.30725716 7.94671428 11.54430148 6.5 9.75 C5.7059375 8.77546875 4.911875 7.8009375 4.09375 6.796875 C2 4 2 4 0 0 Z " fill="#F8FCFD" transform="translate(107,149)"/>
<path d="M0 0 C-0.54269531 0.94101563 -1.08539063 1.88203125 -1.64453125 2.8515625 C-2.36727516 4.10932463 -3.08992648 5.36713997 -3.8125 6.625 C-4.16892578 7.24246094 -4.52535156 7.85992187 -4.89257812 8.49609375 C-7.05913172 12.27265506 -9.0904299 16.08447772 -11 20 C-11.66 20 -12.32 20 -13 20 C-14.98 14.39 -16.96 8.78 -19 3 C-12.26196155 0.75398718 -7.04625717 -0.04991445 0 0 Z " fill="#F7FCFD" transform="translate(88,75)"/>
<path d="M0 0 C4.05934345 1.55484027 6.07850962 4.21440667 8.75 7.5625 C9.54921875 8.55378906 10.3484375 9.54507813 11.171875 10.56640625 C13 13 13 13 13 14 C5.08 14 -2.84 14 -11 14 C-8.7128892 10.18814867 -6.74472642 7.40814213 -3.8125 4.1875 C-3.09707031 3.39730469 -2.38164063 2.60710938 -1.64453125 1.79296875 C-1.10183594 1.20128906 -0.55914062 0.60960937 0 0 Z " fill="#FAFDFE" transform="translate(118,50)"/>
<path d="M0 0 C6.25107435 0.42954941 12.04204521 1.01401507 18 3 C16.41039668 9.23440168 14.72399099 15.16287645 12 21 C9.09213774 17.32988259 6.71863867 13.38139357 4.3125 9.375 C3.89677734 8.694375 3.48105469 8.01375 3.05273438 7.3125 C0 2.23964748 0 2.23964748 0 0 Z " fill="#F9FCFD" transform="translate(150,75)"/>
</svg>
